{"glyphs":{"2":{"ha":805,"x_min":70,"x_max":708,"o":"m 699 0 l 70 0 l 70 102 l 376 410 q 563 632 528 564 q 597 779 597 701 q 545 922 597 871 q 394 972 492 972 q 124 850 254 972 l 124 971 q 409 1068 245 1068 q 626 993 545 1068 q 708 789 708 918 q 654 594 708 690 q 450 348 600 498 l 205 106 l 205 103 l 699 103 l 699 0 z "},"3":{"ha":805,"x_min":95,"x_max":699,"o":"m 95 164 q 338 79 203 79 q 514 134 446 79 q 583 285 583 189 q 286 495 583 495 l 199 495 l 199 592 l 282 592 q 545 789 545 592 q 345 971 545 971 q 136 895 233 971 l 136 1008 q 373 1068 236 1068 q 579 1000 498 1068 q 661 818 661 931 q 450 551 661 612 l 450 548 q 630 469 562 538 q 699 297 699 400 q 595 68 699 153 q 331 -18 492 -18 q 95 39 183 -18 l 95 164 z "},"6":{"ha":805,"x_min":81,"x_max":745,"o":"m 681 930 q 509 971 598 971 q 281 845 365 971 q 199 505 198 718 l 202 505 q 443 656 275 656 q 663 566 581 656 q 745 331 745 477 q 652 82 745 181 q 417 -18 560 -18 q 167 111 253 -18 q 81 461 81 239 q 193 898 81 728 q 507 1068 305 1068 q 681 1038 617 1068 l 681 930 m 207 344 q 266 156 207 233 q 421 79 326 79 q 571 146 514 79 q 628 317 628 214 q 572 495 628 431 q 420 559 517 559 q 269 496 331 559 q 207 344 207 434 z "},"￿":{"ha":968,"x_min":121,"x_max":846,"o":"m 121 0 l 121 1024 l 846 1024 l 846 0 l 121 0 m 203 81 l 766 81 l 766 943 l 203 943 l 203 81 z "},"(":{"ha":446,"x_min":102,"x_max":431,"o":"m 328 -239 q 102 401 102 20 q 328 1050 102 783 l 431 1050 q 201 402 201 772 q 430 -239 201 35 l 328 -239 z "},")":{"ha":446,"x_min":16,"x_max":348,"o":"m 18 -239 q 247 402 247 33 q 16 1050 247 773 l 120 1050 q 348 401 348 783 q 120 -239 348 21 l 18 -239 z "},"-":{"ha":600,"x_min":106,"x_max":505,"o":"m 505 374 l 106 374 l 106 464 l 505 464 l 505 374 z "},"A":{"ha":962,"x_min":17,"x_max":945,"o":"m 945 0 l 817 0 l 703 298 l 252 298 l 146 0 l 17 0 l 421 1050 l 538 1050 l 945 0 m 663 404 l 495 858 q 479 927 488 877 l 476 927 q 459 858 469 881 l 293 404 l 663 404 z "},"E":{"ha":756,"x_min":139,"x_max":691,"o":"m 691 0 l 139 0 l 139 1050 l 667 1050 l 667 945 l 254 945 l 254 587 l 636 587 l 636 481 l 254 481 l 254 106 l 691 106 l 691 0 z "},"a":{"ha":760,"x_min":67,"x_max":654,"o":"m 140 696 q 393 768 251 768 q 654 490 654 768 l 654 0 l 541 0 l 541 118 l 537 118 q 307 -18 459 -18 q 131 42 195 -18 q 67 199 67 101 q 314 442 67 407 l 541 475 q 385 670 541 670 q 140 577 248 670 l 140 696 m 357 356 q 223 310 260 343 q 185 206 185 276 q 225 115 185 150 q 331 79 266 79 q 481 144 421 79 q 541 304 541 208 l 541 380 l 357 356 z "},"c":{"ha":691,"x_min":72,"x_max":632,"o":"m 631 35 q 427 -18 543 -18 q 170 86 268 -18 q 72 357 72 191 q 178 656 72 544 q 459 768 283 768 q 632 731 556 768 l 632 612 q 452 671 548 671 q 262 588 337 671 q 187 368 187 505 q 257 156 187 233 q 445 79 327 79 q 631 144 545 79 l 631 35 z "},"e":{"ha":783,"x_min":72,"x_max":721,"o":"m 721 347 l 189 347 q 258 149 193 218 q 436 79 323 79 q 670 164 563 79 l 670 56 q 410 -18 572 -18 q 162 85 253 -18 q 72 373 72 187 q 170 656 72 544 q 415 768 268 768 q 640 673 559 768 q 721 408 721 578 l 721 347 m 604 447 q 553 611 604 553 q 413 670 503 670 q 269 611 331 670 q 191 447 207 552 l 604 447 z "},"i":{"ha":360,"x_min":108,"x_max":257,"o":"m 108 1020 q 129 1074 108 1052 q 181 1096 151 1096 q 235 1074 213 1096 q 257 1020 257 1051 q 235 968 257 990 q 181 945 213 945 q 129 967 149 945 q 108 1020 108 989 m 123 0 l 123 750 l 236 750 l 236 0 l 123 0 z "},"n":{"ha":845,"x_min":123,"x_max":739,"o":"m 739 0 l 626 0 l 626 429 q 448 671 626 671 q 296 602 355 671 q 236 428 236 532 l 236 0 l 123 0 l 123 750 l 236 750 l 236 625 l 239 625 q 486 768 323 768 q 674 688 609 768 q 739 458 739 609 l 739 0 z "},"r":{"ha":517,"x_min":123,"x_max":508,"o":"m 508 634 q 418 658 477 658 q 287 582 338 658 q 236 384 236 507 l 236 0 l 123 0 l 123 750 l 236 750 l 236 595 l 239 595 q 318 719 265 675 q 435 763 371 763 q 508 753 483 763 l 508 634 z "},"s":{"ha":633,"x_min":76,"x_max":568,"o":"m 76 153 q 292 80 174 80 q 452 188 452 80 q 417 265 452 235 q 279 334 382 295 q 117 431 157 382 q 77 552 77 479 q 160 708 77 648 q 362 768 242 768 q 534 734 458 768 l 534 616 q 344 670 452 670 q 236 640 277 670 q 194 562 194 610 q 223 487 194 513 q 353 420 252 461 q 525 321 481 371 q 568 199 568 271 q 486 40 568 98 q 275 -18 404 -18 q 76 28 159 -18 l 76 153 z "},"t":{"ha":504,"x_min":31,"x_max":464,"o":"m 464 7 q 355 -16 422 -16 q 161 201 161 -16 l 161 652 l 31 652 l 31 750 l 161 750 l 161 935 l 274 971 l 274 750 l 464 750 l 464 652 l 274 652 l 274 222 q 300 113 274 145 q 386 80 326 80 q 464 105 433 80 l 464 7 z "},"（":{"ha":1389,"x_min":567,"x_max":905,"o":"m 804 1050 l 905 1050 q 667 401 667 777 q 904 -239 667 35 l 804 -239 q 567 400 567 25 q 804 1050 567 785 z "},"）":{"ha":1389,"x_min":484,"x_max":822,"o":"m 585 -239 l 484 -239 q 721 408 721 35 q 484 1050 721 779 l 583 1050 q 822 410 822 785 q 585 -239 822 31 z "},"，":{"ha":1389,"x_min":628,"x_max":758,"o":"m 678 408 q 628 475 628 435 q 645 516 628 495 q 693 536 662 536 q 758 451 758 536 q 676 316 758 381 l 647 338 q 678 408 678 380 z "},"、":{"ha":1389,"x_min":558,"x_max":831,"o":"m 831 452 l 782 399 q 558 597 681 509 l 610 652 q 831 452 748 548 z "},"一":{"ha":1389,"x_min":98,"x_max":1301,"o":"m 1301 525 l 98 525 l 98 603 l 1301 603 l 1301 525 z "},"七":{"ha":1389,"x_min":96,"x_max":1304,"o":"m 1304 675 l 656 607 l 656 85 q 725 20 656 20 l 1265 20 l 1265 -54 l 721 -54 q 579 96 579 -54 l 579 599 l 109 551 l 96 625 l 579 675 l 579 1150 l 656 1150 l 656 682 l 1299 750 l 1304 675 z "},"三":{"ha":1389,"x_min":98,"x_max":1303,"o":"m 1232 1038 l 167 1038 l 167 1114 l 1232 1114 l 1232 1038 m 1175 519 l 225 519 l 225 599 l 1175 599 l 1175 519 m 1303 -40 l 98 -40 l 98 36 l 1303 36 l 1303 -40 z "},"上":{"ha":1389,"x_min":97,"x_max":1303,"o":"m 1303 -36 l 97 -36 l 97 36 l 615 36 l 615 1143 l 689 1143 l 689 708 l 1242 708 l 1242 635 l 689 635 l 689 36 l 1303 36 l 1303 -36 z "},"下":{"ha":1389,"x_min":97,"x_max":1301,"o":"m 1301 1038 l 672 1038 l 672 741 q 1162 436 1035 548 l 1118 368 q 672 657 941 517 l 672 -69 l 597 -69 l 597 1038 l 97 1038 l 97 1112 l 1301 1112 l 1301 1038 z "},"不":{"ha":1389,"x_min":85,"x_max":1324,"o":"m 1324 309 l 1278 249 q 741 612 966 496 l 741 -78 l 663 -78 l 663 704 q 134 250 466 469 l 85 314 q 779 1036 596 619 l 113 1036 l 113 1111 l 1293 1111 l 1293 1036 l 864 1036 q 741 810 814 928 l 741 699 q 1324 309 1129 473 z "},"丘":{"ha":1389,"x_min":87,"x_max":1299,"o":"m 1299 -36 l 87 -36 l 87 39 l 300 39 l 300 1021 q 1111 1145 677 1034 l 1152 1080 q 375 956 904 1003 l 375 648 l 1251 648 l 1251 575 l 978 575 l 978 39 l 1299 39 l 1299 -36 m 900 39 l 900 575 l 375 575 l 375 39 l 900 39 z "},"中":{"ha":1389,"x_min":172,"x_max":1226,"o":"m 1226 345 l 737 345 l 737 -72 l 664 -72 l 664 345 l 172 345 l 172 897 l 664 897 l 664 1143 l 737 1143 l 737 897 l 1226 897 l 1226 345 m 1152 419 l 1152 823 l 737 823 l 737 419 l 1152 419 m 664 419 l 664 823 l 245 823 l 245 419 l 664 419 z "},"主":{"ha":1389,"x_min":89,"x_max":1297,"o":"m 1297 -35 l 89 -35 l 89 37 l 660 37 l 660 411 l 205 411 l 205 484 l 660 484 l 660 823 l 140 823 l 140 896 l 682 896 q 551 1124 621 1042 l 623 1152 q 761 896 705 1035 l 1249 896 l 1249 823 l 737 823 l 737 484 l 1179 484 l 1179 411 l 737 411 l 737 37 l 1297 37 l 1297 -35 z "},"乏":{"ha":1389,"x_min":90,"x_max":1300,"o":"m 1300 28 l 1282 -49 q 816 -45 931 -49 q 598 -13 701 -41 q 422 75 496 14 q 132 -72 222 -33 l 90 -5 q 1080 682 747 294 l 155 682 l 155 751 l 681 751 q 568 978 635 868 q 158 951 292 956 l 132 1023 q 1186 1152 726 1041 l 1223 1086 q 646 983 946 1019 q 762 751 730 833 l 1178 751 l 1178 682 q 485 111 926 362 q 882 17 631 17 q 1300 28 1019 17 z "},"乙":{"ha":1389,"x_min":127,"x_max":1274,"o":"m 1274 397 q 1203 52 1248 142 q 1048 -45 1158 -37 q 471 -52 938 -52 q 239 -46 281 -52 q 162 -1 197 -39 q 127 102 127 37 q 950 1035 127 352 l 171 1035 l 171 1108 l 1080 1108 l 1080 1035 q 490 521 775 812 q 205 103 205 231 q 252 32 205 45 q 696 19 300 19 q 1006 22 913 19 q 1125 65 1099 25 q 1172 198 1152 104 q 1198 424 1192 292 l 1274 397 z "},"九":{"ha":1389,"x_min":106,"x_max":1304,"o":"m 1304 260 q 1241 -1 1283 52 q 1103 -54 1198 -54 q 921 -30 962 -54 q 885 72 880 -5 l 926 807 l 578 807 q 458 292 556 495 q 163 -72 361 88 l 106 -11 q 501 807 463 234 l 127 807 l 127 879 l 505 879 q 517 1146 517 1061 l 589 1146 q 581 879 589 1017 l 1007 879 l 961 64 q 979 27 960 38 q 1115 16 998 16 q 1172 32 1154 16 q 1207 113 1190 47 q 1229 286 1223 179 l 1304 260 z "},"乳":{"ha":1389,"x_min":83,"x_max":1297,"o":"m 737 1086 q 115 990 442 1003 l 92 1060 q 696 1152 435 1073 l 737 1086 m 1297 328 q 1274 114 1289 201 q 1239 2 1259 26 q 1194 -36 1219 -22 q 1063 -49 1169 -49 q 916 -23 955 -49 q 876 60 876 3 l 876 1145 l 950 1145 l 950 68 q 967 38 950 52 q 1069 25 984 25 q 1167 35 1143 25 q 1205 143 1192 45 q 1223 361 1218 241 l 1297 328 m 750 968 q 633 707 703 825 l 566 733 q 681 994 635 852 l 750 968 m 501 739 l 435 717 q 357 949 399 859 l 427 972 q 501 739 492 816 m 281 726 l 211 700 q 115 921 189 783 l 183 949 q 281 726 254 817 m 777 339 q 488 277 593 296 l 488 26 q 456 -48 488 -29 q 332 -67 425 -67 q 244 -64 287 -67 l 225 8 l 382 4 q 416 37 416 4 l 416 264 l 92 211 l 83 283 q 416 335 272 307 l 416 443 q 614 583 543 519 l 119 583 l 119 656 l 726 656 l 726 583 q 488 404 625 494 l 488 350 q 777 412 614 374 l 777 339 z "},"乾":{"ha":1389,"x_min":93,"x_max":1307,"o":"m 1301 889 l 825 889 q 714 743 777 808 l 661 796 q 872 1149 786 928 l 943 1122 q 865 960 905 1030 l 1301 960 l 1301 889 m 667 936 l 433 936 l 433 814 l 623 814 l 623 339 l 433 339 l 433 211 l 657 211 l 657 142 l 433 142 l 433 -72 l 361 -72 l 361 142 l 93 142 l 93 211 l 361 211 l 361 339 l 165 339 l 165 814 l 361 814 l 361 936 l 115 936 l 115 1006 l 361 1006 l 361 1146 l 433 1146 l 433 1006 l 667 1006 l 667 936 m 549 614 l 549 745 l 236 745 l 236 614 l 549 614 m 549 408 l 549 545 l 236 545 l 236 408 l 549 408 m 1307 197 q 1260 13 1293 58 q 1178 -40 1227 -32 q 962 -48 1129 -48 q 790 -43 858 -48 q 693 -10 722 -37 q 665 60 665 17 q 683 125 665 86 q 821 309 701 163 q 1095 611 940 454 l 732 611 l 732 681 l 1200 681 l 1200 611 q 852 232 966 385 q 739 58 739 79 q 765 27 739 35 q 956 20 791 20 q 1184 38 1154 20 q 1224 121 1214 56 q 1235 233 1235 187 l 1307 197 z "},"二":{"ha":1389,"x_min":96,"x_max":1305,"o":"m 1207 1010 l 193 1010 l 193 1086 l 1207 1086 l 1207 1010 m 1305 -7 l 96 -7 l 96 66 l 1305 66 l 1305 -7 z "},"五":{"ha":1389,"x_min":96,"x_max":1303,"o":"m 1303 -39 l 96 -39 l 96 36 l 411 36 l 526 615 l 208 615 l 208 690 l 541 690 l 608 1039 l 147 1039 l 147 1112 l 1254 1112 l 1254 1039 l 685 1039 l 616 690 l 1086 690 l 1086 36 l 1303 36 l 1303 -39 m 1011 36 l 1011 615 l 603 615 l 490 36 l 1011 36 z "},"井":{"ha":1389,"x_min":97,"x_max":1303,"o":"m 1303 399 l 989 399 l 989 -69 l 914 -69 l 914 399 l 503 399 q 163 -75 471 96 l 107 -9 q 328 167 241 56 q 425 399 416 277 l 97 399 l 97 471 l 433 471 q 443 829 446 602 l 146 829 l 146 903 l 443 903 l 443 1143 l 521 1143 l 521 903 l 914 903 l 914 1143 l 989 1143 l 989 903 l 1251 903 l 1251 829 l 989 829 l 989 471 l 1303 471 l 1303 399 m 914 471 l 914 829 l 521 829 q 511 471 521 663 l 914 471 z "},"交":{"ha":1389,"x_min":93,"x_max":1301,"o":"m 1291 916 l 113 916 l 113 987 l 686 987 q 619 1125 671 1048 l 692 1153 q 766 987 741 1067 l 1291 987 l 1291 916 m 1286 484 l 1229 432 q 847 800 1089 612 l 900 852 q 1286 484 1148 661 m 555 808 q 160 435 422 630 l 109 493 q 498 852 364 676 l 555 808 m 1301 -8 l 1265 -79 q 699 176 928 7 q 135 -79 481 12 l 93 -7 q 643 227 433 71 q 407 554 510 361 l 475 587 q 700 275 583 389 q 940 586 842 422 l 1008 551 q 758 228 873 340 q 1301 -8 949 81 z "},"京":{"ha":1389,"x_min":87,"x_max":1315,"o":"m 1291 920 l 109 920 l 109 990 l 679 990 q 593 1118 649 1057 l 661 1152 q 760 990 724 1065 l 1291 990 l 1291 920 m 1145 408 l 739 408 l 739 37 q 713 -43 739 -19 q 625 -68 688 -68 l 494 -68 l 471 4 l 628 4 q 654 16 642 4 q 665 45 665 28 l 665 408 l 260 408 l 260 783 l 1145 783 l 1145 408 m 1069 484 l 1069 708 l 334 708 l 334 484 l 1069 484 m 1315 45 l 1264 -9 q 892 272 1123 130 l 940 329 q 1315 45 1178 181 m 521 272 q 143 -14 374 109 l 87 53 q 463 329 284 132 l 521 272 z "},"人":{"ha":1389,"x_min":94,"x_max":1308,"o":"m 1308 -16 l 1254 -71 q 697 768 821 235 q 144 -68 609 281 l 94 -8 q 383 262 252 100 q 583 619 514 424 q 656 1146 651 814 l 733 1146 q 886 465 729 762 q 1308 -16 1044 168 z "},"仆":{"ha":1389,"x_min":75,"x_max":1304,"o":"m 541 1125 q 393 869 486 1011 l 393 -72 l 318 -72 l 318 762 q 122 547 222 640 l 75 612 q 467 1150 293 806 l 541 1125 m 1304 436 l 1255 370 q 854 704 1095 536 l 854 -71 l 778 -71 l 778 1147 l 854 1147 l 854 793 q 1304 436 1145 588 z "},"仙":{"ha":1389,"x_min":82,"x_max":1257,"o":"m 449 1125 q 380 960 410 1025 l 351 897 l 351 -74 l 279 -74 l 279 754 q 115 539 178 599 l 82 611 q 379 1153 249 793 l 449 1125 m 1257 -74 l 1185 -74 l 1185 -21 l 536 -21 l 536 972 l 608 972 l 608 52 l 857 52 l 857 1146 l 932 1146 l 932 52 l 1185 52 l 1185 972 l 1257 972 l 1257 -74 z "},"伏":{"ha":1389,"x_min":83,"x_max":1307,"o":"m 460 1126 q 393 961 436 1058 l 350 868 l 350 -71 l 275 -71 l 275 736 q 127 539 201 620 l 83 606 q 392 1153 279 827 l 460 1126 m 1307 -8 l 1255 -65 q 831 530 956 168 q 436 -66 767 214 l 382 -12 q 783 679 741 276 l 416 679 l 416 754 l 790 754 l 799 1145 l 873 1145 q 861 754 870 912 l 1287 754 l 1287 679 l 864 679 q 1307 -8 970 240 m 1250 867 l 1186 825 q 1023 1076 1125 954 l 1086 1116 q 1250 867 1201 970 z "},"位":{"ha":1389,"x_min":72,"x_max":1305,"o":"m 1305 -37 l 412 -37 l 412 35 l 693 35 q 538 781 658 372 l 586 807 l 431 807 l 431 879 l 843 879 q 760 1124 814 1006 l 829 1147 q 921 879 880 1033 l 1283 879 l 1283 807 l 1143 807 l 1187 790 q 1023 35 1126 363 l 1305 35 l 1305 -37 m 1112 807 l 611 807 q 770 35 724 386 l 949 35 q 1112 807 1069 418 m 463 1117 q 391 965 436 1054 l 346 878 l 346 -71 l 272 -71 l 272 743 q 118 533 210 643 l 72 602 q 389 1143 265 830 l 463 1117 z "},"使":{"ha":1389,"x_min":83,"x_max":1305,"o":"m 437 1117 q 382 974 422 1072 l 340 878 l 340 -77 l 269 -77 l 269 739 q 123 524 191 603 l 83 590 q 374 1145 229 764 l 437 1117 m 1305 926 l 896 926 l 896 762 l 1238 762 l 1238 404 l 889 404 q 819 136 878 237 q 1304 -5 1000 33 l 1276 -75 q 777 78 976 -39 q 428 -79 650 -56 l 399 -14 q 715 119 614 15 q 517 317 587 214 l 578 351 q 755 176 636 267 q 817 404 804 250 l 473 404 l 473 762 l 822 762 l 822 926 l 429 926 l 429 994 l 822 994 l 822 1135 l 896 1135 l 896 994 l 1305 994 l 1305 926 m 1165 473 l 1165 693 l 897 693 q 893 473 897 585 l 1165 473 m 819 693 l 549 693 l 549 473 l 817 473 q 819 693 821 594 z "},"來":{"ha":1389,"x_min":82,"x_max":1318,"o":"m 1318 68 l 1276 3 q 728 472 923 168 l 728 -68 l 657 -66 l 657 468 q 126 4 465 212 l 82 62 q 657 595 500 321 l 657 937 l 111 937 l 111 1007 l 657 1007 l 657 1149 l 728 1149 l 728 1007 l 1291 1007 l 1291 937 l 728 937 l 728 596 q 979 285 823 426 q 1318 68 1135 144 m 533 514 l 482 457 q 336 621 416 555 q 155 401 280 516 l 100 453 q 361 867 294 608 l 429 850 q 371 686 414 778 q 533 514 476 593 m 1253 468 l 1217 401 q 1013 612 1130 509 q 907 444 958 497 l 851 490 q 1018 860 966 631 l 1086 846 q 1039 682 1065 754 q 1253 468 1177 564 z "},"侖":{"ha":1389,"x_min":77,"x_max":1308,"o":"m 1308 743 l 1272 672 q 701 1038 916 810 q 119 672 478 804 l 77 739 q 692 1141 477 871 l 768 1118 q 747 1089 758 1099 q 1308 743 972 857 m 996 721 l 400 721 l 400 791 l 996 791 l 996 721 m 1204 17 q 1169 -61 1204 -41 q 1041 -80 1133 -80 q 977 -78 1006 -80 l 957 -5 q 1089 -11 1041 -11 q 1121 1 1108 -11 q 1133 28 1133 14 l 1133 241 l 886 241 l 886 -60 l 815 -60 l 815 241 l 576 241 l 576 -60 l 504 -60 l 504 241 l 258 241 l 258 -75 l 186 -75 l 186 593 l 1204 593 l 1204 17 m 1133 310 l 1133 521 l 886 521 l 886 310 l 1133 310 m 815 310 l 815 521 l 576 521 l 576 310 l 815 310 m 504 310 l 504 521 l 258 521 l 258 310 l 504 310 z "},"俞":{"ha":1389,"x_min":87,"x_max":1301,"o":"m 1301 753 l 1263 688 q 975 823 1131 738 l 975 766 l 415 766 l 415 828 q 132 688 298 754 l 87 749 q 681 1152 509 910 l 751 1131 q 739 1109 749 1120 q 1301 753 908 897 m 954 836 q 696 1053 804 922 q 433 836 612 951 l 954 836 m 1203 29 q 1169 -45 1203 -19 q 1052 -72 1135 -72 l 970 -72 l 937 4 q 1022 0 977 0 q 1116 10 1100 0 q 1132 46 1132 20 l 1132 667 l 1203 667 l 1203 29 m 724 28 q 698 -37 724 -12 q 644 -65 673 -62 q 567 -69 615 -69 l 519 -69 l 485 4 q 616 1 557 1 q 653 37 653 1 l 653 196 l 288 196 q 182 -78 252 21 l 113 -39 q 203 157 172 40 q 234 528 234 273 q 232 657 234 592 l 724 657 l 724 28 m 653 464 l 653 587 l 307 587 l 306 464 l 653 464 m 653 265 l 653 395 l 307 395 q 298 265 307 331 l 653 265 m 958 104 l 889 104 l 889 633 l 958 633 l 958 104 z "},"俠":{"ha":1389,"x_min":90,"x_max":1311,"o":"m 421 1124 q 362 937 404 1054 l 321 821 l 321 -78 l 250 -78 l 250 684 q 127 500 211 610 l 90 571 q 351 1140 267 800 l 421 1124 m 1311 -26 l 1258 -85 q 854 392 937 119 q 712 124 823 253 q 452 -89 602 -5 l 399 -32 q 666 181 560 54 q 794 448 772 308 q 817 888 817 588 l 440 888 l 440 957 l 817 957 l 817 1132 l 886 1132 l 886 957 l 1282 957 l 1282 888 l 889 888 q 882 578 885 732 q 1001 243 882 403 q 1311 -26 1120 83 m 742 421 l 690 375 q 570 558 626 494 q 443 347 518 436 l 387 390 q 575 819 511 540 l 644 810 q 599 632 624 707 q 742 421 689 530 m 1311 390 l 1260 347 q 1103 558 1203 448 q 1010 375 1062 456 l 951 421 q 1090 817 1057 574 l 1161 806 q 1124 632 1143 703 q 1311 390 1246 510 z "},"信":{"ha":1389,"x_min":85,"x_max":1300,"o":"m 1300 911 l 444 911 l 444 982 l 833 982 q 771 1118 823 1031 l 839 1145 q 908 982 883 1069 l 1300 982 l 1300 911 m 446 1118 q 387 963 426 1055 l 349 873 l 349 -77 l 278 -77 l 278 736 q 122 519 189 595 l 85 586 q 378 1143 277 818 l 446 1118 m 1235 708 l 498 708 l 498 777 l 1235 777 l 1235 708 m 1235 498 l 498 498 l 498 567 l 1235 567 l 1235 498 m 1213 -78 l 1143 -78 l 1143 -12 l 586 -12 l 586 -78 l 514 -78 l 514 357 l 1213 357 l 1213 -78 m 1143 58 l 1143 288 l 586 288 l 586 58 l 1143 58 z "},"倉":{"ha":1389,"x_min":96,"x_max":1308,"o":"m 1308 818 l 1268 757 q 926 907 1073 824 l 926 846 l 482 846 l 482 893 q 132 749 300 793 l 96 812 q 688 1156 476 914 l 771 1137 l 750 1109 q 1308 818 966 928 m 909 911 q 701 1060 811 969 q 511 911 621 980 l 909 911 m 1152 363 l 385 363 q 182 -72 359 134 l 126 -25 q 277 234 231 103 q 323 538 323 366 l 323 766 l 1152 766 l 1152 363 m 1079 602 l 1079 701 l 396 701 l 396 602 l 1079 602 m 1079 431 l 1079 536 l 396 536 l 396 431 l 1079 431 m 1189 -71 l 1116 -71 l 1116 -11 l 486 -11 l 486 -71 l 411 -71 l 411 264 l 1189 264 l 1189 -71 m 1116 53 l 1116 201 l 486 201 l 486 53 l 1116 53 z "},"偏":{"ha":1389,"x_min":78,"x_max":1249,"o":"m 399 1135 q 349 968 383 1071 l 314 871 l 314 -71 l 243 -71 l 243 703 q 126 501 191 600 l 78 566 q 334 1153 228 785 l 399 1135 m 1214 646 l 539 646 l 539 558 q 425 -56 539 199 l 364 -12 q 465 539 465 208 l 465 1061 q 1177 1147 913 1067 l 1213 1082 q 539 994 912 1008 l 539 905 l 1214 905 l 1214 646 m 1140 713 l 1140 836 l 539 836 l 539 713 l 1140 713 m 1249 22 q 1213 -51 1249 -36 q 1137 -66 1178 -66 l 1101 -66 l 1071 3 q 1165 5 1149 3 q 1181 28 1181 7 l 1181 236 l 1047 236 l 1047 -45 l 978 -45 l 978 236 l 846 236 l 846 -45 l 777 -45 l 777 236 l 652 236 l 652 -71 l 583 -71 l 583 541 l 1249 541 l 1249 22 m 1181 300 l 1181 471 l 1047 471 l 1047 300 l 1181 300 m 978 300 l 978 471 l 846 471 l 846 300 l 978 300 m 777 300 l 777 471 l 652 471 l 652 300 l 777 300 z "},"健":{"ha":1389,"x_min":81,"x_max":1300,"o":"m 386 1141 q 338 993 372 1089 l 306 899 l 306 -71 l 235 -71 l 235 741 q 126 536 193 648 l 81 597 q 319 1157 220 833 l 386 1141 m 1292 212 l 993 212 l 993 69 l 924 69 l 924 212 l 671 212 l 671 279 l 924 279 l 924 406 l 710 406 l 710 471 l 924 471 l 924 582 l 758 582 l 758 647 l 924 647 l 924 772 l 681 772 l 681 839 l 924 839 l 924 960 l 751 960 l 751 1028 l 924 1028 l 924 1143 l 993 1143 l 993 1028 l 1203 1028 l 1203 839 l 1286 839 l 1286 772 l 1203 772 l 1203 582 l 993 582 l 993 471 l 1271 471 l 1271 406 l 993 406 l 993 279 l 1292 279 l 1292 212 m 1135 839 l 1135 960 l 993 960 l 993 839 l 1135 839 m 1135 647 l 1135 772 l 993 772 l 993 647 l 1135 647 m 1300 14 l 1282 -54 q 779 -21 927 -59 q 546 117 630 16 q 396 -72 484 14 l 349 -22 q 501 176 446 75 q 383 425 429 294 l 441 454 q 533 253 484 338 q 587 575 576 378 l 410 575 l 410 642 q 571 960 488 772 l 411 960 l 411 1025 l 648 1025 l 648 960 q 490 643 555 762 l 659 643 q 581 179 654 382 q 796 40 667 71 q 1300 14 924 9 z "},"側":{"ha":1389,"x_min":78,"x_max":1260,"o":"m 386 1137 q 340 984 374 1088 q 306 876 306 879 l 306 -66 l 236 -66 l 236 708 q 122 507 173 578 l 78 572 q 322 1158 223 795 l 386 1137 m 1260 49 q 1221 -45 1260 -22 q 1080 -69 1182 -69 q 991 -66 1042 -69 l 962 4 q 1109 1 1061 1 q 1173 17 1156 1 q 1189 57 1189 33 l 1189 1143 l 1260 1143 l 1260 49 m 829 269 l 571 269 l 619 240 q 415 -64 515 36 l 358 -18 q 551 269 463 90 l 447 269 l 447 1100 l 829 1100 l 829 269 m 758 851 l 758 1028 l 519 1028 l 519 851 l 758 851 m 758 597 l 758 783 l 519 783 l 519 597 l 758 597 m 758 339 l 758 526 l 519 526 l 519 339 l 758 339 m 1038 186 l 966 186 l 966 1054 l 1038 1054 l 1038 186 m 903 -5 l 836 -45 q 682 174 789 57 l 739 214 q 903 -5 853 85 z "},"元":{"ha":1389,"x_min":93,"x_max":1300,"o":"m 1177 1040 l 222 1040 l 222 1114 l 1177 1114 l 1177 1040 m 1300 293 q 1277 99 1298 199 q 1212 -28 1256 -1 q 1031 -55 1168 -55 q 895 -51 938 -55 q 828 -18 852 -46 q 803 53 803 9 l 803 632 l 547 632 q 451 199 536 362 q 143 -79 366 36 l 93 -16 q 356 190 249 54 q 469 632 463 326 l 118 632 l 118 707 l 1284 707 l 1284 632 l 879 632 l 879 60 q 905 25 879 35 q 1000 16 930 16 q 1151 22 1134 16 q 1184 45 1168 29 q 1213 149 1200 62 q 1226 321 1226 235 l 1300 293 z "},"光":{"ha":1389,"x_min":87,"x_max":1297,"o":"m 1297 260 q 1246 -2 1291 46 q 1133 -50 1202 -50 l 909 -50 q 828 -16 857 -50 q 799 72 799 18 l 799 547 l 561 547 q 466 180 556 335 q 142 -79 376 25 l 87 -14 q 484 547 491 134 l 106 547 l 106 623 l 654 623 l 654 1146 l 729 1146 l 729 623 l 1284 623 l 1284 547 l 873 547 l 873 72 q 887 37 873 52 q 921 22 901 22 l 1129 22 q 1203 80 1183 22 q 1222 282 1222 137 l 1297 260 m 1165 1039 q 971 704 1067 829 l 908 746 q 1095 1069 1026 899 l 1165 1039 m 473 742 l 410 700 q 220 1015 342 855 l 281 1060 q 473 742 428 852 z "},"兌":{"ha":1389,"x_min":86,"x_max":1303,"o":"m 1301 872 l 1254 817 q 815 1088 1099 950 l 861 1147 q 1301 872 1138 1008 m 564 1095 q 132 804 333 888 l 86 865 q 509 1145 302 964 l 564 1095 m 1303 241 q 1239 -17 1286 14 q 1126 -49 1191 -49 l 871 -49 q 813 -20 839 -49 q 787 45 787 9 l 787 418 l 575 418 q 142 -86 533 45 l 92 -21 q 377 139 264 20 q 500 418 490 258 l 253 418 l 253 814 l 1141 814 l 1141 418 l 864 418 l 864 66 q 876 37 864 51 q 899 24 888 24 l 1140 24 q 1203 59 1185 24 q 1227 264 1221 95 l 1303 241 m 1068 490 l 1068 742 l 328 742 l 328 490 l 1068 490 z "},"兔":{"ha":1389,"x_min":83,"x_max":1308,"o":"m 1308 199 q 1249 -19 1293 14 q 1162 -53 1206 -53 l 871 -53 q 791 -24 827 -53 q 754 57 754 5 l 754 403 l 685 403 q 489 127 635 254 q 150 -74 343 0 l 96 -12 q 606 403 491 133 l 233 403 l 233 753 l 136 692 l 83 749 q 525 1146 353 897 l 593 1114 q 528 1025 565 1067 l 977 1025 l 977 965 q 808 783 925 902 l 1187 783 l 1187 403 l 825 403 l 825 66 q 841 34 825 46 q 879 21 857 21 l 1165 21 q 1213 55 1195 21 q 1238 227 1231 90 l 1308 199 m 868 953 l 467 953 q 275 783 388 868 l 708 783 q 868 953 798 873 m 1117 475 l 1117 713 l 743 713 q 710 475 734 570 l 1117 475 m 669 713 l 307 713 l 307 475 l 631 475 q 669 713 660 573 m 1116 165 l 1057 122 q 897 310 991 222 l 956 347 q 1116 165 1073 235 z "},"內":{"ha":1389,"x_min":164,"x_max":1231,"o":"m 1231 52 q 1204 -24 1231 3 q 1134 -56 1177 -52 q 1023 -59 1092 -59 q 932 -57 975 -59 l 901 20 q 1105 9 1010 9 q 1140 24 1124 9 q 1156 62 1156 39 l 1156 817 l 757 817 q 1114 240 790 523 l 1061 189 q 708 703 771 452 q 350 195 606 431 l 298 248 q 671 817 557 460 l 239 817 l 239 -71 l 164 -71 l 164 892 l 676 892 q 664 1072 669 956 l 533 1072 l 533 1145 l 736 1145 q 734 1077 734 1112 q 746 892 734 996 l 1231 892 l 1231 52 z "},"八":{"ha":1389,"x_min":87,"x_max":1304,"o":"m 503 1105 q 404 317 496 572 q 143 -68 311 62 l 87 -9 q 331 336 243 111 q 429 1124 419 561 l 503 1105 m 1304 -8 l 1247 -72 q 990 360 1076 111 q 892 1039 903 610 l 721 1039 l 721 1112 l 964 1112 q 1304 -8 974 303 z "},"公":{"ha":1389,"x_min":81,"x_max":1312,"o":"m 578 1118 q 136 510 455 739 l 81 566 q 505 1143 387 773 l 578 1118 m 1312 576 l 1265 515 q 867 1051 1016 678 l 774 1051 l 774 1126 l 924 1126 q 1312 576 1046 750 m 1208 -46 l 1143 -83 q 1057 93 1100 24 q 275 -43 664 -9 l 254 28 q 660 742 467 277 l 730 711 q 363 40 555 294 q 1021 158 631 59 q 851 415 958 269 l 916 453 q 1208 -46 1108 188 z "},"其":{"ha":1389,"x_min":94,"x_max":1308,"o":"m 1307 243 l 98 243 l 98 313 l 318 313 l 318 922 l 113 922 l 113 991 l 318 991 l 318 1136 l 393 1136 l 393 991 l 1008 991 l 1008 1136 l 1083 1136 l 1083 991 l 1282 991 l 1282 922 l 1083 922 l 1083 313 l 1307 313 l 1307 243 m 1008 777 l 1008 922 l 393 922 l 393 777 l 1008 777 m 1008 545 l 1008 711 l 393 711 l 393 545 l 1008 545 m 1008 313 l 1008 476 l 393 476 l 393 313 l 1008 313 m 571 140 q 139 -86 451 25 l 94 -22 q 515 187 388 75 l 571 140 m 1308 -25 l 1264 -86 q 831 123 1092 25 l 865 183 q 1308 -25 1156 77 z "},"冲":{"ha":1389,"x_min":93,"x_max":1271,"o":"m 1271 310 l 893 310 l 893 -74 l 822 -74 l 822 310 l 443 310 l 443 882 l 822 882 l 822 1139 l 893 1139 l 893 882 l 1271 882 l 1271 310 m 1200 380 l 1200 811 l 893 811 l 893 380 l 1200 380 m 822 380 l 822 811 l 513 811 l 513 380 l 822 380 m 376 856 l 319 814 q 118 1060 235 945 l 170 1104 q 376 856 311 968 m 376 514 q 151 12 292 255 l 93 49 q 317 551 223 274 l 376 514 z "},"冷":{"ha":1389,"x_min":89,"x_max":1308,"o":"m 1308 689 l 1270 623 q 829 1048 969 835 q 383 623 622 762 l 339 684 q 803 1150 614 840 l 884 1139 q 865 1105 874 1118 q 1308 689 994 902 m 374 873 l 319 823 q 97 1019 175 968 l 150 1076 q 374 873 292 968 m 1048 681 l 616 681 l 616 751 l 1048 751 l 1048 681 m 1208 449 q 905 102 1065 257 q 1054 -26 1008 16 l 1002 -85 q 619 200 878 47 l 660 265 q 848 143 748 212 q 1116 449 1022 323 l 467 449 l 467 521 l 1208 521 l 1208 449 m 376 379 q 144 -50 275 138 l 89 -1 q 319 428 206 163 l 376 379 z "},"凰":{"ha":1389,"x_min":97,"x_max":1304,"o":"m 1304 192 q 1263 -6 1291 59 q 1182 -71 1234 -71 q 1057 329 1057 -71 l 1057 1043 l 278 1043 l 278 484 q 164 -74 278 155 l 97 -31 q 208 521 208 140 l 208 1111 l 1125 1111 l 1125 361 q 1140 136 1125 242 q 1162 17 1154 30 q 1181 5 1170 5 q 1238 231 1217 5 l 1304 192 m 930 478 l 410 478 l 410 888 l 602 888 q 643 1006 627 937 l 710 987 q 673 888 698 933 l 930 888 l 930 478 m 859 725 l 859 821 l 481 821 l 481 725 l 859 725 m 859 546 l 859 659 l 481 659 l 481 546 l 859 546 m 1008 -40 l 302 -40 l 302 28 l 635 28 l 635 151 l 383 151 l 383 218 l 635 218 l 635 323 l 358 323 l 358 392 l 975 392 l 975 323 l 705 323 l 705 218 l 945 218 l 945 151 l 705 151 l 705 28 l 1008 28 l 1008 -40 z "},"分":{"ha":1389,"x_min":90,"x_max":1312,"o":"m 583 1116 q 140 543 416 733 l 90 600 q 510 1137 358 779 l 583 1116 m 1312 610 l 1263 547 q 882 1059 988 743 l 778 1059 l 778 1133 l 933 1133 q 1312 610 1037 787 m 1088 628 q 1061 227 1084 405 q 1016 7 1038 50 q 954 -54 994 -36 q 816 -73 914 -73 q 705 -69 773 -73 l 689 5 q 829 -1 765 -1 q 910 7 892 -1 q 941 30 928 15 q 970 121 954 45 q 997 308 987 197 q 1010 554 1006 420 l 653 554 q 195 -89 606 145 l 150 -31 q 574 554 532 184 l 311 554 l 311 628 l 1088 628 z "},"列":{"ha":1389,"x_min":83,"x_max":1261,"o":"m 1261 40 q 1237 -36 1261 -6 q 1183 -72 1212 -65 q 1053 -79 1155 -79 q 951 -77 1002 -79 l 925 3 q 1061 -5 985 -5 q 1170 5 1152 -5 q 1187 43 1187 16 l 1187 1140 l 1261 1140 l 1261 40 m 803 1036 l 468 1036 q 397 789 438 898 l 751 789 q 554 197 723 378 q 125 -72 385 17 l 83 -9 q 538 296 385 94 q 277 534 430 416 q 135 367 210 437 l 86 421 q 389 1036 305 617 l 142 1036 l 140 1108 l 803 1108 l 803 1036 m 672 715 l 371 715 q 318 597 341 643 q 576 364 433 508 q 672 715 652 504 m 960 179 l 889 179 l 889 1044 l 960 1044 l 960 179 z "},"初":{"ha":1389,"x_min":97,"x_max":1284,"o":"m 435 983 l 372 953 q 257 1114 332 1036 l 322 1147 q 435 983 410 1051 m 1284 1083 q 1271 359 1284 671 q 1244 10 1258 47 q 1196 -50 1230 -28 q 1074 -71 1162 -71 q 964 -64 1021 -71 l 940 12 q 1069 0 1010 0 q 1159 13 1143 0 q 1183 53 1176 26 q 1202 338 1190 80 q 1214 827 1214 595 q 1213 1013 1214 919 l 968 1013 q 890 395 959 644 q 591 -72 821 146 l 529 -25 q 801 351 716 129 q 897 1013 886 572 l 652 1013 l 652 1083 l 1284 1083 m 717 664 q 562 447 655 561 q 682 346 650 378 l 636 290 q 400 479 544 382 l 400 -71 l 329 -71 l 329 436 q 146 288 239 349 l 97 343 q 526 857 407 555 l 113 857 l 113 928 l 608 928 l 608 857 q 422 546 532 686 q 507 488 461 522 q 656 699 604 604 l 717 664 z "},"制":{"ha":1389,"x_min":75,"x_max":1261,"o":"m 1261 31 q 1232 -36 1261 -9 q 1160 -62 1203 -62 l 982 -62 l 957 11 l 1157 11 q 1180 24 1169 11 q 1190 50 1190 37 l 1190 1146 l 1261 1146 l 1261 31 m 850 633 l 509 633 l 509 469 l 804 469 l 804 79 q 707 -7 804 -7 l 606 -7 l 579 65 l 703 65 q 726 77 716 65 q 736 103 736 88 l 736 400 l 509 400 l 509 -65 l 439 -65 l 439 400 l 218 400 l 218 -14 l 149 -14 l 149 469 l 439 469 l 439 633 l 85 633 l 85 703 l 439 703 l 439 890 l 214 890 q 138 764 176 815 l 75 798 q 231 1125 176 935 l 301 1112 q 245 960 277 1032 l 439 960 l 439 1146 l 509 1146 l 509 960 l 821 960 l 821 890 l 509 890 l 509 703 l 850 703 l 850 633 m 1017 175 l 945 175 l 945 1040 l 1017 1040 l 1017 175 z "},"前":{"ha":1389,"x_min":92,"x_max":1299,"o":"m 1021 1114 q 885 990 977 1055 l 811 1028 q 957 1147 886 1075 l 1021 1114 m 596 1018 l 526 989 q 387 1117 475 1051 l 464 1147 q 596 1018 543 1084 m 1299 899 l 93 899 l 93 968 l 1299 968 l 1299 899 m 1192 31 q 1173 -33 1192 -7 q 1127 -64 1154 -58 q 1020 -71 1099 -71 q 922 -68 975 -71 l 896 8 l 1086 1 q 1121 41 1121 -1 l 1121 790 l 1192 790 l 1192 31 m 668 21 q 644 -43 668 -18 q 578 -70 621 -68 q 490 -71 536 -71 q 418 -69 451 -71 l 392 5 q 566 0 446 0 q 587 11 577 0 q 596 35 596 22 l 596 236 l 281 236 q 147 -81 245 47 l 92 -31 q 224 471 224 143 l 224 778 l 668 778 l 668 21 m 596 547 l 596 707 l 296 707 l 296 547 l 596 547 m 596 304 l 596 475 l 296 475 q 288 304 296 421 l 596 304 m 917 161 l 847 161 l 847 757 l 917 757 l 917 161 z "},"副":{"ha":1389,"x_min":93,"x_max":1242,"o":"m 1242 20 q 1224 -21 1242 1 q 1189 -52 1206 -42 q 1120 -68 1172 -62 q 1010 -73 1068 -73 q 929 -69 964 -73 l 907 3 q 962 1 927 1 l 1131 4 q 1158 19 1145 4 q 1171 57 1171 35 l 1171 1141 l 1242 1141 l 1242 20 m 860 1042 l 93 1042 l 93 1111 l 860 1111 l 860 1042 m 1002 184 l 930 184 l 930 1048 l 1002 1048 l 1002 184 m 766 667 l 199 667 l 199 943 l 766 943 l 766 667 m 696 734 l 696 875 l 271 875 l 271 734 l 696 734 m 793 -68 l 720 -68 l 720 17 l 222 17 l 222 -66 l 149 -66 l 149 561 l 793 561 l 793 -68 m 720 329 l 720 492 l 503 492 l 503 329 l 720 329 m 432 329 l 432 492 l 222 492 l 222 329 l 432 329 m 720 87 l 720 261 l 503 261 l 503 87 l 720 87 m 432 87 l 432 261 l 222 261 l 222 87 l 432 87 z "},"力":{"ha":1389,"x_min":126,"x_max":1223,"o":"m 1223 886 q 1210 320 1223 552 q 1176 29 1197 89 q 1113 -52 1154 -31 q 942 -74 1072 -74 q 803 -71 885 -74 l 777 7 q 941 2 872 2 q 1072 18 1050 2 q 1105 69 1094 33 q 1133 340 1116 104 q 1150 811 1149 576 l 725 811 q 572 252 701 441 q 179 -77 443 63 l 126 -9 q 382 147 270 49 q 562 386 494 245 q 648 811 629 528 l 163 811 l 163 886 l 653 886 q 661 1145 661 1012 l 736 1145 q 728 886 736 1036 l 1223 886 z "},"加":{"ha":1389,"x_min":86,"x_max":1270,"o":"m 701 935 q 689 347 705 635 q 662 21 673 59 q 615 -44 652 -16 q 485 -71 579 -71 q 393 -68 448 -71 l 375 5 q 490 1 444 1 q 570 17 551 1 q 597 62 590 33 q 618 383 605 92 q 628 863 631 674 l 399 863 q 142 -74 396 304 l 86 -18 q 326 863 318 328 l 107 863 l 107 935 l 329 935 q 338 1143 336 1047 l 411 1143 l 404 935 l 701 935 m 1270 -71 l 1194 -71 l 1194 39 l 907 39 l 907 -71 l 831 -71 l 831 1019 l 1270 1019 l 1270 -71 m 1194 114 l 1194 946 l 907 946 l 907 114 l 1194 114 z "},"動":{"ha":1389,"x_min":89,"x_max":1243,"o":"m 764 1083 q 484 1032 661 1053 l 484 924 l 760 924 l 760 857 l 484 857 l 484 755 l 737 755 l 737 351 l 484 351 l 484 253 l 737 253 l 737 187 l 484 187 l 484 47 q 737 79 605 58 l 737 11 q 106 -65 363 -38 l 89 5 q 415 37 241 17 l 415 187 l 158 187 l 158 253 l 415 253 l 415 351 l 160 351 l 160 755 l 415 755 l 415 857 l 111 857 l 111 924 l 415 924 l 415 1022 q 158 1013 300 1013 l 135 1076 q 726 1141 450 1072 l 764 1083 m 668 590 l 668 686 l 484 686 l 484 590 l 668 590 m 415 590 l 415 686 l 231 686 l 231 590 l 415 590 m 668 418 l 668 524 l 484 524 l 484 418 l 668 418 m 415 418 l 415 524 l 231 524 l 231 418 l 415 418 m 1243 868 q 1233 310 1243 561 q 1210 17 1223 60 q 1159 -48 1196 -26 q 1022 -71 1123 -71 q 972 -69 994 -71 l 949 3 q 1083 0 1026 0 q 1131 20 1109 0 q 1154 82 1152 39 l 1167 349 q 1177 799 1177 574 l 1031 799 q 819 -79 1025 287 l 757 -49 q 962 799 954 287 l 814 798 l 814 867 l 965 868 l 970 1140 l 1039 1140 q 1032 868 1036 970 l 1243 868 z "},"勞":{"ha":1389,"x_min":115,"x_max":1268,"o":"m 1268 726 l 1227 671 q 986 823 1132 747 q 753 673 897 709 l 705 730 q 862 802 785 749 q 956 951 940 856 q 972 1140 972 1047 l 1043 1140 q 1029 972 1043 1063 q 1221 1101 1126 1014 l 1264 1046 q 1011 884 1170 959 q 1268 726 1146 821 m 668 729 l 628 671 q 407 825 524 760 q 189 667 332 712 l 142 724 q 282 795 220 751 q 368 901 345 838 q 395 1140 391 964 l 465 1140 q 456 983 467 1068 q 623 1095 563 1038 l 663 1040 q 440 897 575 959 l 436 884 q 668 729 564 815 m 884 916 l 821 879 q 730 1063 793 963 l 791 1097 q 884 916 854 1001 m 298 909 l 239 872 q 139 1053 205 963 l 199 1092 q 298 909 264 996 m 1257 428 l 1185 428 l 1185 562 l 211 562 l 211 428 l 139 428 l 139 631 l 1257 631 l 1257 428 m 1198 372 q 1176 148 1196 256 q 1133 5 1156 40 q 1072 -52 1111 -30 q 986 -74 1034 -74 q 803 -71 859 -74 l 783 -3 q 888 -5 836 -5 q 1025 4 1000 -5 q 1067 35 1049 13 q 1102 135 1084 56 q 1124 302 1120 214 l 684 302 q 160 -79 586 14 l 115 -14 q 607 302 495 50 l 193 302 l 193 372 l 629 372 q 654 490 648 429 l 726 484 q 704 372 722 435 l 1198 372 z "},"包":{"ha":1389,"x_min":87,"x_max":1304,"o":"m 1244 991 q 1203 298 1233 370 q 1047 227 1173 227 q 974 231 1018 227 l 953 307 q 1036 302 1004 302 q 1117 314 1098 302 q 1144 390 1135 327 q 1160 611 1154 454 q 1166 921 1166 768 l 382 921 q 144 682 263 770 l 87 734 q 440 1152 296 888 l 510 1114 q 432 991 489 1077 l 1244 991 m 1304 176 q 1209 -43 1282 -27 q 666 -60 1136 -60 q 457 -59 547 -60 q 340 -47 367 -58 q 297 -14 313 -37 q 281 49 281 8 l 281 733 l 888 733 l 888 332 l 354 332 l 354 62 q 386 18 354 24 q 704 12 418 12 q 1175 25 1128 12 q 1231 204 1222 38 l 1304 176 m 812 406 l 812 660 l 354 660 l 354 406 l 812 406 z "},"區":{"ha":1389,"x_min":96,"x_max":1300,"o":"m 1300 -39 l 328 -39 q 224 1 266 -39 q 182 109 182 41 l 182 1042 l 96 1042 l 96 1112 l 1272 1112 l 1272 1042 l 256 1042 l 256 106 q 281 54 256 77 q 329 32 306 32 l 1300 32 l 1300 -39 m 1046 628 l 481 628 l 481 929 l 1046 929 l 1046 628 m 974 697 l 974 860 l 554 860 l 554 697 l 974 697 m 720 160 l 355 160 l 355 509 l 720 509 l 720 160 m 647 228 l 647 439 l 429 439 l 429 228 l 647 228 m 1206 158 l 847 158 l 847 507 l 1206 507 l 1206 158 m 1136 227 l 1136 437 l 920 437 l 920 227 l 1136 227 z "},"十":{"ha":1389,"x_min":96,"x_max":1301,"o":"m 1301 603 l 739 603 l 739 -74 l 661 -74 l 661 603 l 96 603 l 96 677 l 661 677 l 661 1146 l 739 1146 l 739 677 l 1301 677 l 1301 603 z "},"千":{"ha":1389,"x_min":97,"x_max":1301,"o":"m 1301 534 l 736 534 l 736 -74 l 663 -74 l 663 534 l 97 534 l 97 606 l 663 606 l 663 953 q 220 926 378 930 l 182 1002 q 1156 1140 840 1010 l 1204 1079 q 736 964 1034 1008 l 736 606 l 1301 606 l 1301 534 z "},"升":{"ha":1389,"x_min":97,"x_max":1304,"o":"m 1304 562 l 983 562 l 983 -74 l 911 -74 l 911 562 l 524 562 q 153 -75 504 140 l 97 -17 q 452 562 431 176 l 97 562 l 97 633 l 453 633 l 453 957 q 171 888 296 911 l 131 954 q 697 1143 458 1003 l 743 1086 q 525 986 631 1023 l 525 633 l 911 633 l 911 1147 l 983 1147 l 983 633 l 1304 633 l 1304 562 z "},"卦":{"ha":1389,"x_min":83,"x_max":1301,"o":"m 1301 471 l 1258 408 q 989 668 1141 552 l 989 -64 l 918 -64 l 918 1147 l 989 1147 l 989 760 q 1301 471 1185 607 m 838 644 l 103 644 l 103 713 l 424 713 l 424 892 l 136 892 l 136 961 l 424 961 l 424 1147 l 493 1147 l 493 961 l 787 961 l 787 892 l 493 892 l 493 713 l 838 713 l 838 644 m 828 94 q 94 -8 425 22 l 83 64 q 425 100 275 77 l 425 351 l 122 351 l 122 419 l 424 419 l 424 576 l 494 576 l 494 419 l 806 419 l 806 351 l 496 351 l 496 110 q 828 167 655 135 l 828 94 z "},"印":{"ha":1389,"x_min":93,"x_max":1255,"o":"m 693 187 q 113 -4 393 68 l 93 69 q 187 96 151 83 l 187 1021 q 637 1149 421 1065 l 693 1090 q 262 965 532 1023 l 262 661 l 631 661 l 631 589 l 262 589 l 262 118 q 693 267 458 168 l 693 187 m 1255 191 q 1229 133 1255 163 q 1086 102 1202 102 q 977 107 1040 102 l 945 183 q 1079 176 1008 176 q 1170 183 1157 176 q 1183 208 1183 191 l 1183 1017 l 827 1017 l 827 -68 l 753 -68 l 753 1090 l 1255 1090 l 1255 191 z "},"卻":{"ha":1389,"x_min":86,"x_max":1271,"o":"m 808 884 l 758 827 q 504 1103 662 970 l 553 1150 q 808 884 699 1040 m 435 1104 q 161 819 286 909 l 107 875 q 371 1143 237 965 l 435 1104 m 1271 180 q 1232 100 1271 123 q 1036 81 1192 76 l 1006 151 l 1154 151 q 1187 165 1173 151 q 1202 199 1202 180 l 1202 1035 l 928 1035 l 928 -68 l 859 -68 l 859 1105 l 1271 1105 l 1271 180 m 822 476 l 770 427 q 467 745 642 604 q 267 494 366 591 l 693 494 l 693 -52 l 623 -52 l 623 28 l 311 28 l 311 -66 l 240 -66 l 240 469 q 140 383 207 435 l 86 433 q 458 884 323 618 l 529 863 q 501 806 520 832 q 822 476 682 669 m 623 100 l 623 422 l 311 422 l 311 100 l 623 100 z "},"厘":{"ha":1389,"x_min":92,"x_max":1303,"o":"m 1284 1038 l 281 1038 l 281 570 q 154 -65 281 176 l 92 -21 q 208 639 208 210 l 208 1107 l 1284 1107 l 1284 1038 m 1303 -36 l 289 -36 l 289 32 l 757 32 l 757 192 l 351 192 l 351 261 l 757 261 l 757 406 l 403 406 l 403 921 l 1189 921 l 1189 406 l 829 406 l 829 261 l 1243 261 l 1243 192 l 829 192 l 829 32 l 1303 32 l 1303 -36 m 1118 700 l 1118 851 l 829 851 l 829 700 l 1118 700 m 757 700 l 757 851 l 473 851 l 473 700 l 757 700 m 1117 478 l 1117 632 l 829 632 l 829 478 l 1117 478 m 757 478 l 757 632 l 473 632 l 473 478 l 757 478 z "},"原":{"ha":1389,"x_min":89,"x_max":1303,"o":"m 1303 1044 l 817 1044 q 755 879 789 949 l 1197 879 l 1197 387 l 860 387 l 860 39 q 828 -35 860 -3 q 684 -67 795 -67 q 614 -64 648 -67 l 586 8 l 745 11 q 776 27 764 11 q 789 64 789 43 l 789 387 l 447 387 l 447 879 l 673 879 q 741 1044 715 948 l 275 1044 l 275 553 q 155 -74 275 173 l 89 -35 q 173 227 144 63 q 203 549 203 391 l 203 1114 l 1303 1114 l 1303 1044 m 1125 672 l 1125 810 l 518 810 l 518 672 l 1125 672 m 1125 458 l 1125 604 l 518 604 l 518 458 l 1125 458 m 1301 37 l 1243 -12 q 999 260 1147 138 l 1059 314 q 1301 37 1206 174 m 642 277 q 387 -7 549 136 l 328 49 q 576 313 502 191 l 642 277 z "},"厥":{"ha":1389,"x_min":93,"x_max":1312,"o":"m 1300 1038 l 249 1038 l 249 436 q 155 -71 249 123 l 93 -36 q 156 187 132 50 q 180 629 180 324 l 180 1107 l 1300 1107 l 1300 1038 m 510 851 l 456 817 q 351 957 413 891 l 407 993 q 510 851 471 927 m 761 962 q 664 821 721 881 l 606 852 q 701 990 671 924 l 761 962 m 1261 814 q 1192 503 1239 642 l 1129 519 q 1182 745 1164 637 l 960 745 q 863 514 919 613 l 811 554 q 946 972 913 755 l 1010 964 q 981 814 1001 890 l 1261 814 m 810 722 l 585 722 l 585 380 l 690 380 l 690 639 l 757 639 l 757 264 l 690 264 l 690 315 l 583 315 q 370 -71 588 85 l 313 -22 q 514 315 522 115 l 342 315 l 342 639 l 408 639 l 408 380 l 517 380 l 517 722 l 300 722 l 300 790 l 810 790 l 810 722 m 1312 -28 l 1263 -78 q 1014 304 1076 68 q 736 -77 954 75 l 685 -28 q 913 227 842 80 q 985 632 985 374 l 1053 632 q 1047 519 1047 574 q 1312 -28 1047 176 z "},"厭":{"ha":1389,"x_min":86,"x_max":1311,"o":"m 1307 1047 l 250 1047 l 250 521 q 142 -75 250 193 l 86 -31 q 183 623 183 231 l 183 1112 l 1307 1112 l 1307 1047 m 1311 -18 l 1272 -78 q 1026 447 1105 127 q 831 -79 970 127 l 779 -28 q 982 618 945 206 l 814 618 l 814 685 l 986 685 q 999 978 993 748 l 1064 975 q 1054 685 1064 852 l 1293 685 l 1293 618 l 1059 618 q 1311 -18 1124 216 m 754 595 l 340 595 l 340 960 l 754 960 l 754 595 m 686 812 l 686 897 l 406 897 l 406 812 l 686 812 m 686 657 l 686 751 l 406 751 l 406 657 l 686 657 m 1272 778 l 1213 741 q 1126 916 1184 817 l 1181 950 q 1272 778 1245 848 m 753 41 q 729 -43 753 -16 q 637 -71 705 -71 q 579 -69 616 -71 l 553 3 q 625 -3 585 -3 q 675 8 663 -3 q 686 43 686 19 l 686 189 q 414 74 536 117 l 387 121 q 300 -74 352 -13 l 249 -29 q 338 319 338 87 l 338 504 l 753 504 l 753 41 m 686 268 l 686 437 l 406 437 l 406 393 q 629 325 540 366 l 604 262 q 403 326 511 305 q 390 136 401 212 q 686 268 584 208 z "},"厲":{"ha":1389,"x_min":97,"x_max":1299,"o":"m 1299 1046 l 252 1046 l 252 629 q 160 -78 252 174 l 97 -36 q 166 240 151 112 q 182 632 182 368 l 182 1107 l 1299 1107 l 1299 1046 m 1271 859 l 1004 859 l 1004 794 l 932 794 l 932 859 l 819 859 l 819 920 l 932 920 l 932 994 l 1004 994 l 1004 920 l 1271 920 l 1271 859 m 762 859 l 644 859 l 644 794 l 575 794 l 575 859 l 322 859 l 322 920 l 575 920 l 575 994 l 644 994 l 644 920 l 762 920 l 762 859 m 1231 25 q 1122 -71 1231 -71 l 1004 -71 l 979 -3 l 1126 -3 q 1152 9 1140 -3 q 1164 35 1164 21 l 1164 252 l 827 252 l 827 140 q 960 161 893 146 q 929 205 939 194 l 986 237 q 1078 71 1050 149 l 1019 40 q 993 100 996 95 q 521 40 748 52 l 498 107 q 755 132 649 112 l 755 252 l 446 252 l 446 -72 l 378 -72 l 378 252 l 292 252 l 292 313 l 378 313 l 378 372 l 446 372 l 446 313 l 755 313 l 755 410 l 412 410 l 412 761 l 1169 761 l 1169 410 l 827 410 l 827 313 l 1231 313 l 1231 25 m 1097 618 l 1097 699 l 827 699 l 827 618 l 1097 618 m 755 618 l 755 699 l 484 699 l 484 618 l 755 618 m 1097 473 l 1097 558 l 827 558 l 827 473 l 1097 473 m 755 473 l 755 558 l 484 558 l 484 473 l 755 473 z "},"參":{"ha":1389,"x_min":86,"x_max":1317,"o":"m 1082 943 l 1022 901 q 970 960 993 945 q 380 900 739 924 l 364 961 q 618 1149 501 1030 l 703 1132 q 517 975 618 1039 q 924 1014 744 989 q 857 1078 892 1053 l 909 1122 q 1082 943 1002 1049 m 1317 435 l 1286 367 q 697 589 940 411 q 135 372 439 429 l 86 439 q 704 679 450 495 l 762 661 l 749 701 q 920 903 854 783 l 985 879 q 869 718 947 805 q 1152 751 1042 733 q 1089 828 1129 790 l 1146 868 q 1293 665 1227 781 l 1232 625 q 1193 694 1221 649 q 774 644 939 659 q 758 632 764 635 q 1317 435 984 479 m 653 696 l 596 652 q 571 686 584 673 q 138 615 427 653 l 118 675 q 317 885 229 758 l 392 869 q 245 696 334 775 q 528 739 360 709 q 471 800 505 774 l 525 844 q 653 696 582 798 m 790 454 q 288 249 581 302 l 244 313 q 722 494 534 361 l 790 454 m 972 351 q 293 87 692 143 l 250 155 q 907 392 651 195 l 972 351 m 1165 257 q 286 -77 858 -35 l 240 -5 q 1100 292 781 16 l 1165 257 z "},"叉":{"ha":1389,"x_min":89,"x_max":1303,"o":"m 1303 -9 l 1264 -81 q 704 215 930 18 q 140 -68 482 43 l 89 0 q 644 265 413 90 q 297 953 387 552 l 368 975 q 704 315 452 582 q 1089 1036 1005 589 l 210 1036 l 210 1114 l 1179 1114 q 764 265 1105 586 q 1303 -9 996 73 m 852 663 l 793 615 q 566 885 728 730 l 623 933 q 852 663 760 812 z "},"反":{"ha":1389,"x_min":92,"x_max":1318,"o":"m 1318 -14 l 1275 -83 q 821 117 993 1 q 359 -78 643 -1 l 317 -11 q 758 163 595 58 q 416 685 574 309 l 325 685 q 281 213 327 387 q 153 -72 236 39 l 92 -28 q 253 568 253 180 l 253 1111 l 1276 1111 l 1276 1036 l 325 1036 l 325 758 l 1208 758 l 1208 685 q 1070 381 1159 526 q 884 164 981 236 q 1318 -14 1050 56 m 1126 685 l 497 685 q 821 208 633 340 q 1126 685 1010 354 z "},"口":{"ha":1389,"x_min":222,"x_max":1178,"o":"m 1178 -33 l 1103 -33 l 1103 72 l 300 72 l 300 -33 l 222 -33 l 222 1059 l 1178 1059 l 1178 -33 m 1103 147 l 1103 983 l 300 983 l 300 147 l 1103 147 z "},"右":{"ha":1389,"x_min":78,"x_max":1304,"o":"m 1304 859 l 665 859 q 509 572 582 672 l 1182 572 l 1182 -74 l 1104 -74 l 1104 36 l 511 36 l 511 -74 l 432 -74 l 432 472 q 135 215 277 313 l 78 275 q 383 535 247 378 q 578 859 519 692 l 103 859 l 103 932 l 608 932 q 679 1152 646 1024 l 751 1136 q 693 932 731 1038 l 1304 932 l 1304 859 m 1104 114 l 1104 498 l 511 498 l 511 114 l 1104 114 z "},"合":{"ha":1389,"x_min":89,"x_max":1310,"o":"m 1310 743 l 1263 682 q 697 1053 913 828 q 135 681 509 863 l 89 743 q 696 1158 469 905 l 766 1131 q 746 1100 761 1115 q 1310 743 964 881 m 1059 671 l 339 671 l 339 745 l 1059 745 l 1059 671 m 1135 -74 l 1061 -74 l 1061 18 l 335 18 l 335 -74 l 260 -74 l 260 478 l 1135 478 l 1135 -74 m 1061 92 l 1061 404 l 335 404 l 335 92 l 1061 92 z "},"后":{"ha":1389,"x_min":87,"x_max":1304,"o":"m 1304 722 l 282 722 l 282 599 q 143 -57 282 151 l 87 0 q 208 586 208 198 l 208 1031 q 1202 1139 717 1031 l 1235 1071 q 282 962 875 981 l 282 793 l 1304 793 l 1304 722 m 1179 -71 l 1104 -71 l 1104 24 l 554 24 l 554 -71 l 482 -71 l 482 528 l 1179 528 l 1179 -71 m 1104 98 l 1104 454 l 554 454 l 554 98 l 1104 98 z "},"周":{"ha":1389,"x_min":83,"x_max":1227,"o":"m 1227 32 q 1207 -33 1227 -7 q 1154 -66 1187 -58 q 949 -74 1122 -74 l 929 3 q 1124 1 946 1 q 1146 13 1137 1 q 1156 37 1156 24 l 1156 567 l 272 567 q 143 -78 269 157 l 83 -35 q 201 631 201 180 l 201 1109 l 1227 1109 l 1227 32 m 1156 872 l 1156 1038 l 749 1038 l 749 872 l 1156 872 m 675 872 l 675 1038 l 275 1038 l 275 872 l 675 872 m 1156 635 l 1156 803 l 749 803 l 749 635 l 1156 635 m 675 635 l 675 803 l 275 803 l 275 635 l 675 635 m 1003 115 l 421 115 l 421 449 l 1003 449 l 1003 115 m 933 184 l 933 378 l 492 378 l 492 184 l 933 184 z "},"命":{"ha":1389,"x_min":87,"x_max":1314,"o":"m 1314 762 l 1278 693 q 1011 818 1134 747 l 1011 749 l 383 749 l 383 817 q 122 700 211 730 l 87 761 q 701 1156 488 920 l 772 1124 q 750 1096 765 1111 q 1314 762 959 889 m 1006 819 q 701 1046 827 920 q 389 819 565 916 l 1006 819 m 602 17 l 530 17 l 530 109 l 279 109 l 279 -17 l 208 -17 l 208 611 l 602 611 l 602 17 m 530 178 l 530 542 l 279 542 l 279 178 l 530 178 m 1192 138 q 1159 63 1192 96 q 953 36 1126 30 l 928 110 q 1029 106 980 106 q 1106 117 1090 106 q 1121 150 1121 128 l 1121 542 l 842 542 l 842 -69 l 770 -69 l 770 610 l 1192 610 l 1192 138 z "},"和":{"ha":1389,"x_min":81,"x_max":1264,"o":"m 753 407 l 707 350 q 490 549 594 468 l 490 -77 l 418 -77 l 418 578 q 135 189 290 340 l 81 239 q 414 721 252 404 l 100 721 l 100 793 l 418 793 l 418 993 q 165 966 272 970 l 144 1039 q 700 1143 467 1057 l 737 1075 q 490 1008 651 1037 l 490 793 l 742 793 l 742 721 l 490 721 l 490 639 q 753 407 669 503 m 1264 -77 l 1189 -77 l 1189 54 l 876 54 l 876 -77 l 803 -77 l 803 983 l 1264 983 l 1264 -77 m 1189 127 l 1189 909 l 876 909 l 876 127 l 1189 127 z "},"咽":{"ha":1389,"x_min":140,"x_max":1264,"o":"m 1264 -71 l 1193 -71 l 1193 24 l 636 24 l 636 -69 l 567 -69 l 567 1104 l 1264 1104 l 1264 -71 m 1193 94 l 1193 1035 l 636 1035 l 636 94 l 1193 94 m 1146 193 l 1083 154 q 913 501 1033 302 q 739 150 861 296 l 679 189 q 869 697 854 395 l 696 697 l 696 768 l 875 768 q 879 970 881 897 l 950 970 q 945 768 950 854 l 1136 768 l 1136 697 l 942 697 q 930 600 936 631 q 1146 193 1075 374 m 449 121 l 379 121 l 379 200 l 214 200 l 214 86 l 140 86 l 140 1044 l 449 1044 l 449 121 m 379 271 l 379 972 l 214 972 l 214 271 l 379 271 z "},"哀":{"ha":1389,"x_min":96,"x_max":1312,"o":"m 1312 928 l 103 928 l 103 999 l 665 999 q 608 1116 647 1051 l 673 1139 q 746 999 718 1067 l 1312 999 l 1312 928 m 1129 469 l 703 469 q 486 296 610 367 l 486 11 q 793 97 647 49 l 804 31 q 418 -85 558 -47 l 385 -14 q 414 33 414 8 l 414 257 q 135 146 290 193 l 96 210 q 383 316 272 262 q 603 469 494 370 l 285 469 l 285 817 l 1129 817 l 1129 469 m 1055 541 l 1055 745 l 357 745 l 357 541 l 1055 541 m 1312 -12 l 1276 -81 q 721 389 826 31 l 790 407 q 926 179 844 260 q 1179 376 1038 247 l 1231 326 q 985 131 1112 212 q 1312 -12 1130 28 z "},"商":{"ha":1389,"x_min":97,"x_max":1300,"o":"m 1300 974 l 928 974 l 982 929 q 905 761 954 851 l 1215 761 l 1215 32 q 1185 -42 1215 -12 q 1057 -72 1156 -72 q 997 -69 1030 -72 l 972 3 l 1112 5 q 1145 39 1145 5 l 1145 694 l 865 694 l 865 572 q 903 538 865 538 l 1082 538 l 1082 472 l 876 472 q 820 494 847 472 q 793 543 793 516 l 793 694 l 606 694 q 528 514 599 591 q 345 410 457 437 l 310 476 q 532 694 518 526 l 256 694 l 256 -71 l 183 -71 l 183 761 l 485 761 q 410 930 450 861 l 454 974 l 97 974 l 97 1042 l 663 1042 q 616 1139 646 1087 l 690 1160 q 739 1042 723 1101 l 1300 1042 l 1300 974 m 916 974 l 476 974 q 562 761 532 846 l 829 761 q 916 974 877 857 m 979 89 l 422 89 l 422 379 l 979 379 l 979 89 m 904 157 l 904 313 l 494 313 l 494 157 l 904 157 z "},"啞":{"ha":1389,"x_min":139,"x_max":1300,"o":"m 1300 -39 l 475 -39 l 475 29 l 747 29 l 747 309 l 557 309 l 557 774 l 747 774 l 747 1042 l 511 1042 l 511 1109 l 1270 1109 l 1270 1042 l 1029 1042 l 1029 774 l 1217 774 l 1217 309 l 1029 309 l 1029 29 l 1300 29 l 1300 -39 m 1143 378 l 1143 703 l 957 703 l 957 1042 l 821 1042 l 821 703 l 631 703 l 631 378 l 821 378 l 821 29 l 957 29 l 957 378 l 1143 378 m 443 104 l 371 104 l 371 191 l 212 191 l 212 81 l 139 81 l 139 1028 l 443 1028 l 443 104 m 371 258 l 371 957 l 212 957 l 212 258 l 371 258 z "},"喉":{"ha":1389,"x_min":131,"x_max":1320,"o":"m 710 1126 q 659 944 689 1042 l 628 852 l 628 -69 l 558 -69 l 558 697 q 497 595 526 638 l 452 657 q 639 1150 581 870 l 710 1126 m 1293 298 l 1023 298 q 923 82 1006 187 q 730 -77 840 -23 l 689 -18 q 949 298 913 104 l 707 298 l 707 368 l 961 368 q 968 550 970 486 l 831 550 q 755 421 791 475 l 696 465 q 842 789 781 589 l 704 789 l 704 859 l 1072 859 l 1089 1042 l 785 1042 l 785 1111 l 1166 1111 l 1145 859 l 1291 859 l 1291 789 l 851 789 l 908 754 q 859 621 901 725 l 1246 621 l 1246 550 l 1039 550 q 1031 368 1036 466 l 1293 368 l 1293 298 m 416 66 l 349 66 l 349 150 l 200 150 l 200 22 l 131 22 l 131 1048 l 416 1048 l 416 66 m 349 216 l 349 981 l 200 981 l 200 216 l 349 216 m 1320 -24 l 1268 -78 q 1035 164 1172 51 l 1083 216 q 1320 -24 1240 81 z "},"喘":{"ha":1389,"x_min":131,"x_max":1304,"o":"m 1231 823 l 561 823 l 561 1088 l 632 1088 l 632 890 l 863 890 l 863 1137 l 930 1137 l 930 890 l 1161 890 l 1161 1088 l 1231 1088 l 1231 823 m 433 103 l 359 103 l 359 178 l 203 178 l 203 31 l 131 31 l 131 1046 l 433 1046 l 433 103 m 359 250 l 359 972 l 203 972 l 203 250 l 359 250 m 1304 624 l 939 624 q 876 454 911 524 l 1239 454 l 1239 5 q 1214 -48 1239 -24 q 1157 -72 1190 -72 l 1088 -74 l 1065 -1 q 1111 -4 1090 -4 q 1171 37 1171 -4 l 1171 387 l 1035 387 l 1035 -43 l 964 -43 l 964 387 l 821 387 l 821 -43 l 750 -43 l 750 387 l 607 387 l 607 -78 l 539 -78 l 539 454 l 800 454 q 863 624 839 534 l 498 624 l 498 693 l 1304 693 l 1304 624 z "},"囊":{"ha":1389,"x_min":93,"x_max":1311,"o":"m 1276 566 l 1208 566 l 1208 682 l 200 682 l 200 566 l 131 566 l 131 733 l 668 733 l 668 789 l 253 789 l 253 947 l 668 947 l 668 1014 l 129 1014 l 129 1067 l 668 1067 l 668 1140 l 736 1140 l 736 1067 l 1274 1067 l 1274 1014 l 736 1014 l 736 947 l 1150 947 l 1150 789 l 736 789 l 736 733 l 1276 733 l 1276 566 m 1082 840 l 1082 897 l 736 897 l 736 840 l 1082 840 m 668 840 l 668 897 l 321 897 l 321 840 l 668 840 m 1307 140 l 575 140 q 485 89 550 123 l 485 -8 q 749 37 603 5 l 753 -18 q 424 -71 593 -47 l 400 -16 q 419 24 419 0 l 419 61 q 131 -12 262 9 l 93 46 q 440 140 282 73 l 102 140 l 102 191 l 449 191 l 449 250 l 182 250 l 182 298 l 449 298 l 449 359 l 127 359 l 127 410 l 449 410 l 449 467 l 258 467 l 258 623 l 659 623 l 659 467 l 515 467 l 515 410 l 889 410 l 889 467 l 751 467 l 751 623 l 1143 623 l 1143 467 l 956 467 l 956 410 l 1276 410 l 1276 359 l 956 359 l 956 298 l 1222 298 l 1222 250 l 956 250 l 956 191 l 1307 191 l 1307 140 m 1082 514 l 1082 574 l 814 574 l 814 514 l 1082 514 m 597 514 l 597 574 l 318 574 l 318 514 l 597 514 m 889 298 l 889 359 l 515 359 l 515 298 l 889 298 m 889 191 l 889 250 l 515 250 l 515 191 l 889 191 m 1311 -11 l 1284 -77 q 772 87 952 -68 l 825 125 q 985 37 898 69 q 1124 123 1048 68 l 1168 79 q 1068 14 1124 46 q 1311 -11 1163 -14 z "},"四":{"ha":1389,"x_min":168,"x_max":1234,"o":"m 1234 -68 l 1158 -68 l 1158 25 l 240 25 l 240 -71 l 168 -71 l 168 1108 l 1234 1108 l 1234 -68 m 1158 98 l 1158 1036 l 889 1036 l 889 476 q 920 450 889 450 l 1103 450 l 1103 375 l 909 375 q 842 403 868 375 q 815 475 815 431 l 815 1036 l 586 1036 l 586 843 q 531 495 586 632 q 355 249 475 359 l 293 296 q 457 518 404 393 q 511 833 511 644 l 511 1036 l 240 1036 l 240 98 l 1158 98 z "},"囟":{"ha":1389,"x_min":85,"x_max":1250,"o":"m 1250 -69 l 1175 -69 l 1175 7 l 293 7 l 293 -69 l 215 -69 l 215 864 q 134 798 170 824 l 85 851 q 374 1154 235 960 l 440 1124 q 346 1002 385 1045 l 1250 1002 l 1250 -69 m 1175 81 l 1175 926 l 293 926 l 293 81 l 1175 81 m 1084 212 l 1032 163 q 747 463 869 345 q 428 164 628 331 l 375 216 q 693 513 538 340 q 410 754 534 662 l 454 807 q 742 564 589 704 q 968 876 861 703 l 1026 836 q 794 515 919 666 q 1084 212 938 374 z "},"圓":{"ha":1389,"x_min":153,"x_max":1249,"o":"m 1249 -69 l 1175 -69 l 1175 12 l 224 12 l 224 -69 l 153 -69 l 153 1109 l 1249 1109 l 1249 -69 m 1175 75 l 1175 1047 l 224 1047 l 224 75 l 1175 75 m 1002 772 l 395 772 l 395 970 l 1002 970 l 1002 772 m 929 829 l 929 914 l 464 914 l 464 829 l 929 829 m 1036 273 l 629 273 l 657 227 q 359 104 553 159 l 330 155 q 615 273 486 195 l 361 273 l 361 701 l 1036 701 l 1036 273 m 966 578 l 966 644 l 432 644 l 432 578 l 966 578 m 966 458 l 966 522 l 432 522 l 432 458 l 966 458 m 966 330 l 966 401 l 432 401 l 432 330 l 966 330 m 1080 150 l 1046 100 q 762 195 912 157 l 793 244 q 1080 150 987 198 z "},"土":{"ha":1389,"x_min":98,"x_max":1301,"o":"m 1301 -36 l 98 -36 l 98 37 l 663 37 l 663 633 l 192 633 l 192 708 l 663 708 l 663 1149 l 737 1149 l 737 708 l 1210 708 l 1210 633 l 737 633 l 737 37 l 1301 37 l 1301 -36 z "},"地":{"ha":1389,"x_min":96,"x_max":1307,"o":"m 1307 195 q 1265 6 1300 56 q 1198 -48 1231 -43 q 977 -54 1165 -54 q 675 -50 722 -54 q 607 -15 629 -45 q 585 57 585 16 l 585 623 l 461 581 l 450 652 l 585 697 l 585 986 l 653 986 l 653 720 l 872 794 l 872 1140 l 943 1140 l 943 819 l 1246 924 q 1173 338 1242 650 l 1103 358 q 1173 825 1161 610 l 943 747 l 943 205 l 872 205 l 872 722 l 653 646 l 653 53 q 662 37 653 47 q 677 24 671 27 q 760 19 684 21 q 914 16 836 16 q 1187 29 1150 16 q 1238 216 1225 42 l 1307 195 m 509 211 q 115 37 296 100 l 96 107 q 269 176 180 135 l 269 725 l 110 725 l 110 796 l 269 796 l 269 1126 l 342 1126 l 342 796 l 493 796 l 493 725 l 342 725 l 342 207 q 497 286 458 264 l 509 211 z "},"坎":{"ha":1389,"x_min":93,"x_max":1312,"o":"m 1265 949 q 1105 486 1256 739 l 1040 533 q 1181 876 1149 684 l 764 876 q 553 519 660 624 l 497 574 q 761 1153 692 781 l 835 1135 q 787 949 822 1076 l 1265 949 m 562 257 q 111 61 357 154 l 93 139 q 310 220 173 159 l 310 717 l 119 717 l 119 790 l 310 790 l 310 1145 l 386 1145 l 386 790 l 542 790 l 542 717 l 386 717 l 386 254 q 562 335 479 293 l 562 257 m 1312 -17 l 1258 -82 q 1030 104 1131 -2 q 871 407 930 211 q 460 -74 789 118 l 407 -14 q 719 255 608 97 q 847 785 831 412 l 917 785 l 905 579 q 951 386 905 522 q 1082 155 996 249 q 1312 -17 1167 62 z "},"坐":{"ha":1389,"x_min":97,"x_max":1305,"o":"m 1305 -41 l 97 -41 l 97 31 l 668 31 l 668 243 l 187 243 l 187 315 l 668 315 l 668 1141 l 736 1141 l 736 315 l 1207 315 l 1207 243 l 736 243 l 736 31 l 1305 31 l 1305 -41 m 1280 441 l 1223 395 q 1029 717 1099 637 q 851 411 956 534 l 793 463 q 1038 1039 978 666 l 1108 1026 q 1054 794 1089 906 q 1280 441 1134 705 m 616 463 l 557 411 q 380 739 464 621 q 176 395 292 535 l 118 441 q 389 1036 322 684 l 460 1022 q 407 819 445 940 q 616 463 508 685 z "},"坤":{"ha":1389,"x_min":89,"x_max":1253,"o":"m 1253 232 l 956 232 l 956 -74 l 884 -72 l 884 232 l 585 232 l 585 953 l 884 953 l 884 1141 l 956 1141 l 956 953 l 1253 953 l 1253 232 m 1183 632 l 1183 882 l 956 882 l 956 632 l 1183 632 m 884 632 l 884 882 l 656 882 l 656 632 l 884 632 m 1183 302 l 1183 562 l 956 562 l 956 302 l 1183 302 m 884 302 l 884 562 l 656 562 l 656 302 l 884 302 m 534 239 q 106 71 292 132 l 89 142 q 281 210 213 183 l 281 672 l 117 672 l 117 743 l 281 743 l 281 1124 l 353 1124 l 353 743 l 519 743 l 519 672 l 353 672 l 353 240 q 534 318 439 274 l 534 239 z "},"型":{"ha":1389,"x_min":93,"x_max":1300,"o":"m 1238 497 q 1215 432 1238 458 q 1165 400 1193 407 q 1061 393 1137 393 q 960 395 1020 393 l 929 471 q 1059 465 999 465 q 1132 468 1117 465 q 1157 490 1147 472 q 1166 530 1166 507 l 1166 1136 l 1238 1136 l 1238 497 m 832 739 l 633 739 l 633 425 l 562 425 l 562 739 l 376 739 q 178 389 361 533 l 119 437 q 306 739 292 574 l 102 739 l 102 810 l 310 810 q 317 1036 317 935 l 143 1036 l 143 1104 l 814 1104 l 814 1036 l 633 1036 l 633 810 l 832 810 l 832 739 m 562 810 l 562 1036 l 389 1036 q 380 810 389 954 l 562 810 m 997 611 l 926 611 l 926 1075 l 997 1075 l 997 611 m 1300 -40 l 93 -40 l 93 29 l 664 29 l 664 225 l 183 225 l 183 293 l 664 293 l 664 439 l 736 439 l 736 293 l 1207 293 l 1207 225 l 736 225 l 736 29 l 1300 29 l 1300 -40 z "},"垣":{"ha":1389,"x_min":77,"x_max":1296,"o":"m 505 216 q 100 33 269 91 l 77 98 q 279 182 201 145 l 279 701 l 107 701 l 107 771 l 279 771 l 279 1141 l 350 1141 l 350 771 l 493 771 l 493 701 l 350 701 l 350 216 q 505 294 400 240 l 505 216 m 1255 1036 l 521 1036 l 521 1105 l 1255 1105 l 1255 1036 m 1197 197 l 579 197 l 579 864 l 1197 864 l 1197 197 m 1125 571 l 1125 796 l 652 796 l 652 571 l 1125 571 m 1125 267 l 1125 498 l 652 498 l 652 267 l 1125 267 m 1296 -43 l 481 -43 l 481 26 l 1296 26 l 1296 -43 z "},"堂":{"ha":1389,"x_min":93,"x_max":1296,"o":"m 1255 597 l 1182 597 l 1182 838 l 214 838 l 214 603 l 140 603 l 140 908 l 661 908 l 661 1143 l 734 1143 l 734 908 l 1255 908 l 1255 597 m 1111 1083 q 956 942 1036 989 l 896 989 q 1053 1126 968 1028 l 1111 1083 m 490 975 l 429 935 q 293 1079 355 1034 l 351 1121 q 490 975 446 1048 m 1296 -35 l 93 -35 l 93 33 l 657 33 l 657 199 l 189 199 l 189 268 l 657 268 l 657 404 l 347 404 l 347 714 l 1046 714 l 1046 404 l 730 404 l 730 268 l 1206 268 l 1206 199 l 730 199 l 730 33 l 1296 33 l 1296 -35 m 974 472 l 974 643 l 419 643 l 419 472 l 974 472 z "},"墟":{"ha":1389,"x_min":93,"x_max":1301,"o":"m 1267 901 q 1202 669 1234 757 l 1139 694 q 1181 836 1166 768 l 851 836 l 851 728 l 1065 742 l 1071 679 l 851 661 l 851 591 q 886 555 851 555 l 1223 555 l 1223 492 l 861 492 q 804 518 827 492 q 782 579 782 544 l 782 657 l 612 642 l 606 707 l 782 721 l 782 836 l 572 836 l 565 437 q 526 159 562 286 q 432 -65 490 32 l 371 -24 q 498 486 498 178 l 501 901 l 781 901 l 781 1145 l 848 1145 l 848 1065 l 1217 1065 l 1217 999 l 848 999 l 848 901 l 1267 901 m 449 306 q 122 132 288 212 l 93 199 q 252 277 201 244 l 252 707 l 111 707 l 111 775 l 252 775 l 252 1132 l 323 1132 l 323 775 l 443 775 l 443 707 l 323 707 l 323 310 q 449 376 394 344 l 449 306 m 1301 -33 l 530 -33 l 530 33 l 807 33 l 807 146 l 616 146 l 616 392 l 685 392 l 685 211 l 807 211 l 807 429 l 876 429 l 876 33 l 978 33 l 978 429 l 1048 429 l 1048 211 l 1175 211 l 1175 392 l 1243 392 l 1243 146 l 1048 146 l 1048 33 l 1301 33 l 1301 -33 z "},"士":{"ha":1389,"x_min":98,"x_max":1301,"o":"m 1301 607 l 737 607 l 737 37 l 1225 37 l 1225 -37 l 175 -37 l 175 37 l 664 37 l 664 607 l 98 607 l 98 681 l 664 681 l 664 1143 l 737 1143 l 737 681 l 1301 681 l 1301 607 z "},"外":{"ha":1389,"x_min":98,"x_max":1305,"o":"m 737 958 q 605 361 732 631 q 170 -69 478 92 l 122 -8 q 505 336 399 140 q 252 637 398 507 q 155 497 219 581 l 98 550 q 367 1145 298 795 l 440 1126 q 396 958 431 1079 l 737 958 m 659 888 l 372 888 q 293 707 329 772 q 545 415 450 557 q 659 888 641 625 m 1305 414 l 1268 343 q 942 643 1137 498 l 942 -77 l 867 -77 l 867 1141 l 942 1141 l 942 739 q 1305 414 1157 578 z "},"大":{"ha":1389,"x_min":87,"x_max":1310,"o":"m 1310 -16 l 1260 -78 q 902 253 1036 65 q 703 720 768 441 q 135 -74 618 232 l 87 -11 q 324 176 210 67 q 513 407 438 286 q 628 739 587 528 l 113 739 l 113 811 l 642 811 q 665 1149 663 982 l 745 1149 q 718 811 738 967 l 1287 811 l 1287 739 l 772 739 q 978 273 847 441 q 1310 -16 1109 104 z "},"天":{"ha":1389,"x_min":87,"x_max":1310,"o":"m 1310 -18 l 1263 -81 q 895 189 1019 45 q 701 562 770 333 q 143 -82 613 170 l 87 -22 q 637 624 564 211 l 125 624 l 125 694 l 648 694 q 675 1038 667 827 l 193 1038 l 193 1109 l 1210 1109 l 1210 1038 l 747 1038 q 726 694 743 836 l 1275 694 l 1275 624 l 762 624 q 943 247 816 397 q 1310 -18 1069 98 z "},"太":{"ha":1389,"x_min":90,"x_max":1315,"o":"m 1315 -20 l 1268 -90 q 703 636 844 190 q 503 241 637 408 q 734 -16 637 120 l 676 -64 q 457 183 574 83 q 147 -78 319 33 l 90 -18 q 647 753 581 283 l 110 753 l 110 825 l 656 825 q 675 1141 671 985 l 750 1141 q 730 825 745 971 l 1287 825 l 1287 753 l 743 753 q 945 314 793 519 q 1315 -20 1098 108 z "},"失":{"ha":1389,"x_min":83,"x_max":1300,"o":"m 1300 -16 l 1253 -81 q 900 146 1051 5 q 694 446 749 286 q 126 -81 595 113 l 83 -12 q 433 185 287 57 q 623 475 580 314 l 103 475 l 103 547 l 640 547 q 663 831 654 637 l 314 831 q 170 653 229 705 l 106 701 q 367 1107 263 833 l 440 1086 q 358 903 406 1000 l 663 903 q 668 1143 670 1013 l 743 1143 q 737 903 745 1015 l 1189 903 l 1189 831 l 737 831 q 714 547 731 684 l 1276 547 l 1276 475 l 765 475 q 1300 -16 878 152 z "},"夹":{"ha":1389,"x_min":85,"x_max":1325,"o":"m 1325 -18 l 1274 -83 q 717 436 803 126 q 125 -75 636 74 l 85 -4 q 639 437 566 124 l 98 437 l 98 509 l 652 509 q 665 889 665 663 l 155 889 l 155 957 l 665 957 l 665 1146 l 741 1146 l 741 957 l 1249 957 l 1249 889 l 741 889 q 728 509 741 640 l 1307 509 l 1307 437 l 799 437 q 1325 -18 882 170 m 532 593 l 465 553 q 244 802 372 687 l 310 844 q 532 593 446 717 m 1166 794 q 926 549 1054 656 l 867 597 q 1107 840 991 700 l 1166 794 z "},"夾":{"ha":1389,"x_min":86,"x_max":1307,"o":"m 1307 -8 l 1263 -74 q 903 118 1034 11 q 701 400 772 226 q 521 123 661 255 q 126 -72 380 -8 l 86 -5 q 440 153 295 39 q 626 403 586 268 q 665 901 665 538 l 109 901 l 109 971 l 665 971 q 668 1152 668 1060 l 739 1152 q 741 1086 741 1125 q 737 971 741 1027 l 1291 971 l 1291 901 l 737 901 q 730 622 730 768 q 750 461 730 522 q 812 336 770 401 q 916 209 854 271 q 1076 92 977 146 q 1307 -8 1175 39 m 1271 336 l 1219 283 q 1023 532 1115 448 q 908 345 982 437 l 851 390 q 1039 817 993 550 l 1107 803 q 1054 603 1095 720 q 1271 336 1162 505 m 562 390 l 510 345 q 370 533 430 471 q 175 283 299 399 l 123 336 q 380 815 335 519 l 452 798 q 397 602 435 703 q 562 390 467 538 z "},"奇":{"ha":1389,"x_min":97,"x_max":1304,"o":"m 1254 956 l 725 956 q 707 914 715 928 q 1234 713 1036 810 l 1197 650 q 672 854 958 770 q 203 656 539 688 l 172 726 q 646 956 551 754 l 143 956 l 143 1026 l 668 1026 q 692 1145 686 1080 l 764 1139 q 745 1026 758 1072 l 1254 1026 l 1254 956 m 1304 538 l 1128 538 l 1128 46 q 1092 -49 1128 -26 q 944 -73 1055 -73 q 893 -71 915 -73 l 869 1 q 999 -1 941 -1 q 1040 15 1024 -1 q 1055 54 1055 31 l 1055 538 l 97 538 l 97 610 l 1304 610 l 1304 538 m 804 90 l 240 90 l 240 418 l 804 418 l 804 90 m 732 161 l 732 345 l 313 345 l 313 161 l 732 161 z "},"委":{"ha":1389,"x_min":96,"x_max":1303,"o":"m 1296 806 l 737 806 l 737 781 q 1272 562 1076 668 l 1238 498 q 737 710 1002 625 l 737 558 l 664 558 l 664 761 q 138 481 439 586 l 96 542 q 607 806 423 656 l 107 806 l 107 873 l 664 873 l 664 1008 q 221 1000 373 997 l 192 1071 q 358 1069 279 1069 q 1161 1146 822 1069 l 1193 1080 q 737 1015 985 1033 l 737 873 l 1296 873 l 1296 806 m 1303 322 l 994 322 q 807 122 906 192 q 1246 -12 1037 58 l 1211 -79 q 722 71 991 0 q 142 -69 484 -37 l 104 -1 q 607 98 380 16 q 302 168 456 140 q 439 322 379 251 l 97 322 l 97 392 l 493 392 q 602 539 554 468 l 668 507 q 585 392 633 454 l 951 392 q 999 471 982 438 l 1067 450 q 1036 392 1044 406 l 1303 392 l 1303 322 m 905 322 l 532 322 q 439 210 490 267 q 713 146 594 177 q 905 322 811 201 z "},"威":{"ha":1389,"x_min":83,"x_max":1296,"o":"m 1296 193 q 1218 -18 1254 35 q 1143 -71 1181 -71 q 982 163 1048 -71 q 732 -75 874 30 l 685 -22 q 961 257 873 120 q 914 901 928 534 l 267 901 l 267 590 q 227 163 267 309 q 142 -65 188 18 l 83 -22 q 197 595 197 208 l 197 971 l 911 971 q 911 1150 909 1058 l 982 1150 q 985 971 981 1102 l 1279 971 l 1279 901 l 987 901 q 1022 361 990 611 q 1157 775 1106 536 l 1222 749 q 1032 235 1153 433 q 1090 66 1054 127 q 1139 5 1126 5 q 1187 77 1160 5 q 1231 239 1215 149 l 1296 193 m 1215 1025 l 1162 982 q 1057 1103 1114 1048 l 1108 1147 q 1215 1025 1177 1082 m 847 711 l 338 711 l 338 777 l 847 777 l 847 711 m 861 473 l 749 473 q 660 200 718 317 q 781 123 727 162 l 739 68 q 623 144 686 105 q 325 -35 500 14 l 290 24 q 558 178 465 77 q 349 279 459 233 q 429 473 387 362 l 326 473 l 326 542 l 453 542 q 497 682 479 616 l 564 665 q 526 542 547 600 l 693 542 q 705 629 703 595 l 772 624 l 761 542 l 861 542 l 861 473 m 679 473 l 501 473 q 439 315 471 387 q 600 236 479 298 q 679 473 648 325 z "},"婦":{"ha":1389,"x_min":90,"x_max":1299,"o":"m 542 147 l 498 85 q 378 222 446 153 q 144 -74 305 73 l 92 -18 q 322 273 243 102 q 132 441 237 359 q 207 790 184 627 q 96 777 159 781 l 90 850 q 220 863 168 855 q 250 1152 245 1077 l 318 1143 q 290 871 308 1013 q 427 889 340 873 q 429 950 429 924 q 427 999 429 977 l 498 1002 q 496 901 498 947 q 530 908 511 901 l 530 840 l 494 833 q 407 293 472 452 q 542 147 465 237 m 422 819 l 282 799 q 215 467 255 612 q 350 349 272 421 q 422 819 410 514 m 1299 875 l 1189 875 l 1189 701 l 603 701 l 603 766 l 1120 766 l 1120 875 l 581 875 l 581 943 l 1120 943 l 1120 1044 l 603 1044 l 603 1116 l 1189 1116 l 1189 943 l 1299 943 l 1299 875 m 1258 429 l 1189 429 l 1189 532 l 945 532 l 945 380 l 1202 380 l 1202 100 q 1180 45 1202 68 q 1126 22 1159 22 l 1013 21 l 993 94 q 1100 92 1050 92 q 1121 101 1111 92 q 1131 123 1131 111 l 1131 311 l 945 311 l 945 -66 l 873 -66 l 873 311 l 681 311 l 681 18 l 611 18 l 611 380 l 873 380 l 873 532 l 624 532 l 624 429 l 554 429 l 554 600 l 1258 600 l 1258 429 z "},"子":{"ha":1389,"x_min":97,"x_max":1301,"o":"m 1301 501 l 742 501 l 742 37 q 710 -41 742 -10 q 627 -72 679 -72 q 447 -69 544 -72 l 419 5 q 635 1 577 1 q 658 14 648 1 q 668 39 668 26 l 668 501 l 97 501 l 97 575 l 668 575 l 668 755 q 1046 1036 877 878 l 250 1036 l 250 1111 l 1150 1111 l 1150 1036 q 742 715 951 848 l 742 575 l 1301 575 l 1301 501 z "},"孔":{"ha":1389,"x_min":92,"x_max":1305,"o":"m 1305 300 q 1290 82 1305 168 q 1230 -30 1275 -3 q 1039 -56 1184 -56 q 904 -47 939 -56 q 848 -8 870 -38 q 825 85 825 21 l 825 1143 l 897 1143 l 897 66 q 919 26 897 36 q 1050 16 940 16 q 1188 26 1157 16 q 1229 145 1219 36 q 1235 334 1238 254 l 1305 300 m 768 570 q 497 486 666 536 l 497 45 q 459 -50 497 -28 q 301 -71 421 -71 q 220 -69 252 -71 l 196 3 q 338 -1 274 -1 q 412 5 397 -1 q 427 32 427 12 l 427 464 q 109 386 256 417 l 92 457 q 427 541 304 505 l 427 743 q 636 1044 568 918 l 138 1044 l 138 1114 l 705 1114 l 705 1034 q 497 718 618 873 l 497 561 q 768 644 618 595 l 768 570 z "},"孫":{"ha":1389,"x_min":96,"x_max":1304,"o":"m 896 1111 q 553 833 763 954 l 510 889 q 835 1149 737 1025 l 896 1111 m 505 549 q 351 485 412 505 l 351 21 q 330 -46 351 -24 q 287 -70 309 -68 q 146 -71 265 -71 l 125 3 q 264 4 248 -1 q 281 29 281 9 l 281 458 q 109 406 187 425 l 96 475 q 281 533 193 503 l 281 742 q 416 1008 354 863 l 110 1008 l 110 1078 l 496 1078 l 496 1008 q 402 817 453 913 l 351 722 l 351 561 q 505 627 433 589 l 505 549 m 1303 397 l 1243 355 q 1185 463 1211 426 q 925 412 1084 437 l 925 21 q 904 -42 925 -12 q 788 -73 884 -73 q 703 -71 753 -73 l 673 3 q 823 1 690 1 q 852 29 852 1 l 852 401 q 519 368 651 375 l 509 433 q 905 671 737 545 q 576 633 606 633 l 558 700 q 972 1048 794 804 l 1038 1015 q 699 708 908 832 q 1002 749 830 723 q 1135 892 1084 823 l 1200 857 q 654 440 1015 623 q 1147 519 957 479 q 1061 627 1103 576 l 1117 665 q 1303 397 1238 538 m 1304 40 l 1244 -3 q 1032 252 1183 112 l 1089 294 q 1304 40 1235 161 m 737 240 q 482 -14 608 67 l 435 41 q 677 283 576 141 l 737 240 z "},"安":{"ha":1389,"x_min":93,"x_max":1304,"o":"m 1254 736 l 1181 736 l 1181 925 l 218 925 l 218 736 l 142 736 l 142 997 l 668 997 q 602 1118 639 1060 l 668 1150 q 746 997 706 1090 l 1254 997 l 1254 736 m 1304 539 l 975 539 q 779 200 903 337 q 1279 -17 1200 31 l 1235 -79 q 720 144 1131 -19 q 146 -77 492 -19 l 106 -5 q 633 175 412 38 q 240 310 473 239 q 422 539 347 421 l 93 539 l 93 611 l 468 611 q 610 869 537 720 l 681 843 q 555 611 631 739 l 920 611 q 954 728 943 675 l 1025 705 l 999 611 l 1304 611 l 1304 539 m 892 539 l 513 539 q 372 346 445 434 q 703 232 501 309 q 892 539 821 345 z "},"完":{"ha":1389,"x_min":93,"x_max":1305,"o":"m 1255 677 l 1179 677 l 1179 925 l 220 925 l 220 677 l 142 677 l 142 997 l 657 997 q 587 1133 603 1105 l 664 1158 q 743 997 715 1069 l 1255 997 l 1255 677 m 1082 707 l 317 707 l 317 775 l 1082 775 l 1082 707 m 1305 433 l 848 433 l 848 56 q 864 30 848 38 q 1023 21 880 21 q 1175 31 1150 21 q 1206 236 1200 41 l 1280 208 q 1237 -12 1276 28 q 1038 -52 1198 -52 q 834 -43 858 -52 q 793 -9 810 -35 q 777 56 777 17 l 777 433 l 551 433 q 142 -71 553 33 l 93 -5 q 472 433 487 81 l 94 433 l 94 504 l 1305 504 l 1305 433 z "},"宗":{"ha":1389,"x_min":82,"x_max":1304,"o":"m 1249 741 l 1175 741 l 1175 947 l 228 947 l 228 749 l 155 749 l 155 1019 l 675 1019 q 633 1132 666 1065 l 708 1147 q 754 1019 733 1092 l 1249 1019 l 1249 741 m 1083 717 l 318 717 l 318 787 l 1083 787 l 1083 717 m 1304 472 l 736 472 l 736 -69 l 661 -69 l 661 472 l 97 472 l 97 545 l 1304 545 l 1304 472 m 514 328 q 131 8 338 130 l 82 72 q 452 366 283 174 l 514 328 m 1301 60 l 1246 5 q 888 304 1105 171 l 937 359 q 1301 60 1162 217 z "},"定":{"ha":1389,"x_min":81,"x_max":1303,"o":"m 1260 717 l 1187 717 l 1187 929 l 218 929 l 218 718 l 143 718 l 143 1000 l 664 1000 q 610 1133 645 1067 l 684 1149 q 739 1000 720 1077 l 1260 1000 l 1260 717 m 1303 29 l 1286 -43 q 1080 -46 1154 -46 q 733 -23 859 -46 q 508 66 607 1 q 354 228 409 132 q 138 -71 277 75 l 81 -17 q 380 545 303 200 l 456 536 q 389 311 431 431 q 688 65 490 112 l 688 665 l 269 665 l 269 739 l 1136 739 l 1136 665 l 764 665 l 764 432 l 1211 432 l 1211 361 l 764 361 l 764 47 q 1171 27 964 27 q 1303 29 1236 27 z "},"宣":{"ha":1389,"x_min":87,"x_max":1296,"o":"m 1244 741 l 1173 741 l 1173 954 l 211 954 l 211 741 l 138 741 l 138 1025 l 671 1025 l 610 1121 l 682 1149 q 754 1025 728 1080 l 1244 1025 l 1244 741 m 1092 771 l 292 771 l 292 838 l 1092 838 l 1092 771 m 1126 151 l 257 151 l 257 652 l 1126 652 l 1126 151 m 1053 443 l 1053 583 l 334 583 l 334 443 l 1053 443 m 1053 222 l 1053 375 l 334 375 l 334 222 l 1053 222 m 1296 -36 l 87 -36 l 87 32 l 1296 32 l 1296 -36 z "},"室":{"ha":1389,"x_min":89,"x_max":1293,"o":"m 1249 771 l 1178 771 l 1178 950 l 204 950 l 204 771 l 134 771 l 134 1018 l 663 1018 q 606 1131 652 1047 l 677 1154 q 746 1018 711 1099 l 1249 1018 l 1249 771 m 1293 -35 l 89 -35 l 89 35 l 653 35 l 653 222 l 167 222 l 167 292 l 653 292 l 653 450 q 204 429 393 433 l 189 494 q 555 750 385 573 l 267 750 l 267 818 l 1117 818 l 1117 750 l 650 750 q 350 504 533 612 q 1007 554 621 509 q 854 654 948 602 l 911 703 q 1231 456 1118 578 l 1177 407 q 1089 492 1138 452 l 728 458 l 728 292 l 1210 292 l 1210 222 l 728 222 l 728 35 l 1293 35 l 1293 -35 z "},"宫":{"ha":1389,"x_min":154,"x_max":1249,"o":"m 1249 785 l 1177 785 l 1177 947 l 225 947 l 225 785 l 154 785 l 154 1015 l 685 1015 q 640 1132 672 1069 l 710 1157 q 764 1015 736 1105 l 1249 1015 l 1249 785 m 1101 505 l 309 505 l 309 823 l 1101 823 l 1101 505 m 1029 572 l 1029 753 l 380 753 l 380 572 l 1029 572 m 1182 -71 l 1111 -71 l 1111 3 l 290 3 l 290 -71 l 222 -71 l 222 382 l 1182 382 l 1182 -71 m 1111 72 l 1111 314 l 290 314 l 290 72 l 1111 72 z "},"宮":{"ha":1389,"x_min":147,"x_max":1251,"o":"m 1251 789 l 1178 789 l 1178 953 l 225 953 l 225 789 l 147 789 l 147 1025 l 684 1025 q 635 1131 658 1086 l 705 1154 q 761 1025 737 1091 l 1251 1025 l 1251 789 m 1211 -66 l 1136 -66 l 1136 4 l 257 4 l 257 -66 l 180 -66 l 180 364 l 591 364 q 648 505 628 444 l 304 505 l 304 825 l 1099 825 l 1099 505 l 725 505 q 672 364 699 425 l 1211 364 l 1211 -66 m 1023 578 l 1023 754 l 380 754 l 380 578 l 1023 578 m 1136 79 l 1136 289 l 257 289 l 257 79 l 1136 79 z "},"宵":{"ha":1389,"x_min":135,"x_max":1250,"o":"m 1250 758 l 1178 758 l 1178 964 l 229 964 l 229 758 l 154 758 l 154 1034 l 685 1034 q 643 1129 672 1081 l 714 1156 q 765 1034 743 1098 l 1250 1034 l 1250 758 m 1161 25 q 1128 -43 1161 -18 q 1051 -68 1096 -68 l 859 -68 l 838 7 q 951 1 892 1 q 1069 12 1053 1 q 1086 49 1086 23 l 1086 257 q 323 68 711 144 l 300 114 q 193 -81 254 -5 l 135 -25 q 253 217 223 78 q 281 639 283 357 l 667 639 l 667 907 l 741 907 l 741 639 l 1161 639 l 1161 25 m 1086 329 l 1086 567 l 358 567 q 354 484 360 538 q 937 397 688 456 l 916 329 q 354 411 631 397 q 311 142 350 262 q 1086 329 768 223 m 1086 861 q 951 679 1030 760 l 892 720 q 1026 900 975 813 l 1086 861 m 543 726 l 486 679 q 343 847 431 761 l 399 890 q 543 726 482 819 z "},"容":{"ha":1389,"x_min":86,"x_max":1304,"o":"m 1247 764 l 1174 764 l 1174 957 l 227 957 l 227 774 l 154 774 l 154 1025 l 686 1025 q 640 1136 667 1086 l 710 1153 q 765 1025 746 1086 l 1247 1025 l 1247 764 m 614 839 q 187 550 471 701 l 144 608 q 559 889 409 747 l 614 839 m 1257 606 l 1213 549 q 787 823 1017 700 l 831 880 q 1257 606 1056 760 m 1304 357 l 1268 293 q 1108 359 1201 316 l 1108 -79 l 1036 -79 l 1036 5 l 354 5 l 354 -71 l 283 -71 l 283 368 q 127 301 219 335 l 86 361 q 710 741 475 507 l 771 703 l 739 667 q 1304 357 939 489 m 1051 383 q 686 619 836 490 q 325 383 537 490 l 1051 383 m 1036 74 l 1036 313 l 354 313 l 354 74 l 1036 74 z "},"實":{"ha":1389,"x_min":97,"x_max":1305,"o":"m 1254 875 l 1183 875 l 1183 1006 l 220 1006 l 220 880 l 149 880 l 149 1065 l 663 1065 q 627 1125 646 1101 l 693 1149 q 742 1065 711 1123 l 1254 1065 l 1254 875 m 1305 745 l 1084 745 l 1072 604 l 297 604 l 310 745 l 97 745 l 97 798 l 317 798 l 332 932 l 1104 932 l 1090 798 l 1305 798 l 1305 745 m 1028 876 l 746 876 l 739 798 l 1021 798 l 1028 876 m 673 876 l 395 876 l 386 798 l 667 798 l 673 876 m 1013 745 l 732 745 l 725 661 l 1006 661 l 1013 745 m 660 745 l 382 745 l 374 661 l 653 661 l 660 745 m 1129 115 l 567 115 l 597 72 q 149 -75 370 -49 l 107 -11 q 543 115 337 14 l 275 115 l 275 533 l 1129 533 l 1129 115 m 1059 412 l 1059 476 l 342 476 l 342 412 l 1059 412 m 1059 292 l 1059 357 l 342 357 l 342 292 l 1059 292 m 1059 171 l 1059 236 l 342 236 l 342 171 l 1059 171 m 1287 -14 l 1260 -74 q 799 29 1080 -7 l 828 85 q 1287 -14 1110 49 z "},"封":{"ha":1389,"x_min":86,"x_max":1304,"o":"m 724 615 l 96 615 l 96 686 l 382 686 l 382 873 l 127 873 l 127 945 l 382 945 l 382 1145 l 456 1145 l 456 945 l 681 945 l 681 873 l 456 873 l 456 686 l 724 686 l 724 615 m 1304 791 l 1177 791 l 1177 60 q 1151 -22 1177 10 q 1087 -61 1125 -54 q 964 -68 1048 -68 l 879 -68 l 844 11 q 1057 8 893 8 q 1090 23 1077 8 q 1103 60 1103 39 l 1103 791 l 741 791 l 741 861 l 1103 861 l 1103 1140 l 1177 1140 l 1177 861 l 1304 861 l 1304 791 m 982 328 l 911 298 q 783 619 881 433 l 847 648 q 982 328 946 468 m 722 171 l 721 94 q 104 -49 391 -1 l 86 26 q 382 81 210 43 l 382 342 l 125 342 l 125 414 l 382 414 l 382 559 l 452 559 l 452 414 l 685 414 l 685 342 l 452 342 l 452 97 q 722 171 593 130 z "},"小":{"ha":1389,"x_min":86,"x_max":1304,"o":"m 753 29 q 730 -33 753 -6 q 679 -67 707 -59 q 576 -75 651 -75 q 479 -72 515 -75 l 450 1 q 656 7 633 -3 q 679 50 679 18 l 679 1143 l 753 1143 l 753 29 m 1304 227 l 1234 196 q 997 842 1137 530 l 1068 871 q 1304 227 1194 589 m 416 851 q 146 192 307 380 l 86 236 q 345 871 243 431 l 416 851 z "},"少":{"ha":1389,"x_min":103,"x_max":1308,"o":"m 746 350 l 671 350 l 671 1149 l 746 1149 l 746 350 m 1308 559 l 1250 513 q 921 975 1143 722 l 979 1019 q 1308 559 1200 766 m 492 990 q 158 444 363 644 l 103 488 q 419 1018 303 694 l 492 990 m 1114 542 q 907 256 1029 390 q 633 52 784 121 q 257 -79 483 -18 l 211 -8 q 745 205 578 73 q 1046 576 913 338 l 1114 542 z "},"尖":{"ha":1389,"x_min":100,"x_max":1308,"o":"m 736 619 l 663 619 l 663 1143 l 736 1143 l 736 619 m 489 1034 q 191 644 342 785 l 129 694 q 425 1069 298 846 l 489 1034 m 1254 685 l 1192 642 q 916 1015 1084 838 l 975 1060 q 1254 685 1133 894 m 1308 -3 l 1267 -78 q 699 351 804 69 q 139 -77 589 41 l 100 -1 q 628 372 521 90 l 102 372 l 102 447 l 646 447 q 667 562 663 501 l 739 562 q 724 447 737 515 l 1299 447 l 1299 372 l 768 372 q 1308 -3 865 126 z "},"尺":{"ha":1389,"x_min":89,"x_max":1314,"o":"m 1314 -7 l 1271 -79 q 723 164 935 3 q 390 602 511 325 l 359 602 q 144 -66 349 142 l 89 -14 q 285 665 285 180 l 285 1112 l 1211 1112 l 1211 602 l 471 602 q 867 160 627 291 q 1314 -7 1107 30 m 1135 676 l 1135 1039 l 364 1039 l 364 676 l 1135 676 z "},"尾":{"ha":1389,"x_min":89,"x_max":1292,"o":"m 1208 808 l 304 808 l 304 661 q 268 233 304 395 q 154 -69 231 70 l 89 -20 q 196 256 159 108 q 232 647 232 405 l 232 1116 l 1208 1116 l 1208 808 m 1137 879 l 1137 1044 l 304 1044 l 304 879 l 1137 879 m 1292 144 q 1246 -14 1286 24 q 1116 -52 1206 -52 l 822 -52 q 708 72 708 -52 l 708 184 l 322 150 l 318 220 l 708 254 l 708 392 l 380 363 l 375 431 l 708 461 l 708 596 q 393 572 581 581 l 363 643 q 1111 749 833 656 l 1152 685 q 781 608 962 630 l 781 468 l 1221 510 l 1226 440 l 781 399 l 781 261 l 1287 309 l 1291 239 l 781 193 l 781 54 q 793 31 781 42 q 817 20 806 20 l 1146 20 q 1194 41 1175 20 q 1222 168 1213 62 l 1292 144 z "},"尿":{"ha":1389,"x_min":83,"x_max":1318,"o":"m 1202 762 l 310 762 q 268 247 310 414 q 143 -36 226 81 l 83 12 q 199 284 161 121 q 236 726 236 448 l 236 1112 l 1202 1112 l 1202 762 m 1129 835 l 1129 1040 l 309 1040 l 309 835 l 1129 835 m 1318 54 l 1272 -11 q 852 389 947 144 l 852 49 q 732 -74 852 -74 q 637 -71 665 -74 l 607 5 q 707 1 646 1 q 766 12 751 1 q 781 43 781 22 l 781 692 l 852 692 l 852 575 q 909 421 871 502 q 1182 624 1082 517 l 1236 575 q 943 355 1130 459 q 1318 54 1048 170 m 694 570 q 361 -8 649 187 l 307 53 q 608 496 561 216 l 378 496 l 378 570 l 694 570 z "},"局":{"ha":1389,"x_min":89,"x_max":1254,"o":"m 1254 647 q 1244 302 1254 483 q 1225 64 1234 121 q 1183 -26 1217 7 q 1086 -64 1149 -60 q 987 -68 1023 -68 l 950 -68 l 922 7 q 1060 3 1017 3 q 1138 35 1115 3 q 1174 281 1161 66 q 1183 576 1186 496 l 309 576 q 150 -69 300 210 l 89 -18 q 240 677 240 258 l 240 1107 l 1218 1107 l 1218 790 l 313 790 l 313 647 l 1254 647 m 1146 859 l 1146 1038 l 313 1038 l 313 859 l 1146 859 m 972 123 l 457 123 l 457 457 l 972 457 l 972 123 m 901 196 l 901 386 l 530 386 l 530 196 l 901 196 z "},"居":{"ha":1389,"x_min":86,"x_max":1303,"o":"m 1246 785 l 313 785 l 313 568 q 146 -62 313 168 l 86 -18 q 240 536 240 195 l 240 1112 l 1246 1112 l 1246 785 m 1173 854 l 1173 1040 l 313 1040 l 313 854 l 1173 854 m 1303 529 l 859 529 l 859 346 l 1215 346 l 1215 -74 l 1141 -74 l 1141 0 l 501 0 l 501 -74 l 428 -74 l 428 346 l 786 346 l 786 529 l 364 529 l 364 596 l 786 596 l 786 733 l 859 733 l 859 596 l 1303 596 l 1303 529 m 1141 69 l 1141 277 l 501 277 l 501 69 l 1141 69 z "},"屋":{"ha":1389,"x_min":79,"x_max":1304,"o":"m 1304 -45 l 282 -45 l 282 24 l 749 24 l 749 174 l 374 174 l 374 241 l 749 241 l 749 367 q 397 349 551 352 l 380 411 q 643 625 532 477 l 302 625 q 139 -64 281 179 l 79 -20 q 192 290 151 106 q 232 794 232 474 l 232 1109 l 1218 1109 l 1218 819 l 306 819 l 304 693 l 1276 693 l 1276 625 l 734 625 q 532 422 678 528 q 1025 458 782 433 q 916 550 987 496 l 975 591 q 1247 346 1131 469 l 1193 300 q 1096 397 1149 351 q 821 374 911 378 l 821 241 l 1206 241 l 1206 174 l 821 174 l 821 24 l 1304 24 l 1304 -45 m 1145 888 l 1145 1039 l 304 1039 l 306 888 l 1145 888 z "},"山":{"ha":1389,"x_min":182,"x_max":1218,"o":"m 1218 -72 l 1141 -72 l 1141 -4 l 182 -4 l 182 921 l 258 921 l 258 71 l 661 71 l 661 1141 l 736 1141 l 736 71 l 1141 71 l 1141 921 l 1218 921 l 1218 -72 z "},"巢":{"ha":1389,"x_min":98,"x_max":1311,"o":"m 1217 1121 q 1068 1014 1142 1057 q 1213 924 1133 981 l 1158 869 q 933 1014 1053 947 q 1153 1162 1044 1077 l 1217 1121 m 831 1120 q 677 1014 760 1061 q 814 918 749 970 l 760 868 q 557 1014 669 943 q 766 1161 648 1068 l 831 1120 m 444 1112 q 302 1014 374 1055 q 432 921 406 943 l 378 867 q 175 1014 287 941 q 383 1158 293 1084 l 444 1112 m 1311 28 l 1272 -39 q 741 244 950 56 l 741 -68 l 665 -68 l 665 240 q 139 -36 419 52 l 98 28 q 572 248 368 106 l 110 248 l 110 313 l 665 313 l 665 411 l 239 411 l 239 831 l 1160 831 l 1160 411 l 741 411 l 741 313 l 1292 313 l 1292 248 l 825 248 q 1311 28 994 110 m 1088 656 l 1088 766 l 741 766 l 741 656 l 1088 656 m 665 656 l 665 766 l 315 766 l 315 656 l 665 656 m 1088 476 l 1088 591 l 741 591 l 741 476 l 1088 476 m 665 476 l 665 591 l 315 591 l 315 476 l 665 476 z "},"巣":{"ha":1389,"x_min":85,"x_max":1308,"o":"m 762 956 l 703 922 q 587 1100 642 1027 l 646 1139 q 762 956 718 1042 m 1175 1100 q 1015 903 1090 978 l 954 942 q 1116 1136 1026 1013 l 1175 1100 m 447 965 l 392 922 q 222 1092 330 1002 l 275 1136 q 447 965 388 1044 m 1308 17 l 1274 -47 q 734 235 934 52 l 734 -75 l 663 -75 l 663 236 q 135 -46 476 73 l 85 18 q 595 271 406 114 l 97 271 l 97 339 l 663 339 l 663 433 l 221 433 l 221 885 l 1177 885 l 1177 433 l 734 433 l 734 339 l 1303 339 l 1303 271 l 793 271 q 1308 17 952 121 m 1104 697 l 1104 818 l 734 818 l 734 697 l 1104 697 m 663 697 l 663 818 l 294 818 l 294 697 l 663 697 m 1104 498 l 1104 629 l 734 629 l 734 498 l 1104 498 m 663 498 l 663 629 l 294 629 l 294 498 l 663 498 z "},"左":{"ha":1389,"x_min":85,"x_max":1297,"o":"m 1283 832 l 547 832 q 136 98 433 398 l 85 161 q 471 832 363 424 l 117 832 l 117 904 l 489 904 q 532 1150 522 1047 l 610 1143 q 564 904 578 960 l 1283 904 l 1283 832 m 1297 -37 l 248 -37 l 248 35 l 770 35 l 770 456 l 481 456 l 481 529 l 1169 529 l 1169 456 l 844 456 l 844 35 l 1297 35 l 1297 -37 z "},"巨":{"ha":1389,"x_min":94,"x_max":1308,"o":"m 1308 -37 l 94 -37 l 94 36 l 249 36 l 249 1035 l 113 1035 l 113 1111 l 1292 1111 l 1292 1035 l 325 1035 l 325 787 l 1168 787 l 1168 307 l 326 307 l 326 36 l 1308 36 l 1308 -37 m 1090 383 l 1090 713 l 326 713 l 326 383 l 1090 383 z "},"差":{"ha":1389,"x_min":94,"x_max":1304,"o":"m 1067 1109 q 929 989 1001 1033 l 869 1035 q 1006 1154 950 1087 l 1067 1109 m 557 1026 l 496 985 q 370 1108 451 1044 l 429 1153 q 557 1026 516 1084 m 1301 464 l 454 464 q 147 -36 436 149 l 94 21 q 380 464 366 180 l 106 464 l 106 530 l 667 530 l 667 676 l 191 676 l 191 745 l 667 745 l 667 890 l 149 890 l 149 957 l 1263 957 l 1263 890 l 739 890 l 739 745 l 1208 745 l 1208 676 l 739 676 l 739 530 l 1301 530 l 1301 464 m 1304 -46 l 366 -46 l 366 22 l 799 22 l 799 245 l 484 245 l 484 315 l 1238 315 l 1238 245 l 875 245 l 875 22 l 1304 22 l 1304 -46 z "},"巽":{"ha":1389,"x_min":94,"x_max":1301,"o":"m 1236 643 l 851 643 q 758 739 758 643 l 758 1112 l 1196 1112 l 1196 846 l 828 846 l 828 745 q 863 710 828 710 l 1236 710 l 1236 643 m 1125 914 l 1125 1043 l 828 1043 l 828 914 l 1125 914 m 640 753 l 640 684 q 191 593 422 633 l 160 663 q 182 699 182 669 l 182 1112 l 623 1112 l 623 846 l 254 846 l 254 673 q 640 753 494 718 m 551 914 l 551 1043 l 254 1043 l 254 914 l 551 914 m 1301 199 l 94 199 l 94 267 l 421 267 l 421 427 l 126 427 l 126 496 l 421 496 l 421 602 l 492 602 l 492 496 l 908 496 l 908 602 l 978 602 l 978 496 l 1270 496 l 1270 427 l 978 427 l 978 267 l 1301 267 l 1301 199 m 908 267 l 908 427 l 492 427 l 492 267 l 908 267 m 1268 -17 l 1223 -74 q 827 96 1031 25 l 871 155 q 1268 -17 1055 93 m 545 96 q 171 -77 357 -13 l 122 -14 q 494 151 345 57 l 545 96 z "},"市":{"ha":1389,"x_min":86,"x_max":1295,"o":"m 1295 897 l 728 897 l 728 677 l 1198 677 l 1198 158 q 1173 85 1198 112 q 1109 54 1147 58 q 936 53 1072 50 l 899 127 q 996 125 947 125 q 1107 135 1088 125 q 1126 168 1126 144 l 1126 606 l 728 606 l 728 -74 l 654 -74 l 654 606 l 260 606 l 260 53 l 184 53 l 184 677 l 654 677 l 654 897 l 86 897 l 86 970 l 671 970 q 564 1118 635 1036 l 632 1153 q 761 970 688 1097 l 1295 970 l 1295 897 z "},"帶":{"ha":1389,"x_min":92,"x_max":1300,"o":"m 1300 940 l 1060 940 l 1060 829 q 1071 804 1060 815 q 1097 793 1082 793 l 1271 793 l 1271 726 l 1093 726 q 989 822 989 726 l 989 940 l 846 940 l 846 718 l 513 718 l 513 940 l 372 940 q 180 657 357 752 l 123 710 q 297 940 289 798 l 92 940 l 92 1011 l 306 1011 l 310 1143 l 378 1143 q 375 1011 380 1083 l 513 1011 l 513 1141 l 585 1141 l 585 1011 l 774 1011 l 774 1141 l 846 1141 l 846 1011 l 989 1011 l 989 1143 l 1060 1143 l 1060 1011 l 1300 1011 l 1300 940 m 774 787 l 774 940 l 585 940 l 585 787 l 774 787 m 1246 342 l 1177 342 l 1177 558 l 734 558 l 734 404 l 1111 404 l 1111 100 q 1082 20 1111 47 q 869 -7 1053 -7 l 844 68 q 1024 73 1007 68 q 1042 100 1042 77 l 1042 334 l 734 334 l 734 -68 l 664 -68 l 664 334 l 355 334 l 355 -7 l 285 -7 l 285 404 l 664 404 l 664 558 l 224 558 l 224 342 l 150 342 l 150 628 l 1246 628 l 1246 342 z "},"常":{"ha":1389,"x_min":139,"x_max":1251,"o":"m 1251 628 l 1178 628 l 1178 850 l 211 850 l 211 628 l 139 628 l 139 920 l 659 920 l 659 1141 l 732 1141 l 732 920 l 1251 920 l 1251 628 m 452 981 l 382 949 q 282 1093 339 1025 l 350 1128 q 452 981 414 1055 m 1120 1086 q 1014 947 1076 1013 l 954 989 q 1054 1121 1019 1064 l 1120 1086 m 1166 100 q 1133 8 1166 32 q 1002 -15 1099 -15 q 935 -12 966 -15 l 907 58 q 1078 64 1061 58 q 1095 97 1095 71 l 1095 277 l 734 277 l 734 -77 l 663 -77 l 663 277 l 301 277 l 301 -16 l 229 -16 l 229 346 l 663 346 l 663 460 l 350 460 l 350 755 l 1047 755 l 1047 460 l 734 460 l 734 346 l 1166 346 l 1166 100 m 972 530 l 972 685 l 424 685 l 424 530 l 972 530 z "},"平":{"ha":1389,"x_min":93,"x_max":1303,"o":"m 1303 378 l 736 378 l 736 -78 l 661 -78 l 661 378 l 93 378 l 93 452 l 661 452 l 661 1035 l 127 1035 l 127 1108 l 1271 1108 l 1271 1035 l 736 1035 l 736 452 l 1303 452 l 1303 378 m 1189 879 q 993 553 1126 706 l 924 590 q 1121 907 1052 731 l 1189 879 m 464 582 l 396 547 q 221 873 355 680 l 281 907 q 464 582 408 743 z "},"幽":{"ha":1389,"x_min":135,"x_max":1251,"o":"m 1251 -78 l 1183 -78 l 1183 -12 l 135 -12 l 135 1053 l 204 1053 l 204 52 l 660 52 l 660 1136 l 729 1136 l 729 52 l 1183 52 l 1183 1050 l 1251 1050 l 1251 -78 m 623 196 l 558 174 q 538 254 547 222 q 256 182 416 216 l 237 241 q 436 596 338 383 l 275 575 l 253 633 q 418 1112 350 815 l 485 1099 q 336 648 428 857 q 467 667 406 656 q 550 871 491 718 l 615 847 q 339 273 469 462 q 524 318 437 290 q 484 446 503 397 l 550 463 q 623 196 599 311 m 1150 191 l 1084 171 q 1064 278 1080 212 q 785 184 945 229 l 760 244 q 946 587 879 437 q 778 564 856 571 l 768 621 q 939 1104 868 804 l 1008 1093 q 851 640 933 807 q 979 660 909 644 q 1069 868 1027 758 l 1132 844 q 856 277 986 484 q 1047 340 986 313 l 1018 446 l 1082 465 q 1150 191 1124 336 z "},"府":{"ha":1389,"x_min":97,"x_max":1305,"o":"m 1305 946 l 296 946 l 296 509 q 158 -65 296 149 l 97 -17 q 227 574 227 185 l 227 1018 l 726 1018 q 682 1128 713 1064 l 751 1149 q 804 1018 789 1063 l 1305 1018 l 1305 946 m 692 872 q 612 702 649 775 l 575 633 l 575 -71 l 504 -71 l 504 511 q 375 349 454 438 l 334 412 q 623 892 499 601 l 692 872 m 1305 597 l 1160 597 l 1160 39 q 1059 -71 1160 -71 q 861 -66 913 -71 l 835 7 q 1059 0 956 0 q 1089 29 1089 0 l 1089 597 l 664 597 l 664 669 l 1089 669 l 1089 880 l 1160 880 l 1160 669 l 1305 669 l 1305 597 m 951 222 l 890 183 q 718 446 827 324 l 778 488 q 951 222 895 348 z "},"庫":{"ha":1389,"x_min":82,"x_max":1305,"o":"m 1301 953 l 294 953 l 294 739 q 147 -81 294 207 l 82 -35 q 180 230 138 60 q 221 749 221 400 l 221 1014 l 746 1014 q 693 1126 732 1049 l 755 1153 q 823 1014 784 1108 l 1301 1014 l 1301 953 m 1305 87 l 851 87 l 851 -68 l 781 -68 l 781 87 l 322 87 l 322 150 l 781 150 l 781 248 l 412 248 l 412 656 l 781 656 l 781 761 l 355 761 l 355 822 l 781 822 l 781 907 l 851 907 l 851 822 l 1274 822 l 1274 761 l 851 761 l 851 656 l 1211 656 l 1211 248 l 851 248 l 851 150 l 1305 150 l 1305 87 m 1143 484 l 1143 595 l 851 595 l 851 484 l 1143 484 m 781 484 l 781 595 l 484 595 l 484 484 l 781 484 m 1143 309 l 1143 422 l 851 422 l 851 309 l 1143 309 m 781 309 l 781 422 l 484 422 l 484 309 l 781 309 z "},"庭":{"ha":1389,"x_min":92,"x_max":1304,"o":"m 1301 947 l 294 947 l 294 689 q 257 254 294 461 q 149 -74 220 47 l 92 -29 q 222 657 222 243 l 222 1018 l 734 1018 q 681 1120 701 1084 l 751 1145 q 812 1018 785 1089 l 1301 1018 l 1301 947 m 1282 160 l 697 160 l 697 229 l 960 229 l 960 461 l 764 461 l 764 529 l 960 529 l 960 737 l 754 714 l 722 783 q 1219 860 990 801 l 1260 798 q 1029 750 1115 762 l 1029 529 l 1225 529 l 1225 461 l 1029 461 l 1029 229 l 1282 229 l 1282 160 m 1304 17 l 1276 -54 q 731 -34 847 -58 q 517 81 615 -9 q 335 -78 428 -22 l 282 -21 q 468 131 401 50 q 354 351 380 255 l 419 375 q 510 193 448 281 q 600 452 579 294 l 358 452 l 358 519 q 572 768 450 608 l 350 768 l 350 836 l 660 836 l 660 768 q 454 519 561 635 l 675 519 q 557 136 671 291 q 746 35 642 57 q 1304 17 850 12 z "},"廉":{"ha":1389,"x_min":82,"x_max":1303,"o":"m 1303 20 l 1255 -39 q 926 216 1038 73 l 926 -66 l 856 -66 l 856 283 l 676 283 l 676 -66 l 607 -66 l 607 221 q 272 -39 475 74 l 225 18 q 567 283 464 146 l 340 283 l 340 350 l 607 350 l 607 464 l 269 464 q 139 -18 254 177 l 82 33 q 208 672 208 257 l 208 1068 l 711 1068 l 675 1135 l 749 1158 q 793 1068 766 1128 l 1301 1068 l 1301 999 l 278 999 l 278 672 q 275 529 278 578 l 607 529 l 607 631 l 340 631 l 340 696 l 607 696 l 607 796 l 330 796 l 330 861 l 1286 861 l 1286 796 l 926 796 l 926 696 l 1175 696 l 1175 529 l 1300 529 l 1300 464 l 1175 464 l 1175 283 l 960 283 q 1303 20 1079 120 m 856 696 l 856 796 l 676 796 l 676 696 l 856 696 m 1105 529 l 1105 631 l 926 631 l 926 529 l 1105 529 m 856 529 l 856 631 l 676 631 l 676 529 l 856 529 m 1105 350 l 1104 464 l 926 464 l 926 350 l 1105 350 m 856 350 l 856 464 l 676 464 l 676 350 l 856 350 m 668 926 l 635 873 q 479 928 560 907 l 504 982 q 668 926 582 965 m 1067 926 q 905 875 980 887 l 869 930 q 1039 979 977 955 l 1067 926 z "},"廊":{"ha":1389,"x_min":90,"x_max":1287,"o":"m 1287 957 l 257 957 l 257 494 q 144 -75 257 156 l 90 -24 q 189 564 189 181 l 189 1028 l 679 1028 q 627 1121 659 1074 l 692 1150 q 765 1028 726 1097 l 1287 1028 l 1287 957 m 843 14 l 783 -18 q 726 106 755 51 q 396 -43 537 5 l 355 17 q 376 47 376 28 l 376 810 l 539 810 q 493 882 504 869 l 557 907 q 619 810 580 876 l 765 810 l 765 354 l 444 354 l 444 52 q 693 170 553 93 q 624 285 646 252 l 688 313 q 843 14 797 139 m 699 623 l 699 741 l 444 741 l 444 623 l 699 623 m 699 424 l 699 551 l 444 551 l 444 424 l 699 424 m 1139 476 q 1278 195 1278 340 q 1072 23 1278 23 q 1023 25 1048 23 l 1000 96 q 1067 94 1038 94 q 1186 121 1162 94 q 1211 195 1211 149 q 1170 333 1211 260 q 1060 457 1129 406 q 1182 782 1135 631 l 954 782 l 954 -71 l 886 -71 l 886 851 l 1255 851 l 1255 782 q 1139 476 1200 612 z "},"建":{"ha":1389,"x_min":77,"x_max":1304,"o":"m 1293 772 l 1194 772 l 1194 575 l 878 575 l 878 460 l 1222 460 l 1222 392 l 878 392 l 878 278 l 1270 278 l 1270 210 l 878 210 l 878 72 l 808 72 l 808 210 l 464 210 l 464 278 l 808 278 l 808 392 l 517 392 l 517 460 l 808 460 l 808 575 l 543 575 l 543 644 l 808 644 l 808 772 l 465 772 l 465 843 l 808 843 l 808 964 l 545 964 l 545 1032 l 808 1032 l 808 1136 l 878 1136 l 878 1032 l 1194 1032 l 1194 843 l 1293 843 l 1293 772 m 1124 843 l 1124 961 l 878 961 l 878 843 l 1124 843 m 1124 644 l 1124 772 l 878 772 l 878 644 l 1124 644 m 1304 20 l 1287 -54 q 1048 -58 1162 -58 q 700 -45 804 -58 q 494 3 595 -33 q 314 119 393 39 q 126 -75 215 -5 l 77 -18 q 261 174 180 63 q 131 447 184 278 l 196 473 q 300 241 235 326 q 382 597 373 393 l 125 597 l 125 663 q 382 1036 254 825 l 97 1036 l 97 1105 l 460 1105 l 460 1036 q 216 668 333 823 l 457 668 q 350 182 444 361 q 498 77 416 115 q 674 27 581 39 q 1043 15 768 15 q 1304 20 1180 15 z "},"引":{"ha":1389,"x_min":154,"x_max":1207,"o":"m 1207 -72 l 1132 -72 l 1132 1143 l 1207 1143 l 1207 -72 m 799 509 q 768 196 798 352 q 694 4 739 41 q 609 -52 649 -33 q 372 -71 568 -71 q 264 -68 314 -71 l 236 5 q 378 1 307 1 q 536 7 493 1 q 612 36 579 12 q 663 92 644 59 q 698 223 682 124 q 721 435 715 321 l 163 435 q 220 802 197 618 l 721 802 l 721 1038 l 154 1038 l 154 1111 l 796 1111 l 796 729 l 288 729 q 252 509 272 612 l 799 509 z "},"強":{"ha":1389,"x_min":97,"x_max":1304,"o":"m 1304 -35 l 1243 -72 q 1183 40 1211 -1 q 505 -66 804 -26 l 482 3 q 846 52 746 33 l 846 283 l 557 283 l 557 633 l 846 633 l 846 755 q 539 734 645 743 l 514 798 q 811 1147 694 934 l 886 1129 q 637 815 793 966 q 1129 848 977 836 q 985 999 1066 926 l 1032 1048 q 1303 750 1175 916 l 1249 699 q 1181 789 1241 711 l 920 764 l 920 633 l 1208 633 l 1208 283 l 920 283 l 920 64 q 1147 103 1046 80 q 1078 203 1118 151 l 1140 239 q 1304 -35 1244 92 m 1137 354 l 1137 561 l 920 561 l 920 354 l 1137 354 m 846 354 l 846 561 l 629 561 l 629 354 l 846 354 m 460 734 l 224 734 l 195 473 l 456 473 q 441 207 452 357 q 424 28 431 56 q 395 -22 416 1 q 338 -56 374 -45 q 232 -67 303 -67 q 121 -64 174 -67 l 100 7 q 234 5 168 5 q 320 14 301 5 q 349 39 340 22 q 369 175 359 56 q 380 406 379 293 l 117 406 l 158 804 l 389 804 l 389 1043 l 97 1043 l 97 1111 l 460 1111 l 460 734 z "},"彧":{"ha":1389,"x_min":97,"x_max":1312,"o":"m 1312 182 q 1245 16 1300 103 q 1128 -71 1191 -71 q 945 111 1027 -71 q 597 -56 777 11 l 558 9 q 918 178 759 79 q 880 319 894 256 q 694 225 793 269 l 650 286 q 864 393 768 336 q 843 542 850 479 q 669 461 771 501 l 629 522 q 833 619 741 564 q 817 879 819 773 l 97 879 l 97 950 l 815 950 q 814 1140 814 994 l 889 1140 q 889 950 886 1026 l 1307 950 l 1307 879 l 892 879 q 904 661 892 768 q 1103 823 1010 734 l 1152 774 q 911 579 1058 676 q 932 437 917 510 q 1185 668 1072 538 l 1236 618 q 947 359 1111 475 q 982 222 954 300 q 1246 471 1117 322 l 1295 419 q 1007 153 1156 260 q 1072 40 1038 77 q 1124 3 1105 3 q 1195 77 1157 3 q 1246 216 1232 151 l 1312 182 m 1221 1025 l 1174 977 q 1029 1082 1093 1044 l 1074 1133 q 1221 1025 1145 1097 m 570 371 l 163 371 l 163 728 l 570 728 l 570 371 m 496 443 l 496 657 l 235 657 l 235 443 l 496 443 m 610 220 q 123 53 362 110 l 100 121 q 603 290 347 181 l 610 220 z "},"後":{"ha":1389,"x_min":81,"x_max":1311,"o":"m 1311 -3 l 1283 -74 q 869 79 1044 -17 q 433 -72 669 -25 l 396 -5 q 800 125 627 35 q 623 293 690 210 q 479 196 551 237 l 428 249 q 575 346 527 302 q 518 419 543 385 l 574 464 q 629 395 590 439 q 741 545 695 451 l 507 534 l 490 607 q 848 796 659 663 l 541 779 l 528 851 q 886 1153 710 933 l 956 1126 q 668 856 818 945 q 953 875 772 859 q 1131 1029 1049 951 l 1202 997 q 671 610 936 745 q 1137 647 842 612 q 1050 762 1102 701 l 1111 800 q 1310 505 1242 644 l 1249 469 q 1182 585 1221 529 q 821 551 1019 565 q 749 421 781 465 l 1179 421 l 1179 353 q 939 123 1044 195 q 1311 -3 1136 28 m 1082 353 l 689 353 q 677 339 684 345 q 868 165 768 233 q 1082 353 973 232 m 446 1120 q 140 815 283 908 l 93 869 q 379 1152 240 960 l 446 1120 m 488 838 q 354 632 426 728 l 354 -68 l 281 -68 l 281 534 q 131 386 199 446 l 81 444 q 424 864 263 593 l 488 838 z "},"復":{"ha":1389,"x_min":81,"x_max":1310,"o":"m 1292 981 l 640 981 q 479 815 574 901 l 421 860 q 677 1153 604 1027 l 741 1120 q 697 1051 720 1081 l 1292 1051 l 1292 981 m 444 1108 q 135 817 307 930 l 87 872 q 387 1147 258 979 l 444 1108 m 1310 -5 l 1274 -74 q 854 56 1011 -22 q 440 -77 665 -33 l 403 -11 q 782 96 628 29 q 599 245 682 163 q 441 139 517 183 l 395 189 q 550 298 498 256 l 500 358 l 554 396 q 602 343 572 372 q 728 478 659 389 l 568 478 l 568 872 l 1198 872 l 1198 478 l 818 478 q 745 380 783 425 l 1210 380 l 1210 311 q 935 93 1080 175 q 1310 -5 1105 22 m 1128 711 l 1128 803 l 639 803 l 639 711 l 1128 711 m 1128 545 l 1128 643 l 639 643 l 639 545 l 1128 545 m 1111 311 l 677 311 q 653 289 661 294 q 859 132 760 184 q 1111 311 1007 212 m 432 758 q 318 590 373 662 l 318 -68 l 248 -68 l 248 504 q 122 386 199 453 l 81 446 q 374 796 257 595 l 432 758 z "},"心":{"ha":1389,"x_min":86,"x_max":1303,"o":"m 904 772 l 842 722 q 529 1100 736 912 l 586 1152 q 904 772 783 970 m 1034 325 q 1009 105 1025 193 q 972 -9 994 18 q 916 -45 951 -35 q 751 -56 881 -56 q 591 -51 655 -56 q 499 -21 527 -47 q 471 54 471 5 l 471 825 l 546 825 l 546 75 q 557 41 546 56 q 581 24 569 26 q 685 20 592 21 l 865 20 q 907 38 886 20 q 942 159 928 56 q 954 351 956 262 l 1034 325 m 1303 167 l 1225 139 q 1011 667 1173 370 l 1079 707 q 1303 167 1238 394 m 349 684 q 154 86 263 304 l 86 134 q 273 707 204 345 l 349 684 z "},"志":{"ha":1389,"x_min":98,"x_max":1299,"o":"m 1291 901 l 733 901 l 733 654 l 1207 654 l 1207 583 l 186 583 l 186 654 l 660 654 l 660 901 l 98 901 l 98 972 l 660 972 l 660 1145 l 733 1145 l 733 972 l 1291 972 l 1291 901 m 851 261 l 790 220 q 596 473 728 340 l 654 514 q 851 261 777 389 m 1032 189 q 992 -9 1022 35 q 911 -58 962 -53 q 762 -63 860 -63 l 553 -61 q 444 77 444 -61 l 444 399 l 515 399 l 515 54 q 533 15 515 23 q 730 6 551 6 q 904 11 888 6 q 939 43 920 15 q 961 211 958 72 l 1032 189 m 353 343 q 167 -16 277 127 l 102 22 q 288 366 220 181 l 353 343 m 1299 35 l 1236 -8 q 1032 311 1190 107 l 1092 351 q 1299 35 1205 210 z "},"急":{"ha":1389,"x_min":89,"x_max":1303,"o":"m 1300 559 l 1157 559 l 1157 355 l 229 355 l 229 424 l 1088 424 l 1088 559 l 96 559 l 96 625 l 1088 625 l 1088 766 l 285 766 l 285 812 q 155 737 205 764 l 113 794 q 510 1147 371 923 l 579 1124 q 517 1032 553 1078 l 990 1032 l 990 962 q 871 836 949 914 l 1157 836 l 1157 625 l 1300 625 l 1300 559 m 895 962 l 457 962 q 317 836 403 903 l 770 836 q 895 962 828 889 m 843 131 l 778 98 q 650 289 723 206 l 718 323 q 843 131 791 237 m 1031 138 q 986 -33 1015 0 q 897 -66 958 -66 l 542 -65 q 450 25 450 -65 l 450 292 l 521 292 l 521 31 q 568 -1 521 -1 q 897 -1 614 -1 q 961 158 955 -1 l 1031 138 m 1303 16 l 1239 -18 q 1063 232 1174 102 l 1124 264 q 1303 16 1246 132 m 315 236 q 146 -25 253 93 l 89 17 q 249 260 189 125 l 315 236 z "},"息":{"ha":1389,"x_min":98,"x_max":1301,"o":"m 1146 386 l 256 386 l 256 1018 l 518 1018 q 596 1160 554 1068 l 668 1137 q 604 1018 640 1072 l 1146 1018 l 1146 386 m 1072 835 l 1072 949 l 328 949 l 328 835 l 1072 835 m 1072 650 l 1072 766 l 328 766 l 328 650 l 1072 650 m 1072 456 l 1072 579 l 328 579 l 328 456 l 1072 456 m 871 184 l 810 146 q 664 322 755 233 l 722 363 q 871 184 812 280 m 1034 136 q 1002 13 1023 60 q 947 -45 981 -34 q 789 -56 914 -56 q 568 -50 635 -56 q 477 -16 501 -43 q 453 58 453 12 l 453 321 l 525 321 l 525 52 q 533 32 525 41 q 552 21 542 23 q 645 15 562 18 q 802 12 728 12 q 915 19 896 12 q 944 60 934 27 q 962 164 955 92 l 1034 136 m 351 281 q 163 -9 281 140 l 98 32 q 289 314 196 138 l 351 281 m 1301 20 l 1239 -21 q 1050 260 1167 113 l 1109 298 q 1301 20 1221 164 z "},"意":{"ha":1389,"x_min":98,"x_max":1300,"o":"m 1282 789 l 115 789 l 115 857 l 468 857 q 412 979 456 897 l 180 979 l 180 1047 l 656 1047 q 593 1126 637 1082 l 664 1157 q 746 1047 710 1102 l 1221 1047 l 1221 979 l 993 979 q 930 857 961 908 l 1282 857 l 1282 789 m 916 979 l 492 979 q 545 857 517 932 l 848 857 q 916 979 880 905 m 1128 298 l 264 298 l 264 696 l 1128 696 l 1128 298 m 1055 533 l 1055 629 l 336 629 l 336 533 l 1055 533 m 1055 367 l 1055 467 l 336 467 l 336 367 l 1055 367 m 814 123 l 754 87 q 653 239 722 153 l 711 269 q 814 123 775 205 m 1300 18 l 1236 -24 q 1074 224 1192 84 l 1133 260 q 1300 18 1222 157 m 309 204 q 157 -17 241 70 l 98 29 q 248 239 192 125 l 309 204 m 1022 122 q 990 -12 1015 25 q 933 -58 965 -49 q 792 -66 902 -66 q 610 -63 700 -66 q 500 -52 519 -60 q 465 -21 481 -43 q 449 33 449 1 l 449 235 l 521 235 l 521 39 q 546 7 521 16 q 753 -1 570 -1 q 898 3 871 -1 q 937 46 924 8 q 949 146 949 84 l 1022 122 z "},"感":{"ha":1389,"x_min":90,"x_max":1297,"o":"m 1297 293 q 1253 118 1286 202 q 1176 34 1220 34 q 1051 137 1126 34 q 940 385 976 241 q 775 243 856 296 l 728 292 q 920 468 852 385 q 875 920 886 665 l 286 920 q 144 228 296 439 l 90 275 q 220 875 220 460 q 218 987 220 924 l 869 987 q 867 1061 867 1018 q 869 1143 867 1104 l 942 1143 q 939 1044 939 1088 q 940 987 939 1013 l 1284 987 l 1284 920 l 945 920 q 981 543 957 667 q 1161 838 1086 690 l 1217 799 q 996 453 1136 633 q 1094 199 1034 283 q 1171 115 1154 115 q 1206 190 1185 115 q 1232 332 1227 265 l 1297 293 m 1204 1055 l 1150 1006 q 1061 1088 1114 1048 l 1112 1137 q 1204 1055 1165 1098 m 807 743 l 353 743 l 353 807 l 807 807 l 807 743 m 760 380 l 385 380 l 385 653 l 760 653 l 760 380 m 692 446 l 692 587 l 453 587 l 453 446 l 692 446 m 663 186 l 604 151 q 498 298 570 213 l 555 334 q 663 186 622 258 m 787 127 q 758 7 781 49 q 699 -46 736 -35 q 560 -56 661 -56 q 401 -34 435 -56 q 368 52 368 -11 l 368 292 l 435 292 l 435 57 q 451 23 435 35 q 561 10 468 10 q 687 32 662 10 q 721 160 711 53 l 787 127 m 311 239 q 196 -7 273 97 l 140 36 q 252 273 212 132 l 311 239 m 986 33 l 928 -4 q 814 195 882 104 l 869 233 q 986 33 941 136 z "},"懸":{"ha":1389,"x_min":103,"x_max":1303,"o":"m 1064 1116 q 728 892 949 996 l 686 947 q 1006 1152 897 1038 l 1064 1116 m 690 562 l 456 562 l 456 282 l 385 282 l 385 562 l 134 562 l 134 627 l 212 627 l 212 1112 l 628 1112 l 628 627 l 690 627 l 690 562 m 559 993 l 559 1051 l 281 1051 l 281 993 l 559 993 m 559 873 l 559 935 l 281 935 l 281 873 l 559 873 m 559 751 l 559 815 l 281 815 l 281 751 l 559 751 m 559 627 l 559 693 l 281 693 l 281 627 l 559 627 m 1303 590 l 1246 561 l 1215 633 q 1055 607 1163 623 l 1055 283 l 986 283 l 986 597 q 745 571 869 582 l 728 628 q 986 778 886 703 q 755 757 880 766 l 742 814 q 1111 1069 920 891 l 1168 1032 q 879 825 1006 882 q 982 833 937 829 q 1082 850 1072 842 q 1197 946 1128 886 l 1253 903 q 851 632 1052 734 q 1186 682 1090 665 l 1145 760 l 1198 790 q 1303 590 1264 701 m 1293 383 l 1240 340 q 1111 497 1198 413 l 1157 543 q 1293 383 1238 472 m 929 503 q 778 330 880 420 l 726 374 q 878 543 842 488 l 929 503 m 326 475 q 153 302 237 360 l 103 354 q 273 518 189 413 l 326 475 m 685 387 l 631 349 q 519 475 603 396 l 570 515 q 685 387 647 454 m 850 136 l 790 94 q 659 269 728 196 l 714 310 q 850 136 789 242 m 1300 22 l 1238 -18 q 1088 229 1190 86 l 1143 272 q 1300 22 1225 157 m 343 210 q 165 -37 261 60 l 106 5 q 282 244 195 94 l 343 210 m 1040 129 q 899 -56 1038 -56 q 538 -51 583 -56 q 472 -22 493 -46 q 452 39 452 2 l 452 233 l 522 233 l 522 47 q 544 20 522 28 q 756 12 566 12 q 920 19 877 12 q 970 149 963 26 l 1040 129 z "},"戶":{"ha":1389,"x_min":89,"x_max":1246,"o":"m 1246 1071 q 353 974 760 974 l 353 790 l 1243 790 l 1243 343 l 339 343 q 142 -82 302 81 l 89 -20 q 240 230 201 89 q 279 721 279 371 l 279 1043 q 1204 1137 738 1041 l 1246 1071 m 1168 418 l 1168 717 l 354 717 q 347 418 354 638 l 1168 418 z "},"房":{"ha":1389,"x_min":83,"x_max":1301,"o":"m 1214 1082 q 306 1002 861 1002 l 306 895 l 1213 895 l 1213 611 l 301 611 q 146 -62 297 214 l 83 -22 q 233 654 233 242 l 233 1071 q 372 1069 301 1069 q 1194 1145 846 1069 l 1214 1082 m 1140 676 l 1140 829 l 306 829 l 306 676 l 1140 676 m 1301 399 l 696 399 q 676 279 688 322 l 1204 279 q 1177 91 1194 170 q 1137 -16 1160 13 q 1078 -58 1114 -45 q 936 -70 1041 -70 q 828 -68 892 -70 l 804 -1 q 1014 -4 855 -4 q 1089 41 1071 -4 q 1124 212 1108 86 l 654 212 q 353 -75 566 20 l 314 -16 q 624 399 610 119 l 357 399 l 357 465 l 777 465 q 720 550 760 496 l 789 576 q 863 465 830 522 l 1301 465 l 1301 399 z "},"手":{"ha":1389,"x_min":97,"x_max":1304,"o":"m 1304 336 l 774 336 l 774 36 q 749 -36 774 -9 q 669 -66 724 -62 q 524 -71 614 -71 q 443 -69 480 -71 l 412 7 q 536 4 472 4 q 681 15 663 4 q 700 54 700 25 l 700 336 l 97 336 l 97 411 l 700 411 l 700 660 l 192 660 l 192 732 l 700 732 l 700 978 q 211 946 456 950 l 179 1017 q 1166 1140 804 1028 l 1210 1076 q 774 990 1008 1019 l 774 732 l 1223 732 l 1223 660 l 774 660 l 774 411 l 1304 411 l 1304 336 z "},"扶":{"ha":1389,"x_min":93,"x_max":1321,"o":"m 1321 -18 l 1272 -75 q 901 427 987 124 q 489 -78 833 144 l 440 -22 q 843 501 791 191 l 550 501 l 550 572 l 854 572 q 872 844 870 682 l 587 844 l 587 916 l 873 916 q 875 1150 875 975 l 946 1150 q 947 1015 947 1084 q 946 916 947 952 l 1253 916 l 1253 844 l 945 844 q 928 572 935 651 l 1293 572 l 1293 501 l 958 501 q 1321 -18 1023 182 m 536 833 l 363 833 l 363 551 q 481 600 423 570 l 496 529 q 363 471 429 498 l 363 22 q 338 -46 363 -21 q 238 -71 313 -71 q 157 -69 208 -71 l 129 8 q 227 3 176 3 q 280 11 270 3 q 290 37 290 18 l 290 443 q 109 383 171 401 l 93 457 q 290 519 198 486 l 290 833 l 102 833 l 102 903 l 290 903 l 290 1150 l 363 1150 l 363 903 l 536 903 l 536 833 z "},"承":{"ha":1389,"x_min":90,"x_max":1312,"o":"m 1083 1034 q 762 796 941 911 l 762 718 l 943 718 l 943 647 l 762 647 l 762 505 l 989 505 l 989 439 l 762 439 l 762 297 l 1029 297 l 1029 229 l 762 229 l 762 49 q 741 -26 762 2 q 693 -62 720 -54 q 602 -70 666 -70 q 517 -68 568 -70 l 492 7 q 587 3 541 3 q 677 12 663 3 q 692 37 692 21 l 692 229 l 383 229 l 383 297 l 692 297 l 692 439 l 447 439 l 447 505 l 692 505 l 692 647 l 465 647 l 465 718 l 692 718 l 692 831 q 986 1040 871 949 l 309 1040 l 309 1108 l 1083 1108 l 1083 1034 m 1312 77 l 1251 35 q 1021 685 1048 277 q 1255 867 1164 769 l 1305 815 q 1096 643 1231 739 q 1312 77 1118 307 m 401 791 q 334 336 393 507 q 150 33 275 164 l 90 78 q 329 724 295 291 l 107 724 l 107 791 l 401 791 z "},"指":{"ha":1389,"x_min":89,"x_max":1301,"o":"m 1301 679 l 704 679 q 632 707 659 679 q 606 775 606 734 l 606 1145 l 677 1145 l 677 1011 l 1250 1011 l 1250 940 l 677 940 l 677 787 q 690 761 677 773 q 717 749 703 749 l 1301 749 l 1301 679 m 545 515 q 359 457 467 488 l 359 31 q 336 -34 359 -9 q 264 -61 313 -58 q 180 -64 215 -64 l 144 -62 l 125 11 q 248 7 213 7 q 275 19 263 7 q 286 47 286 31 l 286 432 q 104 382 159 396 l 89 452 q 286 505 161 469 l 286 839 l 109 839 l 109 909 l 286 909 l 286 1145 l 359 1145 l 359 909 l 522 909 l 522 839 l 359 839 l 359 530 q 530 586 441 553 l 545 515 m 1226 -69 l 1156 -69 l 1156 8 l 686 8 l 686 -69 l 612 -69 l 612 559 l 1226 559 l 1226 -69 m 1156 325 l 1156 486 l 686 486 l 686 325 l 1156 325 m 1156 79 l 1156 256 l 686 256 l 686 79 l 1156 79 z "},"掌":{"ha":1389,"x_min":97,"x_max":1303,"o":"m 1263 682 l 1192 682 l 1192 907 l 208 907 l 208 682 l 138 682 l 138 974 l 664 974 l 664 1146 l 736 1146 l 736 974 l 1263 974 l 1263 682 m 472 1044 l 416 999 q 268 1097 352 1055 l 326 1146 q 472 1044 415 1098 m 1132 1099 q 982 1010 1059 1042 l 920 1059 q 1069 1143 982 1083 l 1132 1099 m 1057 593 l 346 593 l 346 825 l 1057 825 l 1057 593 m 986 659 l 986 758 l 418 758 l 418 659 l 986 659 m 1303 119 l 739 119 l 739 45 q 722 -24 739 3 q 670 -60 705 -52 q 555 -68 636 -68 l 475 -68 l 449 5 q 633 3 546 3 q 665 33 665 3 l 665 119 l 97 119 l 97 187 l 665 187 l 665 281 l 174 281 l 174 346 l 665 346 l 665 435 q 249 432 561 432 l 224 498 q 359 497 288 497 q 1133 538 798 497 l 1164 473 q 739 440 983 452 l 739 346 l 1225 346 l 1225 281 l 739 281 l 739 187 l 1303 187 l 1303 119 z "},"控":{"ha":1389,"x_min":87,"x_max":1303,"o":"m 1301 539 l 1088 539 q 982 642 982 539 l 982 921 l 847 921 q 595 488 829 629 l 543 543 q 774 921 760 661 l 604 921 l 604 757 l 533 757 l 533 991 l 873 991 q 804 1120 842 1061 l 869 1147 q 950 991 917 1078 l 1283 991 l 1283 754 l 1214 754 l 1214 921 l 1051 921 l 1051 650 q 1096 610 1051 610 l 1301 610 l 1301 539 m 504 539 q 350 473 410 497 l 350 41 q 320 -47 350 -22 q 199 -72 291 -72 q 136 -71 170 -72 l 113 3 q 193 0 156 0 q 263 10 248 0 q 278 45 278 20 l 278 441 q 111 379 210 414 l 87 452 q 278 521 178 481 l 278 829 l 96 829 l 96 899 l 278 899 l 278 1145 l 350 1145 l 350 899 l 482 899 l 482 829 l 350 829 l 350 550 q 492 611 437 585 l 504 539 m 1303 -46 l 479 -46 l 479 22 l 871 22 l 871 342 l 541 342 l 541 414 l 1283 414 l 1283 342 l 942 342 l 942 22 l 1303 22 l 1303 -46 z "},"揚":{"ha":1389,"x_min":93,"x_max":1301,"o":"m 472 832 l 336 832 l 336 575 q 436 637 393 606 l 452 564 q 336 492 424 545 l 336 29 q 309 -49 336 -26 q 190 -71 281 -71 q 139 -69 163 -71 l 118 3 q 236 1 135 1 q 267 37 267 1 l 267 450 q 113 370 176 398 l 93 441 q 267 532 183 481 l 267 832 l 100 832 l 100 901 l 267 901 l 267 1145 l 336 1145 l 336 901 l 472 901 l 472 832 m 1203 694 l 551 694 l 551 1111 l 1203 1111 l 1203 694 m 1132 937 l 1132 1042 l 624 1042 l 624 937 l 1132 937 m 1132 764 l 1132 869 l 624 869 l 624 764 l 1132 764 m 1301 533 l 762 533 q 692 433 731 481 l 1243 433 q 1227 163 1243 292 q 1198 2 1211 33 q 1151 -50 1184 -28 q 1019 -72 1118 -72 q 953 -69 991 -72 l 926 3 q 996 1 958 1 q 1125 18 1110 1 q 1154 146 1140 36 q 1173 364 1168 256 l 1089 364 q 661 -66 991 116 l 611 -12 q 1008 364 909 143 l 880 364 q 507 68 754 197 l 457 126 q 791 364 658 214 l 619 364 q 435 236 557 307 l 392 296 q 679 533 583 393 l 496 533 l 496 603 l 1301 603 l 1301 533 z "},"攢":{"ha":1389,"x_min":94,"x_max":1308,"o":"m 1307 761 q 1265 668 1299 680 q 1197 656 1231 656 q 1104 734 1104 656 l 1104 856 l 1038 856 q 922 650 1029 716 l 878 696 q 975 856 968 747 l 882 856 l 882 911 l 1048 911 l 1048 993 l 940 993 q 908 946 931 972 l 850 971 q 935 1132 898 1030 l 994 1112 q 970 1050 984 1078 l 1048 1050 l 1048 1141 l 1112 1141 l 1112 1050 l 1264 1050 l 1264 993 l 1112 993 l 1112 911 l 1293 911 l 1293 856 l 1168 856 l 1168 741 q 1203 718 1168 718 q 1240 737 1233 718 q 1247 789 1247 757 l 1307 761 m 854 717 q 694 647 788 684 l 673 704 q 694 753 694 724 l 694 856 l 631 856 q 490 633 614 696 l 450 681 q 566 856 566 743 l 449 856 l 449 911 l 636 911 l 636 993 l 539 993 q 507 943 522 961 l 450 968 q 529 1135 498 1039 l 586 1117 q 564 1050 580 1086 l 636 1050 l 636 1141 l 700 1141 l 700 1050 l 823 1050 l 823 993 l 700 993 l 700 911 l 833 911 l 833 856 l 757 856 l 757 741 q 844 781 791 754 l 854 717 m 443 562 q 310 485 384 525 l 310 20 q 282 -47 310 -27 q 190 -67 254 -67 q 135 -65 165 -67 l 104 5 q 218 4 136 4 q 240 32 240 4 l 240 450 q 118 390 201 427 l 94 457 q 240 525 165 486 l 240 814 l 96 814 l 96 882 l 240 882 l 240 1141 l 310 1141 l 310 882 l 410 882 l 410 814 l 310 814 l 310 562 q 428 631 367 590 l 443 562 m 1196 126 l 729 126 l 762 87 q 457 -72 650 -3 l 411 -14 q 701 126 606 52 l 528 126 l 528 618 l 1196 618 l 1196 126 m 1124 475 l 1124 557 l 599 557 l 599 475 l 1124 475 m 1124 329 l 1124 416 l 599 416 l 599 329 l 1124 329 m 1124 187 l 1124 272 l 599 272 l 599 187 l 1124 187 m 1308 -8 l 1272 -66 q 932 33 1140 -5 l 968 94 q 1308 -8 1183 51 z "},"支":{"ha":1389,"x_min":75,"x_max":1325,"o":"m 1325 0 l 1286 -68 q 703 131 913 3 q 129 -75 478 -12 l 75 -3 q 636 176 406 43 q 289 571 416 347 l 222 571 l 222 647 l 664 647 l 664 882 l 94 882 l 94 956 l 664 956 l 664 1154 l 736 1154 l 736 956 l 1304 956 l 1304 882 l 736 882 l 736 647 l 1116 647 l 1116 571 q 766 179 968 326 q 1325 0 959 65 m 1028 571 l 378 571 q 704 222 526 338 q 1028 571 907 367 z "},"敦":{"ha":1389,"x_min":93,"x_max":1315,"o":"m 770 947 l 96 947 l 96 1015 l 407 1015 q 345 1125 393 1047 l 408 1154 q 486 1015 444 1101 l 770 1015 l 770 947 m 1315 -16 l 1275 -75 q 1013 151 1131 -3 q 722 -71 888 16 l 676 -14 q 974 216 862 85 q 860 582 890 377 l 924 602 q 1017 282 956 412 q 1135 854 1131 455 l 943 854 q 781 541 876 684 l 720 585 q 945 1152 883 805 l 1013 1137 q 962 925 992 1023 l 1301 925 l 1301 854 l 1207 854 q 1059 211 1197 412 q 1315 -16 1145 77 m 677 591 l 174 591 l 174 857 l 677 857 l 677 591 m 606 663 l 606 790 l 245 790 l 245 663 l 606 663 m 757 216 q 469 176 591 189 l 469 37 q 444 -44 469 -22 q 380 -67 418 -66 q 250 -69 341 -69 l 227 3 q 312 1 267 1 q 390 9 379 1 q 401 39 401 18 l 401 167 q 113 140 294 155 l 93 210 q 401 235 252 216 l 401 314 q 570 431 485 366 l 132 431 l 132 500 l 672 500 l 672 431 q 469 281 589 363 l 469 243 q 757 286 573 253 l 757 216 z "},"斜":{"ha":1389,"x_min":89,"x_max":1304,"o":"m 750 831 l 693 778 q 447 1025 590 909 q 126 710 319 855 l 89 772 q 439 1147 319 947 l 509 1124 l 486 1083 q 750 831 646 956 m 1304 307 l 1182 285 l 1182 -74 l 1108 -74 l 1108 271 l 737 208 l 726 277 l 1108 342 l 1108 1146 l 1182 1146 l 1182 354 l 1299 374 l 1304 307 m 1038 808 l 978 761 q 766 978 911 853 l 818 1026 q 1038 808 925 942 m 724 458 l 468 458 l 468 49 q 442 -24 468 8 q 275 -50 416 -57 l 249 22 q 314 18 281 18 q 379 25 361 18 q 396 62 396 32 l 396 458 l 106 458 l 106 525 l 396 525 l 396 684 l 229 684 l 229 753 l 650 753 l 650 684 l 468 684 l 468 525 l 724 525 l 724 458 m 1002 490 l 950 437 q 732 657 869 546 l 782 711 q 1002 490 911 606 m 314 351 q 146 36 242 157 l 89 79 q 252 390 191 214 l 314 351 m 729 132 l 668 85 q 529 345 614 218 l 589 387 q 729 132 694 219 z "},"新":{"ha":1389,"x_min":82,"x_max":1293,"o":"m 725 436 l 444 436 l 444 -74 l 375 -74 l 375 436 l 92 436 l 92 503 l 375 503 l 375 639 l 107 639 l 107 708 l 277 708 q 204 914 264 773 l 253 947 l 117 947 l 117 1019 l 372 1019 q 314 1120 352 1067 l 380 1149 q 452 1019 414 1103 l 694 1019 l 694 947 l 583 947 l 635 916 q 549 708 610 839 l 710 708 l 710 639 l 444 639 l 444 503 l 725 503 l 725 436 m 562 947 l 273 947 q 353 708 329 812 l 469 708 q 562 947 528 825 m 1293 625 l 1143 625 l 1143 -75 l 1072 -75 l 1072 625 l 865 625 q 689 -79 865 161 l 631 -35 q 759 239 721 100 q 798 608 798 379 l 798 1025 q 1225 1143 1060 1061 l 1279 1086 q 867 965 1095 1001 l 867 694 l 1293 694 l 1293 625 m 684 170 l 619 131 q 524 328 587 216 l 582 361 q 684 170 640 273 m 301 325 q 143 40 236 159 l 82 82 q 237 357 160 176 l 301 325 z "},"斷":{"ha":1389,"x_min":138,"x_max":1301,"o":"m 829 715 l 777 694 l 760 742 q 568 703 696 726 l 555 755 q 673 903 629 832 q 568 886 606 889 l 554 930 q 672 1153 629 1036 l 730 1128 q 625 949 684 1022 q 705 960 662 951 q 758 1060 719 980 l 817 1035 q 640 772 738 878 q 741 793 692 779 q 724 829 736 811 l 775 852 q 829 715 807 793 m 525 1032 q 345 775 437 867 q 439 796 402 780 l 427 831 l 476 850 q 522 710 505 788 l 469 692 q 457 745 467 711 q 268 705 351 718 l 254 755 q 378 901 314 810 l 268 886 l 256 940 q 375 1149 328 1022 l 436 1128 q 326 949 382 1009 q 412 958 359 949 q 464 1059 433 994 l 525 1032 m 1301 672 l 1187 672 l 1187 -74 l 1120 -74 l 1120 672 l 958 672 q 848 -75 956 152 l 790 -40 q 892 602 892 195 l 892 1035 q 1249 1146 1077 1071 l 1287 1088 q 957 982 1193 1042 l 957 742 l 1301 742 l 1301 672 m 827 576 l 205 576 l 205 47 l 751 47 l 751 -18 l 138 -18 l 138 1120 l 205 1120 l 205 637 l 827 637 l 827 576 m 517 117 l 468 97 l 456 142 q 272 106 347 119 l 256 157 q 375 306 334 240 q 271 290 323 295 l 253 338 q 374 553 321 424 l 431 528 q 330 354 397 446 q 414 368 375 359 q 461 461 441 414 l 517 433 q 347 179 433 273 q 435 196 395 186 q 421 232 428 216 l 472 252 q 517 117 505 180 m 798 429 q 619 175 729 291 q 713 192 669 182 q 699 225 707 212 l 753 244 q 796 111 787 165 l 743 94 q 732 139 736 127 l 557 107 l 539 157 q 654 304 604 229 q 549 286 594 290 l 530 336 q 656 550 604 429 l 715 525 q 603 349 667 430 q 690 364 642 352 q 736 457 720 412 l 798 429 z "},"旁":{"ha":1389,"x_min":114,"x_max":1274,"o":"m 1274 596 l 1197 596 l 1197 718 l 199 718 l 199 596 l 127 596 l 127 786 l 457 786 q 351 957 419 871 l 146 957 l 144 1028 l 663 1028 q 590 1128 630 1082 l 667 1152 q 750 1028 709 1097 l 1257 1028 l 1257 957 l 1048 957 q 942 786 996 862 l 1274 786 l 1274 596 m 965 957 l 440 957 q 539 786 511 850 l 851 786 q 965 957 927 883 m 1190 468 l 517 468 q 503 332 515 427 l 1139 332 q 1064 0 1118 67 q 922 -66 1010 -66 q 703 -65 726 -66 l 673 5 q 840 1 768 1 q 957 9 932 1 q 1001 36 983 18 q 1037 123 1019 55 q 1059 264 1056 192 l 490 264 q 157 -75 408 39 l 114 -16 q 345 156 252 47 q 446 468 437 264 l 207 468 l 207 538 l 673 538 q 610 664 650 600 l 681 688 q 751 538 729 603 l 1190 538 l 1190 468 z "},"旋":{"ha":1389,"x_min":93,"x_max":1317,"o":"m 581 884 l 298 884 q 292 664 298 806 l 541 664 q 531 227 541 408 q 504 7 522 46 q 452 -50 487 -31 q 307 -68 417 -68 l 273 9 q 371 7 340 7 q 432 26 414 7 q 459 201 450 46 q 468 596 468 357 l 289 596 q 154 -72 266 149 l 93 -25 q 227 884 226 213 l 93 884 l 93 953 l 322 953 q 260 1121 296 1042 l 328 1152 q 396 953 374 1042 l 581 953 l 581 884 m 1303 896 l 733 896 q 570 700 665 791 l 518 753 q 789 1150 693 918 l 859 1125 q 777 965 813 1027 l 1303 965 l 1303 896 m 1317 31 l 1295 -45 q 910 9 1011 -39 q 722 182 808 56 q 606 -69 672 26 l 541 -29 q 703 526 678 155 l 775 517 q 743 279 766 383 q 920 81 806 147 l 920 664 l 652 664 l 652 733 l 1274 733 q 1171 457 1230 572 l 1104 493 q 1177 664 1144 568 l 990 664 l 990 385 l 1274 385 l 1274 314 l 990 314 l 990 56 q 1317 31 1069 31 z "},"既":{"ha":1389,"x_min":142,"x_max":1311,"o":"m 654 118 l 593 77 q 554 165 575 123 q 175 -8 319 45 l 142 66 q 164 114 164 81 l 164 1112 l 610 1112 l 610 489 l 235 489 l 235 94 q 521 229 404 162 q 425 378 489 289 l 488 414 q 654 118 597 267 m 536 843 l 536 1040 l 235 1040 l 235 843 l 536 843 m 536 561 l 536 772 l 235 772 l 235 561 l 536 561 m 1311 243 q 1291 61 1305 124 q 1241 -25 1276 -3 q 1112 -48 1206 -48 q 999 -18 1022 -48 q 975 54 975 12 l 975 468 q 631 -74 867 188 l 576 -25 q 935 566 844 268 l 707 566 l 751 1040 l 672 1040 l 672 1111 l 1249 1111 l 1249 1040 l 1092 1040 q 1026 636 1068 806 l 1291 636 l 1291 566 l 1007 566 q 981 486 997 527 l 1043 486 l 1043 58 q 1060 26 1043 35 q 1122 18 1076 18 q 1198 31 1178 18 q 1229 102 1219 45 q 1239 272 1239 159 l 1311 243 m 1018 1040 l 823 1040 l 786 636 l 954 636 q 1018 1040 992 774 z "},"日":{"ha":1389,"x_min":257,"x_max":1149,"o":"m 1149 -75 l 1071 -75 l 1071 47 l 338 47 l 338 -75 l 257 -75 l 257 1112 l 1149 1112 l 1149 -75 m 1071 624 l 1071 1038 l 338 1038 l 338 624 l 1071 624 m 1071 122 l 1071 550 l 338 550 l 338 122 l 1071 122 z "},"昆":{"ha":1389,"x_min":161,"x_max":1280,"o":"m 1145 596 l 237 596 l 237 1109 l 1145 1109 l 1145 596 m 1072 892 l 1072 1040 l 313 1040 l 313 892 l 1072 892 m 1072 667 l 1072 823 l 313 823 l 313 667 l 1072 667 m 1280 170 q 1249 13 1274 60 q 1188 -47 1223 -35 q 1018 -59 1153 -59 q 852 -54 907 -59 q 768 -17 797 -50 q 739 79 739 16 l 739 519 l 811 519 l 811 368 l 1210 368 l 1210 298 l 811 298 l 811 65 q 826 32 811 47 q 859 17 841 17 l 1120 14 q 1183 44 1164 14 q 1210 189 1202 74 l 1280 170 m 650 66 q 176 -62 438 -7 l 161 0 q 174 49 174 22 l 174 519 l 244 519 l 244 368 l 621 368 l 621 298 l 244 298 l 244 28 q 637 132 371 51 l 650 66 z "},"明":{"ha":1389,"x_min":136,"x_max":1258,"o":"m 1258 41 q 1236 -28 1258 1 q 1182 -66 1215 -58 q 977 -71 1149 -75 l 946 0 q 1048 -2 993 -2 q 1172 6 1157 -2 q 1187 35 1187 15 l 1187 374 l 777 374 q 625 -75 735 83 l 559 -33 q 718 618 718 188 l 718 1112 l 1258 1112 l 1258 41 m 1187 787 l 1187 1043 l 793 1043 l 793 787 l 1187 787 m 1187 444 l 1187 718 l 793 718 q 785 444 793 578 l 1187 444 m 551 123 l 479 123 l 479 216 l 208 216 l 208 89 l 136 89 l 136 1086 l 551 1086 l 551 123 m 479 696 l 479 1015 l 208 1015 l 208 696 l 479 696 m 479 288 l 479 624 l 208 624 l 208 288 l 479 288 z "},"星":{"ha":1389,"x_min":92,"x_max":1307,"o":"m 1193 636 l 225 636 l 225 1109 l 1193 1109 l 1193 636 m 1120 913 l 1120 1042 l 298 1042 l 298 913 l 1120 913 m 1120 704 l 1120 842 l 298 842 l 298 704 l 1120 704 m 1307 -37 l 96 -37 l 96 31 l 693 31 l 693 186 l 252 186 l 252 257 l 693 257 l 693 407 l 309 407 q 155 254 238 320 l 92 301 q 363 607 237 406 l 433 579 q 359 475 398 522 l 693 475 l 693 587 l 765 587 l 765 475 l 1244 475 l 1244 407 l 765 407 l 765 257 l 1210 257 l 1210 186 l 765 186 l 765 31 l 1307 31 l 1307 -37 z "},"是":{"ha":1389,"x_min":85,"x_max":1314,"o":"m 1129 650 l 275 650 l 275 1111 l 1129 1111 l 1129 650 m 1053 920 l 1053 1043 l 350 1043 l 350 920 l 1053 920 m 1053 718 l 1053 847 l 350 847 l 350 718 l 1053 718 m 1314 20 l 1289 -49 l 831 -49 q 541 -2 652 -49 q 339 151 430 44 q 139 -65 270 47 l 85 -12 q 382 411 305 155 l 453 393 q 378 215 429 301 q 682 29 515 45 l 682 471 l 94 471 l 94 541 l 1304 541 l 1304 471 l 754 471 l 754 293 l 1227 293 l 1227 224 l 754 224 l 754 24 q 892 20 816 20 l 1314 20 z "},"智":{"ha":1389,"x_min":90,"x_max":1272,"o":"m 755 781 l 472 781 q 458 742 468 761 q 750 568 625 660 l 705 513 q 429 684 575 610 q 143 465 327 528 l 90 522 q 395 781 326 601 l 125 781 l 125 847 l 415 847 q 433 983 428 895 l 288 983 q 179 882 236 925 l 121 926 q 326 1150 256 1031 l 393 1126 q 343 1051 356 1065 l 722 1051 l 722 983 l 505 983 q 489 847 498 909 l 755 847 l 755 781 m 1272 600 l 814 600 l 814 1050 l 1272 1050 l 1272 600 m 1200 669 l 1200 982 l 886 982 l 886 669 l 1200 669 m 1156 -71 l 1083 -71 l 1083 16 l 319 16 l 319 -72 l 248 -72 l 248 475 l 1156 475 l 1156 -71 m 1083 278 l 1083 406 l 319 406 l 319 278 l 1083 278 m 1083 85 l 1083 210 l 319 210 l 319 85 l 1083 85 z "},"暈":{"ha":1389,"x_min":94,"x_max":1301,"o":"m 1173 807 l 218 807 l 218 1111 l 1173 1111 l 1173 807 m 1103 987 l 1103 1054 l 290 1054 l 290 987 l 1103 987 m 1103 863 l 1103 933 l 290 933 l 290 863 l 1103 863 m 1301 35 l 734 35 l 734 -68 l 663 -68 l 663 35 l 94 35 l 94 92 l 663 92 l 663 170 l 221 170 l 221 475 l 663 475 l 663 547 l 265 547 l 265 603 l 663 603 l 663 679 l 197 679 l 197 534 l 126 534 l 126 736 l 1270 736 l 1270 534 l 1200 534 l 1200 677 l 734 677 l 734 603 l 1126 603 l 1126 547 l 734 547 l 734 475 l 1175 475 l 1175 170 l 734 170 l 734 92 l 1301 92 l 1301 35 m 1104 350 l 1104 419 l 734 419 l 734 350 l 1104 350 m 663 350 l 663 419 l 292 419 l 292 350 l 663 350 m 1104 225 l 1104 296 l 734 296 l 734 225 l 1104 225 m 663 225 l 663 296 l 292 296 l 292 225 l 663 225 z "},"曲":{"ha":1389,"x_min":172,"x_max":1231,"o":"m 1231 -74 l 1160 -74 l 1160 17 l 243 17 l 243 -72 l 172 -72 l 172 945 l 497 945 l 497 1145 l 571 1145 l 571 945 l 831 945 l 831 1145 l 903 1145 l 903 945 l 1231 945 l 1231 -74 m 1160 529 l 1160 872 l 903 872 l 903 529 l 1160 529 m 831 529 l 831 872 l 571 872 l 571 529 l 831 529 m 497 529 l 497 872 l 243 872 l 243 529 l 497 529 m 1160 90 l 1160 456 l 903 456 l 903 90 l 1160 90 m 831 90 l 831 456 l 571 456 l 571 90 l 831 90 m 497 90 l 497 456 l 243 456 l 243 90 l 497 90 z "},"最":{"ha":1389,"x_min":78,"x_max":1304,"o":"m 1118 711 l 1047 711 l 1047 1043 l 343 1043 l 343 711 l 272 711 l 272 1111 l 1118 1111 l 1118 711 m 960 892 l 427 892 l 427 960 l 960 960 l 960 892 m 960 739 l 427 739 l 427 806 l 960 806 l 960 739 m 1299 571 l 677 571 l 677 -69 l 608 -69 l 608 82 q 104 20 332 39 l 78 86 q 205 97 111 87 l 205 571 l 92 571 l 92 637 l 1299 637 l 1299 571 m 608 481 l 608 571 l 275 571 l 275 481 l 608 481 m 608 313 l 608 412 l 275 412 l 275 313 l 608 313 m 608 154 l 608 248 l 275 248 l 275 107 q 608 154 486 130 m 1304 -16 l 1268 -75 q 1015 66 1129 -23 q 766 -69 890 -27 l 718 -18 q 960 110 846 25 q 760 410 830 242 l 733 410 l 733 478 l 1243 478 q 1068 113 1201 249 q 1304 -16 1160 39 m 1158 410 l 836 410 q 1014 157 903 261 q 1158 410 1109 250 z "},"會":{"ha":1389,"x_min":86,"x_max":1315,"o":"m 1315 872 l 1284 806 q 922 929 1059 860 l 922 875 l 473 875 l 473 928 q 123 793 326 851 l 86 856 q 685 1154 459 952 l 765 1131 q 743 1109 750 1116 q 1315 872 962 945 m 889 942 q 690 1065 783 997 q 504 942 600 996 l 889 942 m 1178 450 l 214 450 l 214 791 l 1178 791 l 1178 450 m 1107 517 l 1107 725 l 733 725 l 733 517 l 1107 517 m 1002 672 q 897 550 954 601 l 843 589 q 943 696 899 633 l 1002 672 m 660 517 l 660 725 l 285 725 l 285 517 l 660 517 m 545 587 l 493 549 q 389 667 447 610 l 441 701 q 545 587 499 655 m 1117 -69 l 1047 -69 l 1047 -11 l 350 -11 l 350 -69 l 277 -69 l 277 370 l 1117 370 l 1117 -69 m 1047 212 l 1047 302 l 350 302 l 350 212 l 1047 212 m 1047 56 l 1047 149 l 350 149 l 350 56 l 1047 56 z "},"月":{"ha":1389,"x_min":90,"x_max":1183,"o":"m 1183 36 q 1164 -32 1183 -9 q 1116 -62 1145 -56 q 984 -68 1086 -68 q 867 -65 920 -68 l 835 8 q 978 4 916 4 q 1091 15 1074 4 q 1108 50 1108 26 l 1108 371 l 351 371 q 151 -78 334 107 l 90 -22 q 235 199 186 66 q 283 575 283 332 l 283 1112 l 1183 1112 l 1183 36 m 1108 783 l 1108 1039 l 358 1039 l 358 783 l 1108 783 m 1108 444 l 1108 710 l 358 710 q 355 444 360 638 l 1108 444 z "},"期":{"ha":1389,"x_min":97,"x_max":1249,"o":"m 766 921 l 646 921 l 646 349 l 751 349 l 751 281 l 97 281 l 97 349 l 236 349 l 236 921 l 118 921 l 118 989 l 236 989 l 236 1146 l 310 1146 l 310 989 l 572 989 l 572 1146 l 646 1146 l 646 989 l 766 989 l 766 921 m 572 782 l 572 921 l 310 921 l 310 782 l 572 782 m 572 568 l 572 713 l 310 713 l 310 568 l 572 568 m 572 349 l 572 500 l 310 500 l 310 349 l 572 349 m 1249 24 q 1216 -46 1249 -22 q 1089 -70 1183 -70 q 1015 -66 1053 -70 l 989 9 q 1107 3 1060 3 q 1177 40 1177 3 l 1177 375 l 892 375 q 736 -72 869 117 l 673 -24 q 794 223 759 83 q 829 616 829 363 l 829 1116 l 1249 1116 l 1249 24 m 1177 779 l 1177 1044 l 901 1044 l 901 779 l 1177 779 m 1177 444 l 1177 710 l 900 710 q 896 444 904 587 l 1177 444 m 382 196 q 176 -62 303 60 l 117 -12 q 322 237 243 107 l 382 196 m 664 62 l 604 16 q 482 186 557 104 l 534 232 q 664 62 610 153 z "},"木":{"ha":1389,"x_min":86,"x_max":1317,"o":"m 1317 172 l 1268 110 q 741 770 930 312 l 741 -75 l 665 -75 l 665 765 q 135 113 439 313 l 86 172 q 603 808 406 388 l 102 808 l 102 880 l 665 880 l 665 1149 l 741 1149 l 741 880 l 1299 880 l 1299 808 l 804 808 q 1317 172 973 366 z "},"本":{"ha":1389,"x_min":87,"x_max":1315,"o":"m 1315 192 l 1264 134 q 746 836 902 400 l 746 243 l 1048 243 l 1048 171 l 746 171 l 746 -78 l 669 -78 l 669 171 l 359 171 l 359 243 l 669 243 l 669 836 q 459 446 580 605 q 135 138 339 288 l 87 199 q 589 836 469 476 l 121 836 l 121 908 l 669 908 l 669 1146 l 746 1146 l 746 908 l 1279 908 l 1279 836 l 827 836 q 1315 192 964 444 z "},"朱":{"ha":1389,"x_min":90,"x_max":1307,"o":"m 1307 89 l 1265 22 q 739 471 938 180 l 739 -74 l 663 -74 l 663 465 q 129 17 471 197 l 90 85 q 621 532 430 262 l 109 532 l 109 603 l 663 603 l 663 857 l 323 857 q 195 685 259 753 l 136 733 q 378 1128 296 918 l 450 1107 q 367 929 410 1008 l 663 929 l 663 1145 l 739 1145 l 739 929 l 1193 929 l 1193 857 l 739 857 l 739 603 l 1291 603 l 1291 532 l 783 532 q 1307 89 951 263 z "},"束":{"ha":1389,"x_min":90,"x_max":1307,"o":"m 1307 41 l 1258 -24 q 739 378 932 127 l 739 -75 l 667 -75 l 667 383 q 136 -20 452 118 l 90 41 q 611 422 425 184 l 207 422 l 207 775 l 667 775 l 667 933 l 110 933 l 110 1002 l 667 1002 l 667 1147 l 739 1147 l 739 1002 l 1293 1002 l 1293 933 l 739 933 l 739 775 l 1194 775 l 1194 422 l 793 422 q 1307 41 983 174 m 1120 493 l 1120 705 l 739 705 l 739 493 l 1120 493 m 667 493 l 667 705 l 282 705 l 282 493 l 667 493 z "},"杼":{"ha":1389,"x_min":86,"x_max":1291,"o":"m 587 473 l 533 422 q 397 632 474 530 l 397 -69 l 323 -69 l 323 640 q 123 281 227 422 l 86 358 q 319 827 218 532 l 111 827 l 111 896 l 323 896 l 323 1146 l 397 1146 l 397 896 l 587 896 l 587 827 l 397 827 l 397 737 q 587 473 524 587 m 1291 661 q 1169 321 1255 471 l 1108 358 q 1202 591 1171 472 l 954 591 l 954 47 q 921 -46 954 -23 q 803 -69 887 -69 q 675 -66 761 -69 l 650 9 q 833 4 790 4 q 882 36 882 4 l 882 591 l 574 591 l 574 661 l 987 661 q 685 876 876 771 l 732 932 q 908 818 825 879 q 1135 1040 1053 924 l 602 1040 l 602 1109 l 1215 1109 l 1215 1040 q 966 774 1133 901 q 1060 690 1040 714 l 1032 661 l 1291 661 z "},"枕":{"ha":1389,"x_min":82,"x_max":1308,"o":"m 1246 597 l 1175 597 l 1175 880 l 930 880 q 835 356 919 581 q 564 -77 751 131 l 500 -32 q 859 880 850 343 l 667 880 l 667 597 l 596 597 l 596 951 l 859 951 q 861 1143 861 1048 l 936 1143 q 932 951 939 1045 l 1246 951 l 1246 597 m 614 509 l 566 450 q 397 667 492 568 l 397 -66 l 326 -66 l 326 631 q 122 268 232 403 l 82 335 q 182 479 134 399 q 278 676 229 559 q 326 803 326 793 l 326 818 l 129 818 l 129 889 l 326 889 l 326 1141 l 397 1141 l 397 889 l 543 889 l 543 818 l 397 818 l 397 755 q 614 509 528 634 m 1308 297 q 1295 124 1308 213 q 1265 6 1282 35 q 1218 -37 1249 -22 q 1107 -52 1187 -52 q 1011 -43 1037 -52 q 966 -9 986 -34 q 946 50 946 15 l 946 589 l 1018 589 l 1018 71 q 1036 34 1018 46 q 1113 22 1054 22 q 1197 37 1181 22 q 1225 138 1213 52 q 1235 322 1238 223 l 1308 297 z "},"柱":{"ha":1389,"x_min":86,"x_max":1304,"o":"m 1304 -41 l 539 -41 l 539 28 l 888 28 l 888 397 l 624 397 l 624 464 l 888 464 l 888 819 l 615 819 l 615 886 l 890 886 q 793 1120 868 971 l 859 1149 q 966 886 937 991 l 1265 886 l 1265 819 l 964 819 l 964 464 l 1225 464 l 1225 397 l 964 397 l 964 28 l 1304 28 l 1304 -41 m 608 536 l 554 489 q 407 675 444 639 l 407 -69 l 338 -69 l 338 656 q 138 314 248 458 l 86 375 q 335 821 222 538 l 121 821 l 121 889 l 338 889 l 338 1147 l 407 1147 l 407 889 l 559 889 l 559 821 l 407 821 l 407 772 q 608 536 534 652 z "},"根":{"ha":1389,"x_min":87,"x_max":1311,"o":"m 564 526 l 507 473 q 392 668 460 574 l 392 -68 l 318 -68 l 318 607 q 136 297 236 433 l 87 358 q 315 787 255 585 l 123 787 l 123 861 l 318 861 l 318 1145 l 392 1145 l 392 861 l 559 861 l 559 787 l 392 787 l 392 782 q 564 526 488 666 m 1208 570 l 703 570 l 703 24 q 946 114 798 49 l 961 43 q 639 -74 785 -31 l 604 -5 q 629 43 629 12 l 629 1109 l 1208 1109 l 1208 570 m 1135 879 l 1135 1040 l 703 1040 l 703 879 l 1135 879 m 1135 642 l 1135 808 l 703 808 l 703 642 l 1135 642 m 1311 -29 l 1255 -82 q 886 472 947 151 l 950 490 q 1013 313 979 373 q 1218 493 1121 380 l 1282 452 q 1046 244 1182 336 q 1311 -29 1136 99 z "},"梁":{"ha":1389,"x_min":83,"x_max":1314,"o":"m 469 1017 l 435 954 q 195 1076 344 1015 l 232 1139 q 469 1017 362 1088 m 1314 754 l 1264 696 q 1135 835 1214 764 q 1102 592 1118 630 q 1052 538 1085 555 q 968 522 1019 522 q 863 524 894 522 l 836 599 q 929 595 886 595 q 1017 604 1003 595 q 1038 632 1030 612 q 1058 787 1046 651 q 1071 1038 1071 922 l 864 1038 q 770 732 859 873 q 534 518 682 591 l 489 576 q 685 733 612 640 q 505 895 606 824 l 553 946 q 725 798 644 885 q 793 1038 781 898 l 524 1038 l 524 1107 l 1143 1107 q 1137 924 1145 1027 q 1314 754 1253 827 m 380 831 l 351 766 q 110 864 255 820 l 140 930 q 380 831 283 885 m 446 682 q 138 469 269 534 l 111 538 q 422 754 254 616 l 446 682 m 1299 339 l 733 339 l 733 -71 l 660 -71 l 660 339 l 103 339 l 103 410 l 660 410 l 660 524 l 733 524 l 733 410 l 1299 410 l 1299 339 m 1314 22 l 1261 -33 q 859 231 1095 101 l 908 285 q 1314 22 1145 159 m 564 232 q 127 -36 382 81 l 83 26 q 511 282 348 148 l 564 232 z "},"條":{"ha":1389,"x_min":90,"x_max":1301,"o":"m 1301 575 l 1265 511 q 916 644 1045 566 q 590 517 792 564 l 551 581 q 850 686 727 617 q 707 829 771 750 l 758 873 q 914 726 839 776 q 1089 960 1026 812 l 749 960 q 614 791 694 870 l 566 847 q 777 1160 694 966 l 844 1137 q 790 1031 823 1080 l 1284 1031 l 1284 960 l 1162 960 q 978 689 1091 781 q 1301 575 1124 611 m 387 1143 q 351 994 375 1082 l 326 911 l 326 -65 l 256 -65 l 256 742 q 132 528 213 642 l 90 596 q 321 1156 250 840 l 387 1143 m 515 135 l 447 135 l 447 972 l 515 972 l 515 135 m 1283 371 l 953 371 l 953 -66 l 884 -66 l 884 371 l 576 371 l 576 439 l 884 439 l 884 564 l 953 564 l 953 439 l 1283 439 l 1283 371 m 811 248 q 572 -33 698 60 l 517 20 q 751 286 648 112 l 811 248 m 1291 22 l 1236 -26 q 1040 236 1179 90 l 1092 283 q 1291 22 1224 151 z "},"椎":{"ha":1389,"x_min":83,"x_max":1301,"o":"m 1301 24 l 700 24 l 700 -68 l 631 -68 l 631 750 q 557 643 595 693 l 500 693 q 732 1157 655 903 l 800 1136 q 704 893 756 1005 l 950 893 q 867 1120 925 1002 l 930 1149 q 1022 893 994 1013 l 1271 893 l 1271 822 l 1002 822 l 1002 637 l 1254 637 l 1254 570 l 1002 570 l 1002 368 l 1254 368 l 1254 297 l 1002 297 l 1002 92 l 1301 92 l 1301 24 m 929 637 l 929 822 l 700 822 l 700 637 l 929 637 m 929 368 l 929 570 l 700 570 l 700 368 l 929 368 m 929 92 l 929 297 l 700 297 l 700 92 l 929 92 m 558 525 l 505 472 q 375 653 434 592 l 375 -68 l 301 -68 l 301 635 q 136 310 227 447 l 83 367 q 297 832 222 567 l 109 832 l 109 900 l 301 900 l 301 1145 l 375 1145 l 375 900 l 530 900 l 530 832 l 375 832 l 375 745 q 558 525 455 669 z "},"極":{"ha":1389,"x_min":83,"x_max":1303,"o":"m 490 568 l 446 507 q 330 660 404 582 l 330 -68 l 265 -68 l 265 619 q 127 302 203 433 l 83 370 q 261 831 191 547 l 100 831 l 100 899 l 265 899 l 265 1145 l 330 1145 l 330 899 l 471 899 l 471 831 l 330 831 l 330 757 q 490 568 427 662 m 1287 1044 l 900 1044 q 779 842 848 930 l 909 842 q 914 586 914 708 q 888 144 914 200 q 737 87 862 87 q 700 89 718 87 l 681 158 q 741 155 713 155 q 824 178 805 155 q 843 627 843 200 q 842 772 843 704 l 694 772 l 694 838 q 825 1044 774 930 l 485 1044 l 485 1109 l 1287 1109 l 1287 1044 m 1303 207 l 1249 161 q 1153 404 1204 300 q 985 167 1085 273 l 936 216 q 1114 479 1044 332 q 954 755 1063 587 l 996 789 l 951 789 l 951 856 l 1254 856 q 1186 485 1245 635 q 1303 207 1262 336 m 1182 789 l 1013 789 q 1145 570 1074 696 q 1182 789 1175 673 m 745 258 l 517 258 l 517 689 l 745 689 l 745 258 m 677 323 l 677 621 l 583 621 l 583 323 l 677 323 m 1301 -37 l 457 -37 l 457 26 l 1301 26 l 1301 -37 z "},"榮":{"ha":1389,"x_min":97,"x_max":1299,"o":"m 665 734 l 621 682 q 408 831 500 783 q 174 668 345 731 l 131 730 q 290 806 224 761 q 377 922 356 850 q 397 1139 397 993 l 467 1139 q 460 994 469 1090 q 621 1101 537 1031 l 664 1044 q 446 909 571 966 l 441 893 q 665 734 593 801 m 1275 729 l 1232 675 q 974 825 1119 757 q 739 677 899 738 l 697 737 q 916 872 863 804 q 964 1137 968 940 l 1035 1137 q 1028 986 1037 1067 q 1226 1109 1106 1020 l 1272 1060 q 1017 907 1163 968 q 1008 886 1011 892 q 1275 729 1181 800 m 880 942 l 819 909 q 726 1082 779 1005 l 786 1120 q 880 942 838 1042 m 296 942 l 235 905 q 138 1076 208 968 l 196 1109 q 296 942 259 1037 m 1253 433 l 1182 433 l 1182 555 l 214 555 l 214 433 l 140 433 l 140 625 l 1253 625 l 1253 433 m 1287 306 l 736 306 l 736 -71 l 661 -71 l 661 306 l 109 306 l 109 374 l 661 374 l 661 493 l 736 493 l 736 374 l 1287 374 l 1287 306 m 543 174 q 146 -46 427 66 l 97 18 q 492 222 338 98 l 543 174 m 1299 7 l 1254 -49 q 856 163 1115 53 l 909 221 q 1299 7 1196 85 z "},"樞":{"ha":1389,"x_min":85,"x_max":1304,"o":"m 529 515 l 473 472 q 349 669 398 608 l 349 -69 l 279 -69 l 279 604 q 135 315 213 437 l 85 370 q 275 787 193 530 l 104 787 l 104 857 l 279 857 l 279 1149 l 349 1149 l 349 857 l 494 857 l 494 787 l 349 787 l 349 774 q 529 515 447 660 m 1304 1044 l 637 1044 l 637 77 q 693 26 637 26 l 1300 26 l 1300 -37 l 667 -37 q 596 -7 625 -37 q 568 69 568 23 l 568 1044 l 510 1044 l 510 1111 l 1304 1111 l 1304 1044 m 1202 654 l 772 654 l 772 920 l 1202 920 l 1202 654 m 1135 717 l 1135 859 l 839 859 l 839 717 l 1135 717 m 1250 154 l 1025 154 l 1025 553 l 1250 553 l 1250 154 m 1186 215 l 1186 492 l 1088 492 l 1088 215 l 1186 215 m 947 154 l 728 154 l 728 553 l 947 553 l 947 154 m 885 215 l 885 492 l 791 492 l 791 215 l 885 215 z "},"機":{"ha":1389,"x_min":83,"x_max":1314,"o":"m 1314 149 q 1271 -27 1299 33 q 1192 -86 1242 -86 q 993 103 1101 -86 q 725 -64 880 7 l 676 -8 q 962 161 838 51 q 879 411 900 291 l 625 411 l 616 328 q 812 192 732 267 l 772 134 q 607 260 720 191 q 433 -79 564 60 l 370 -35 q 551 411 539 115 l 428 411 l 428 481 l 865 481 q 821 1150 825 814 l 892 1147 q 939 481 901 696 l 1079 481 q 1046 546 1074 493 l 1103 570 q 1152 481 1130 536 l 1300 481 l 1300 411 l 951 411 q 1017 215 966 321 q 1137 380 1084 284 l 1192 346 q 1043 153 1126 235 q 1116 41 1072 94 q 1185 -13 1161 -13 q 1221 23 1205 -13 q 1253 182 1237 60 l 1314 149 m 471 564 l 416 518 q 330 657 377 590 l 330 -71 l 258 -71 l 258 619 q 123 298 182 401 l 83 375 q 257 827 189 560 l 94 827 l 94 896 l 258 896 l 258 1150 l 330 1150 l 330 896 l 433 896 l 433 827 l 330 827 l 330 753 q 471 564 404 663 m 819 559 l 757 542 q 746 606 755 566 q 492 578 598 592 l 481 628 q 628 821 570 734 l 484 799 l 465 859 q 607 1140 559 1015 l 669 1111 q 546 875 627 1013 q 679 896 612 881 q 745 1008 709 939 l 804 975 q 574 653 704 806 q 729 668 642 656 q 700 761 720 717 l 761 778 q 819 559 798 694 m 1300 564 l 1238 545 q 1222 610 1234 567 q 972 576 1109 597 l 954 636 q 1097 821 1042 740 q 957 799 1040 814 l 936 859 q 1075 1131 1022 997 l 1137 1103 q 1017 875 1080 982 q 1149 896 1059 880 q 1210 994 1175 934 l 1270 964 q 1051 653 1195 837 l 1203 671 q 1178 746 1192 718 l 1239 765 q 1300 564 1276 674 z "},"橫":{"ha":1389,"x_min":82,"x_max":1307,"o":"m 498 530 l 450 471 q 353 665 401 587 l 353 -65 l 281 -65 l 281 611 q 129 309 216 441 l 82 366 q 278 794 214 578 l 106 794 l 106 861 l 281 861 l 281 1143 l 353 1143 l 353 861 l 486 861 l 486 794 l 353 794 l 353 765 q 498 530 427 679 m 1289 981 l 1111 981 l 1111 814 l 650 814 l 650 981 l 492 981 l 492 1046 l 650 1046 l 650 1141 l 721 1141 l 721 1046 l 1039 1046 l 1039 1141 l 1111 1141 l 1111 1046 l 1289 1046 l 1289 981 m 1039 879 l 1039 981 l 721 981 l 721 879 l 1039 879 m 1303 657 l 482 657 l 482 725 l 1303 725 l 1303 657 m 1238 155 l 539 155 l 539 561 l 1238 561 l 1238 155 m 1166 396 l 1166 494 l 922 494 l 922 396 l 1166 396 m 852 396 l 852 494 l 607 494 l 607 396 l 852 396 m 1166 222 l 1166 328 l 922 328 l 922 222 l 1166 222 m 852 222 l 852 328 l 607 328 l 607 222 l 852 222 m 1307 -4 l 1264 -65 q 983 56 1118 13 l 1026 115 q 1307 -4 1185 62 m 789 62 q 485 -64 680 -6 l 446 4 q 742 115 638 55 l 789 62 z "},"次":{"ha":1389,"x_min":94,"x_max":1308,"o":"m 1272 844 q 1240 757 1272 831 q 1181 633 1208 684 q 1122 535 1154 583 q 1053 441 1090 488 l 994 486 q 1192 844 1120 640 l 673 844 q 500 574 589 667 l 446 625 q 700 1141 606 798 l 774 1124 q 703 918 738 1006 l 1272 918 l 1272 844 m 510 878 l 126 878 l 126 951 l 510 951 l 510 878 m 1308 -14 l 1265 -77 q 814 432 910 155 q 386 -71 714 132 l 339 -8 q 592 197 488 76 q 736 431 697 319 q 775 746 775 544 l 848 746 q 845 673 845 714 q 890 426 845 527 q 1030 215 936 325 q 1308 -14 1124 106 m 549 361 l 94 361 l 94 432 l 549 432 l 549 361 z "},"止":{"ha":1389,"x_min":94,"x_max":1305,"o":"m 1305 -35 l 94 -35 l 94 36 l 313 36 l 313 924 l 385 924 l 385 36 l 734 36 l 734 1147 l 807 1147 l 807 717 l 1244 717 l 1244 644 l 807 644 l 807 36 l 1305 36 l 1305 -35 z "},"正":{"ha":1389,"x_min":93,"x_max":1307,"o":"m 1307 -37 l 93 -37 l 93 35 l 302 35 l 302 782 l 376 782 l 376 35 l 689 35 l 689 1042 l 121 1042 l 121 1112 l 1268 1112 l 1270 1042 l 764 1042 l 764 606 l 1222 606 l 1222 532 l 764 532 l 764 35 l 1307 35 l 1307 -37 z "},"步":{"ha":1389,"x_min":93,"x_max":1305,"o":"m 1305 643 l 747 643 l 747 196 l 676 196 l 676 643 l 93 643 l 93 714 l 318 714 l 318 1063 l 390 1063 l 390 714 l 676 714 l 676 1149 l 749 1149 l 749 971 l 1193 971 l 1193 901 l 749 901 l 749 714 l 1305 714 l 1305 643 m 532 485 q 147 180 376 297 l 97 236 q 472 530 360 371 l 532 485 m 1214 486 q 831 72 1054 186 q 249 -66 608 -43 l 211 4 q 783 123 567 18 q 1149 519 998 228 l 1214 486 z "},"歷":{"ha":1389,"x_min":98,"x_max":1305,"o":"m 1304 1039 l 275 1039 l 275 481 q 157 -75 275 153 l 98 -31 q 204 623 204 194 l 204 1105 l 1304 1105 l 1304 1039 m 1296 447 l 1251 395 q 1044 568 1160 494 l 1044 342 l 977 342 l 977 582 q 800 397 899 465 l 749 441 q 975 694 887 543 l 823 694 l 823 758 l 977 758 l 977 868 q 842 861 886 861 l 812 924 q 1198 972 1021 926 l 1240 916 q 1044 878 1135 887 l 1044 758 l 1292 758 l 1292 694 l 1044 694 l 1044 653 q 1296 447 1204 545 m 791 558 l 755 501 q 618 589 689 549 l 618 342 l 551 342 l 551 586 q 359 387 463 456 l 313 435 q 547 694 453 531 l 335 694 l 335 758 l 551 758 l 551 875 q 376 860 446 863 l 345 921 q 737 972 553 927 l 775 918 q 618 885 696 894 l 618 758 l 766 758 l 766 694 l 618 694 l 618 664 q 791 558 716 612 m 1305 9 l 1305 -52 l 292 -52 l 292 9 l 489 9 l 489 289 l 558 289 l 558 9 l 777 9 l 777 347 l 846 347 l 846 237 l 1211 237 l 1211 175 l 846 175 l 846 9 l 1305 9 z "},"歸":{"ha":1389,"x_min":89,"x_max":1301,"o":"m 611 83 q 109 -33 367 15 l 89 32 q 160 46 134 40 l 160 450 l 227 450 l 227 58 q 350 86 288 69 l 350 507 l 150 507 l 150 1068 l 296 1068 q 345 1161 320 1108 l 414 1139 q 372 1068 400 1112 l 559 1068 l 559 839 l 220 839 l 220 754 l 581 754 l 581 507 l 418 507 l 418 374 l 590 374 l 590 309 l 418 309 l 418 103 q 611 154 496 119 l 611 83 m 489 905 l 489 1003 l 220 1003 l 220 905 l 489 905 m 511 574 l 511 689 l 220 689 l 220 574 l 511 574 m 1301 875 l 1210 875 l 1210 694 l 688 694 l 688 758 l 1140 758 l 1140 875 l 624 875 l 624 940 l 1140 940 l 1140 1048 l 688 1048 l 688 1112 l 1210 1112 l 1210 940 l 1301 940 l 1301 875 m 1286 443 l 1215 443 l 1215 538 l 996 538 l 996 401 l 1219 401 l 1219 81 q 1074 -1 1219 -13 l 1051 65 q 1103 63 1080 63 q 1152 93 1152 63 l 1152 338 l 996 338 l 996 -66 l 926 -66 l 926 338 l 765 338 l 765 1 l 696 1 l 696 401 l 926 401 l 926 538 l 705 538 l 705 443 l 633 443 l 633 604 l 1286 604 l 1286 443 z "},"殷":{"ha":1389,"x_min":82,"x_max":1303,"o":"m 694 1083 q 264 996 489 1021 l 264 892 l 654 892 l 654 471 l 258 471 q 253 353 258 418 l 637 353 q 616 87 637 192 q 560 -43 595 -17 q 437 -68 524 -68 q 334 -64 399 -68 l 307 5 q 426 -1 368 -1 q 509 8 499 -1 q 528 26 519 18 q 550 124 537 35 q 566 286 564 214 l 248 286 q 142 -71 222 98 l 82 -17 q 192 566 192 164 l 192 1054 q 654 1141 457 1079 l 694 1083 m 583 720 l 583 825 l 264 825 l 264 720 l 583 720 m 583 538 l 583 654 l 264 654 l 264 538 l 583 538 m 1299 654 l 1174 654 q 1080 746 1080 654 l 1080 1042 l 882 1042 q 844 758 880 850 q 742 612 808 665 l 686 661 q 812 1109 827 755 l 1150 1109 l 1150 751 q 1161 731 1150 741 q 1179 721 1172 721 l 1299 721 l 1299 654 m 1303 -17 l 1257 -75 q 987 94 1112 -13 q 685 -75 847 -19 l 639 -14 q 933 146 802 35 q 762 482 821 271 l 717 482 l 717 550 l 1219 550 q 1039 146 1171 303 q 1303 -17 1147 51 m 1135 482 l 836 482 q 986 196 886 302 q 1135 482 1086 307 z "},"氏":{"ha":1389,"x_min":179,"x_max":1321,"o":"m 1321 241 q 1218 0 1274 80 q 1084 -81 1163 -81 q 998 -56 1037 -81 q 901 57 960 -31 q 800 276 843 144 q 732 593 758 408 l 269 593 l 269 29 q 705 174 461 81 l 720 102 q 203 -78 378 -20 l 179 11 q 199 52 199 22 l 199 1039 q 1129 1143 749 1046 l 1182 1080 q 786 1006 994 1031 q 784 922 784 964 q 799 663 784 809 l 1276 663 l 1276 593 l 807 593 q 932 147 850 302 q 1087 -7 1014 -7 q 1136 14 1115 -7 q 1194 111 1158 35 q 1254 290 1230 186 l 1321 241 m 725 663 q 710 996 710 811 q 269 965 536 976 l 269 663 l 725 663 z "},"氣":{"ha":1389,"x_min":92,"x_max":1307,"o":"m 1286 962 l 379 962 q 143 717 292 836 l 92 777 q 412 1154 315 947 l 482 1131 q 425 1031 459 1080 l 1286 1031 l 1286 962 m 1208 789 l 387 789 l 387 856 l 1208 856 l 1208 789 m 1307 205 q 1252 1 1286 77 q 1165 -75 1217 -75 q 1067 51 1090 -75 q 1044 323 1044 176 l 1044 611 l 208 611 l 208 679 l 1117 679 l 1117 325 q 1131 101 1117 194 q 1168 7 1144 7 q 1180 13 1175 7 q 1207 92 1185 18 q 1242 245 1230 165 l 1307 205 m 443 443 l 383 399 q 215 525 315 463 l 273 575 q 443 443 373 515 m 914 530 q 757 390 838 448 l 697 436 q 850 571 770 487 l 914 530 m 983 289 l 603 289 l 603 -65 l 533 -65 l 533 289 l 117 289 l 117 357 l 533 357 l 533 566 l 603 566 l 603 357 l 983 357 l 983 289 m 450 175 q 146 -41 332 62 l 94 24 q 399 227 286 115 l 450 175 m 1013 12 l 958 -45 q 699 168 812 97 l 753 220 q 1013 12 916 108 z "},"水":{"ha":1389,"x_min":89,"x_max":1311,"o":"m 1311 118 l 1261 53 q 753 611 925 267 l 753 32 q 735 -37 753 -15 q 692 -65 718 -60 q 581 -71 667 -71 q 476 -68 512 -71 l 452 7 q 643 3 592 3 q 679 39 679 3 l 679 1149 l 753 1149 l 753 848 q 822 635 753 747 q 1179 975 1055 813 l 1239 926 q 859 570 1094 746 q 1311 118 982 325 m 581 832 q 140 46 510 333 l 89 104 q 493 758 418 362 l 142 758 l 142 832 l 581 832 z "},"池":{"ha":1389,"x_min":102,"x_max":1303,"o":"m 1303 227 q 1272 45 1300 108 q 1194 -36 1244 -18 q 910 -53 1143 -53 q 659 -48 703 -53 q 589 -16 615 -44 q 564 52 564 13 l 564 646 l 431 606 l 422 679 l 564 721 l 564 1025 l 633 1025 l 633 741 l 871 810 l 871 1150 l 940 1150 l 940 831 l 1264 929 q 1160 321 1253 547 l 1093 345 q 1189 831 1178 552 l 940 757 l 940 193 l 871 193 l 871 734 l 633 665 l 633 62 q 658 27 633 35 q 911 18 683 18 q 1174 32 1145 18 q 1217 110 1202 45 q 1231 252 1231 176 l 1303 227 m 472 965 l 429 907 q 182 1084 307 1014 l 222 1143 q 472 965 345 1075 m 395 608 l 351 546 q 103 722 252 645 l 147 781 q 395 608 302 696 m 453 390 q 154 -71 296 87 l 102 -18 q 397 437 263 172 l 453 390 z "},"污":{"ha":1389,"x_min":103,"x_max":1308,"o":"m 469 945 l 424 886 q 157 1072 334 977 l 203 1131 q 469 945 363 1043 m 1250 1034 l 509 1034 l 509 1107 l 1250 1107 l 1250 1034 m 1308 726 l 771 726 l 699 493 l 1226 493 q 1181 174 1213 314 q 1124 -2 1149 33 q 1044 -56 1099 -38 q 834 -74 989 -74 q 761 -72 793 -74 l 736 5 q 895 -5 820 -5 q 1055 23 1027 -5 q 1111 173 1084 50 q 1145 421 1139 296 l 600 421 l 693 726 l 444 726 l 444 794 l 1308 794 l 1308 726 m 432 614 l 386 550 q 103 725 273 644 l 143 785 q 432 614 310 709 m 429 397 q 155 -52 345 184 l 104 1 q 370 443 294 236 l 429 397 z "},"沖":{"ha":1389,"x_min":85,"x_max":1247,"o":"m 1247 345 l 903 345 l 903 -69 l 831 -69 l 831 345 l 489 345 l 489 905 l 831 905 l 831 1146 l 903 1146 l 903 905 l 1247 905 l 1247 345 m 1175 418 l 1175 835 l 903 835 l 903 418 l 1175 418 m 831 418 l 831 835 l 561 835 l 561 418 l 831 418 m 452 965 l 407 907 q 165 1089 302 1008 l 208 1145 q 452 965 317 1085 m 395 599 l 349 542 q 86 728 243 644 l 134 787 q 395 599 309 685 m 392 400 q 143 -74 296 151 l 85 -24 q 330 441 224 175 l 392 400 z "},"泉":{"ha":1389,"x_min":98,"x_max":1304,"o":"m 1304 22 l 1257 -40 q 739 401 899 130 l 739 33 q 715 -36 739 -11 q 647 -64 690 -61 q 528 -66 604 -66 l 473 -66 l 452 4 q 624 0 508 0 q 667 47 667 0 l 667 550 l 215 550 l 215 1014 l 614 1014 q 686 1152 658 1086 l 764 1137 q 701 1014 721 1046 l 1183 1014 l 1183 550 l 739 550 q 935 267 768 435 q 1177 479 1080 370 l 1232 431 q 987 215 1162 348 q 1304 22 1107 115 m 1111 817 l 1111 945 l 289 945 l 289 817 l 1111 817 m 1111 618 l 1111 747 l 289 747 l 289 618 l 1111 618 m 571 358 q 523 281 571 344 q 433 175 475 218 q 344 94 391 132 q 250 24 298 56 q 153 -35 201 -8 l 98 24 q 490 358 345 140 l 115 358 l 115 425 l 571 425 l 571 358 z "},"泌":{"ha":1389,"x_min":85,"x_max":1300,"o":"m 399 962 l 346 911 q 118 1089 220 1027 l 171 1141 q 399 962 296 1061 m 958 890 l 909 839 q 583 1082 775 970 l 627 1139 q 958 890 806 1036 m 1207 1053 q 707 227 975 476 l 707 56 q 734 21 707 33 q 901 9 762 9 q 1047 24 1016 9 q 1091 126 1078 39 q 1105 275 1104 214 l 1174 253 q 1159 102 1175 184 q 1122 -9 1143 19 q 1063 -48 1100 -38 q 905 -58 1025 -58 q 683 -40 730 -58 q 635 41 635 -23 l 635 160 q 386 -29 546 87 l 336 28 q 635 260 526 150 l 635 846 l 707 846 l 707 329 q 1143 1084 936 557 l 1207 1053 m 376 616 l 326 564 q 107 739 230 659 l 157 793 q 376 616 290 706 m 562 728 q 429 301 523 509 l 368 339 q 497 746 449 512 l 562 728 m 1300 328 l 1234 297 q 1092 671 1185 494 l 1160 700 q 1300 328 1258 503 m 335 353 q 142 -78 250 113 l 85 -26 q 269 387 191 159 l 335 353 z "},"法":{"ha":1389,"x_min":86,"x_max":1305,"o":"m 1305 518 l 869 518 q 567 43 722 224 q 1125 138 865 76 q 975 355 1053 259 l 1036 392 q 1301 -35 1216 151 l 1240 -78 q 1161 77 1202 14 q 476 -36 854 8 l 447 39 q 607 205 511 65 q 785 518 703 346 l 444 518 l 444 587 l 843 587 l 843 861 l 509 861 l 509 930 l 843 930 l 843 1146 l 914 1146 l 914 930 l 1243 930 l 1243 861 l 914 861 l 914 587 l 1305 587 l 1305 518 m 418 962 l 367 911 q 142 1090 271 1010 l 187 1145 q 418 962 322 1062 m 392 618 l 340 562 q 111 743 264 648 l 155 800 q 392 618 323 694 m 393 397 q 147 -68 267 101 l 86 -24 q 335 437 213 147 l 393 397 z "},"泣":{"ha":1389,"x_min":98,"x_max":1303,"o":"m 1303 -39 l 380 -39 l 380 33 l 647 33 q 559 796 638 370 l 612 819 l 472 819 l 472 892 l 857 892 q 768 1125 831 988 l 839 1145 q 932 892 895 1025 l 1282 892 l 1282 819 l 1143 819 l 1189 793 q 1021 33 1120 389 l 1303 33 l 1303 -39 m 1116 819 l 632 819 q 725 33 712 387 l 943 33 q 1116 819 1053 420 m 447 951 l 399 895 q 150 1092 304 993 l 204 1143 q 447 951 337 1059 m 406 632 l 358 574 q 107 754 246 676 l 160 812 q 406 632 296 730 m 422 392 q 157 -71 311 145 l 98 -22 q 358 433 257 201 l 422 392 z "},"注":{"ha":1389,"x_min":93,"x_max":1301,"o":"m 1301 -37 l 414 -37 l 414 35 l 838 35 l 838 432 l 514 432 l 514 504 l 838 504 l 838 839 l 479 839 l 479 911 l 850 911 q 760 1129 813 1038 l 832 1147 q 924 911 901 1006 l 1291 911 l 1291 839 l 909 839 l 909 504 l 1242 504 l 1242 432 l 909 432 l 909 35 l 1301 35 l 1301 -37 m 441 960 l 387 904 q 146 1089 291 997 l 191 1146 q 441 960 317 1072 m 408 637 l 363 582 q 110 757 254 670 l 153 815 q 408 637 281 745 m 421 404 q 151 -75 271 90 l 93 -24 q 357 450 228 155 l 421 404 z "},"泰":{"ha":1389,"x_min":81,"x_max":1321,"o":"m 1321 322 l 1276 260 q 1061 390 1167 313 q 889 264 964 303 l 835 319 q 1004 435 930 370 q 867 600 911 525 l 529 600 q 406 457 474 524 q 597 311 512 385 l 542 262 q 353 406 460 342 q 121 248 253 316 l 81 311 q 437 600 328 460 l 111 600 l 111 668 l 484 668 q 547 781 519 719 l 208 781 l 208 848 l 576 848 q 616 949 603 902 l 158 949 l 158 1018 l 637 1018 q 668 1149 649 1060 l 741 1137 q 714 1018 726 1069 l 1242 1018 l 1242 949 l 693 949 q 657 848 673 884 l 1200 848 l 1200 781 l 631 781 q 571 668 590 699 l 1293 668 l 1293 600 l 953 600 q 1321 322 1072 437 m 757 54 q 715 -52 757 -33 q 510 -72 673 -72 l 478 3 q 547 1 513 1 q 667 10 649 1 q 685 43 685 19 l 685 513 l 757 513 l 757 54 m 1284 17 l 1238 -41 q 850 161 1063 83 l 899 220 q 1284 17 1116 127 m 589 153 q 163 -41 368 35 l 127 28 q 558 218 370 109 l 589 153 z "},"津":{"ha":1389,"x_min":87,"x_max":1303,"o":"m 390 953 l 342 899 q 114 1093 227 1016 l 163 1146 q 390 953 271 1076 m 1303 745 l 1196 745 l 1196 519 l 848 519 l 848 395 l 1221 395 l 1221 326 l 848 326 l 848 189 l 1268 189 l 1268 121 l 848 121 l 848 -71 l 779 -71 l 779 121 l 380 121 l 380 189 l 779 189 l 779 326 l 421 326 l 421 395 l 779 395 l 779 519 l 440 519 l 440 590 l 779 590 l 779 745 l 354 745 l 354 812 l 779 812 l 779 950 l 440 950 l 440 1018 l 779 1018 l 779 1141 l 848 1141 l 848 1018 l 1196 1018 l 1196 812 l 1303 812 l 1303 745 m 1124 812 l 1124 950 l 848 950 l 848 812 l 1124 812 m 1124 590 l 1124 745 l 848 745 l 848 590 l 1124 590 m 366 582 l 314 528 q 93 729 228 629 l 143 782 q 366 582 268 692 m 358 375 q 149 -75 269 123 l 87 -26 q 294 414 211 178 l 358 375 z "},"流":{"ha":1389,"x_min":89,"x_max":1307,"o":"m 1307 570 l 1246 522 q 1162 635 1213 575 q 452 566 753 587 l 433 637 q 714 929 594 725 l 424 929 l 424 1002 l 755 1002 q 821 1150 782 1052 l 896 1131 q 839 1002 883 1096 l 1284 1002 l 1284 929 l 802 929 q 570 647 699 746 q 1107 696 836 664 q 983 815 1050 760 l 1040 864 q 1307 570 1198 725 m 385 958 l 336 900 q 131 1092 211 1036 l 179 1149 q 385 958 302 1050 m 359 586 l 309 532 q 90 715 214 632 l 135 772 q 359 586 274 675 m 1301 -56 l 1117 -56 q 1013 43 1013 -56 l 1013 513 l 1083 513 l 1083 53 q 1125 16 1083 16 l 1301 16 l 1301 -56 m 832 -72 l 760 -72 l 760 513 l 832 513 l 832 -72 m 597 513 q 556 145 597 265 q 379 -72 515 25 l 322 -18 q 465 131 401 27 q 524 513 528 235 l 597 513 m 363 375 q 150 -77 286 153 l 89 -26 q 296 414 208 161 l 363 375 z "},"浮":{"ha":1389,"x_min":98,"x_max":1311,"o":"m 414 968 l 368 911 q 147 1092 288 1001 l 199 1149 q 414 968 331 1059 m 1242 1074 q 476 961 969 998 l 449 1032 q 1208 1140 868 1054 l 1242 1074 m 1258 942 q 1101 682 1188 789 l 1035 718 q 1193 966 1122 814 l 1258 942 m 920 724 l 854 701 q 761 914 818 814 l 831 936 q 920 724 890 831 m 653 708 l 586 682 q 473 895 555 770 l 539 917 q 653 708 609 825 m 372 595 l 325 539 q 98 717 244 625 l 146 771 q 372 595 273 701 m 1311 273 l 917 273 l 917 36 q 897 -29 917 -3 q 854 -63 877 -55 q 749 -71 831 -71 q 640 -66 694 -71 l 616 5 q 825 7 806 2 q 844 36 844 13 l 844 273 l 444 273 l 444 343 l 844 343 l 844 432 q 1086 564 1034 528 l 485 564 l 485 635 l 1226 635 l 1226 567 q 917 390 1063 462 l 917 343 l 1311 343 l 1311 273 m 401 393 q 155 -68 283 104 l 100 -20 q 340 435 220 148 l 401 393 z "},"海":{"ha":1389,"x_min":90,"x_max":1300,"o":"m 1283 930 l 582 930 q 449 761 523 842 l 387 806 q 624 1150 538 964 l 689 1121 q 625 1000 661 1059 l 1283 1000 l 1283 930 m 418 971 l 370 913 q 139 1088 288 991 l 186 1147 q 418 971 311 1069 m 1300 436 l 1183 436 l 1168 189 l 1272 189 l 1272 118 l 1161 118 q 1099 -27 1146 20 q 944 -74 1053 -74 l 842 -74 l 817 -3 l 979 -3 q 1086 118 1070 -3 l 465 118 q 519 436 507 351 l 397 436 l 397 507 l 526 507 q 561 807 550 680 l 1196 807 q 1187 507 1192 594 l 1300 507 l 1300 436 m 1122 737 l 628 737 q 600 507 621 669 l 1116 507 l 1122 737 m 977 590 l 929 536 q 749 647 836 606 l 794 703 q 977 590 910 644 m 1111 436 l 590 436 q 551 189 576 326 l 1093 189 q 1111 436 1105 318 m 962 279 l 917 224 q 730 342 820 298 l 772 403 q 962 279 882 342 m 370 597 l 321 539 q 93 710 226 632 l 140 768 q 370 597 280 680 m 372 358 q 153 -68 272 118 l 90 -21 q 307 400 202 130 l 372 358 z "},"消":{"ha":1389,"x_min":85,"x_max":1291,"o":"m 457 968 l 411 908 q 147 1093 297 1009 l 193 1153 q 457 968 345 1067 m 1238 65 q 1190 -44 1238 -20 q 1053 -68 1142 -68 l 966 -68 l 935 4 q 1048 3 1002 3 q 1147 13 1131 3 q 1164 54 1164 24 l 1164 311 q 608 136 845 203 l 576 180 q 449 -71 536 32 l 389 -25 q 530 407 530 140 l 530 729 l 852 729 l 852 1146 l 924 1146 l 924 729 l 1238 729 l 1238 65 m 1164 389 l 1164 663 l 603 663 l 603 549 q 1065 472 869 523 l 1042 403 q 603 476 852 451 q 582 204 605 323 q 1164 389 865 277 m 1291 1055 q 1108 796 1211 911 l 1042 831 q 1226 1095 1138 933 l 1291 1055 m 733 833 l 675 794 q 482 1050 586 939 l 545 1092 q 733 833 663 962 m 389 597 l 343 538 q 94 715 238 630 l 138 777 q 389 597 295 682 m 419 395 q 142 -56 302 146 l 85 -7 q 357 437 228 172 l 419 395 z "},"涌":{"ha":1389,"x_min":86,"x_max":1258,"o":"m 431 964 l 385 903 q 147 1084 296 994 l 191 1143 q 431 964 372 1025 m 1258 8 q 1234 -46 1258 -21 q 1170 -73 1211 -71 q 1029 -75 1130 -75 l 1008 -3 q 1165 3 1143 -6 q 1187 31 1187 12 l 1187 241 l 901 241 l 901 -52 l 828 -52 l 828 241 l 543 241 l 543 -72 l 473 -72 l 473 790 l 823 790 q 624 949 718 892 l 686 997 q 868 844 808 902 q 1137 1038 1011 928 l 473 1038 l 473 1107 l 1247 1107 l 1247 1038 q 920 790 1118 921 l 1258 790 l 1258 8 m 1187 553 l 1187 718 l 901 718 l 901 553 l 1187 553 m 828 553 l 828 718 l 543 718 l 543 553 l 828 553 m 1187 311 l 1187 484 l 901 484 l 901 311 l 1187 311 m 828 311 l 828 484 l 543 484 l 543 311 l 828 311 m 390 591 l 342 530 q 96 711 216 644 l 139 772 q 390 591 321 656 m 400 389 q 149 -72 252 67 l 86 -22 q 334 436 226 161 l 400 389 z "},"涎":{"ha":1389,"x_min":81,"x_max":1311,"o":"m 376 981 l 329 922 q 129 1090 248 1013 l 174 1149 q 376 981 305 1057 m 1286 196 l 710 196 l 710 264 l 804 264 l 804 839 l 876 839 l 876 264 l 1014 264 l 1014 1010 q 770 990 904 995 l 743 1064 q 1234 1146 988 1056 l 1275 1082 q 1086 1028 1198 1052 l 1086 710 l 1263 710 l 1263 640 l 1086 640 l 1086 264 l 1286 264 l 1286 196 m 1311 14 l 1280 -60 q 765 4 890 -46 q 567 136 640 54 q 355 -79 483 18 l 306 -28 q 521 193 450 73 q 390 545 429 336 l 457 572 q 554 277 492 385 q 624 652 612 418 l 418 652 l 418 720 q 612 1039 548 906 l 410 1039 l 410 1109 l 694 1109 l 694 1039 q 503 720 576 835 l 697 720 q 600 201 684 387 q 794 65 667 117 q 1311 14 920 14 m 359 624 l 317 567 q 90 733 242 642 l 132 790 q 359 624 273 709 m 347 400 q 143 -72 264 123 l 81 -20 q 282 440 208 168 l 347 400 z "},"液":{"ha":1389,"x_min":92,"x_max":1305,"o":"m 1301 940 l 414 940 l 414 1010 l 829 1010 q 765 1126 821 1032 l 832 1153 q 907 1010 863 1114 l 1301 1010 l 1301 940 m 361 972 l 310 917 q 119 1093 222 1024 l 171 1147 q 361 972 261 1087 m 1305 -20 l 1264 -81 q 965 113 1084 4 q 672 -75 852 20 l 625 -14 q 911 163 811 75 q 739 429 806 279 q 657 355 706 391 l 623 416 q 903 892 806 572 l 972 871 q 928 747 948 800 l 1251 747 q 1019 163 1219 362 q 1305 -20 1113 75 m 1174 676 l 897 676 q 867 612 884 643 q 1107 432 994 534 q 1174 676 1147 535 m 1075 367 q 831 551 963 474 q 789 490 801 505 q 965 212 861 321 q 1075 367 1037 283 m 684 868 q 547 587 631 724 l 547 -69 l 478 -69 l 478 484 q 385 389 444 441 l 336 444 q 618 890 491 575 l 684 868 m 340 611 l 293 551 q 92 730 233 632 l 132 789 q 340 611 253 713 m 338 346 q 154 -68 266 104 l 93 -24 q 275 383 200 141 l 338 346 z "},"淵":{"ha":1389,"x_min":85,"x_max":1258,"o":"m 375 977 l 325 924 q 129 1099 252 1013 l 176 1152 q 375 977 302 1061 m 1258 -77 l 1189 -77 l 1189 339 l 991 339 l 991 -71 l 922 -71 l 922 408 l 1189 408 l 1189 572 l 514 572 l 507 408 l 774 408 l 774 -71 l 703 -71 l 703 339 l 497 339 q 358 -69 470 96 l 304 -20 q 443 599 443 187 l 443 1146 l 514 1146 l 514 867 l 705 867 l 705 1128 l 777 1128 l 777 798 l 514 798 l 514 642 l 1189 642 l 1189 798 l 924 798 l 924 1128 l 994 1128 l 994 867 l 1189 867 l 1189 1140 l 1258 1140 l 1258 -77 m 361 606 l 321 545 q 102 730 229 642 l 143 793 q 361 606 286 690 m 335 383 q 140 -68 257 103 l 85 -22 q 268 425 200 155 l 335 383 z "},"清":{"ha":1389,"x_min":96,"x_max":1300,"o":"m 387 971 l 340 916 q 118 1095 250 1007 l 157 1152 q 387 971 300 1069 m 1300 639 l 392 639 l 392 704 l 807 704 l 807 814 l 463 814 l 463 878 l 807 878 l 807 975 l 431 975 l 431 1043 l 807 1043 l 807 1145 l 878 1145 l 878 1043 l 1284 1043 l 1284 975 l 878 975 l 878 876 l 1247 876 l 1247 814 l 878 814 l 878 704 l 1300 704 l 1300 639 m 366 610 l 318 551 q 96 746 217 667 l 140 804 q 366 610 244 736 m 1206 65 q 1176 -32 1206 -3 q 1098 -63 1146 -60 q 895 -65 1050 -67 l 867 5 q 985 1 906 1 q 1079 3 1057 1 q 1117 19 1101 5 q 1133 50 1133 33 l 1133 149 l 534 149 q 410 -71 504 30 l 354 -21 q 489 359 489 113 l 489 553 l 1206 553 l 1206 65 m 1132 386 l 1132 485 l 561 485 l 561 386 l 1132 386 m 1132 215 l 1132 321 l 558 321 q 551 215 558 287 l 1132 215 m 350 399 q 155 -62 265 115 l 96 -20 q 282 429 205 162 l 350 399 z "},"渚":{"ha":1389,"x_min":89,"x_max":1304,"o":"m 433 965 l 389 903 q 135 1096 275 1017 l 183 1153 q 433 965 321 1075 m 1304 671 l 997 671 q 818 515 912 584 l 1208 515 l 1208 -71 l 1136 -71 l 1136 -4 l 675 -4 l 675 -71 l 603 -71 l 603 390 q 475 339 526 356 l 433 397 q 895 671 708 499 l 431 671 l 431 737 l 755 737 l 755 908 l 486 908 l 486 977 l 755 977 l 755 1141 l 827 1141 l 827 977 l 1054 977 l 1054 908 l 827 908 l 827 737 l 968 737 q 1213 1071 1076 850 l 1272 1038 q 1061 737 1180 880 l 1304 737 l 1304 671 m 1136 292 l 1136 450 l 711 450 q 675 431 684 433 l 675 292 l 1136 292 m 1136 64 l 1136 224 l 675 224 l 675 64 l 1136 64 m 383 587 l 340 522 q 89 713 267 601 l 126 774 q 383 587 256 702 m 404 380 q 160 -78 295 90 l 103 -32 q 338 412 236 136 l 404 380 z "},"渠":{"ha":1389,"x_min":97,"x_max":1301,"o":"m 457 1013 l 419 951 q 186 1090 318 1030 l 228 1152 q 457 1013 368 1083 m 1289 501 l 463 501 l 463 568 l 575 568 l 575 1044 l 485 1044 l 485 1112 l 1284 1112 l 1284 1044 l 644 1044 l 644 935 l 1203 935 l 1203 681 l 644 681 l 644 568 l 1289 568 l 1289 501 m 1133 747 l 1133 871 l 644 871 l 644 747 l 1133 747 m 374 804 l 342 743 q 110 882 218 828 l 149 940 q 374 804 294 867 m 494 664 q 134 475 312 544 l 107 539 q 473 733 253 595 l 494 664 m 1301 311 l 733 311 l 733 -72 l 663 -72 l 663 311 l 97 311 l 97 379 l 663 379 l 663 464 l 733 464 l 733 379 l 1301 379 l 1301 311 m 546 193 q 164 -40 342 34 l 110 18 q 486 240 288 85 l 546 193 m 1287 9 l 1238 -47 q 857 175 1092 67 l 905 232 q 1287 9 1144 123 z "},"溜":{"ha":1389,"x_min":90,"x_max":1284,"o":"m 832 713 l 777 675 l 751 717 q 453 581 587 629 l 418 633 q 439 697 439 659 l 439 1042 q 743 1149 586 1074 l 775 1089 q 510 989 644 1025 l 510 676 q 720 772 602 707 q 639 876 682 827 l 690 918 q 832 713 779 821 m 378 956 l 323 908 q 129 1101 254 1001 l 178 1147 q 378 956 305 1050 m 1284 1092 q 1272 821 1283 961 q 1246 647 1261 680 q 1200 592 1232 613 q 1108 570 1167 570 q 1038 572 1081 570 l 1014 646 q 1091 640 1052 640 q 1180 677 1164 640 q 1213 1021 1197 714 l 1040 1021 q 851 554 1023 705 l 799 602 q 970 1021 956 728 l 843 1021 l 843 1092 l 1284 1092 m 363 599 l 317 546 q 90 732 224 644 l 138 785 q 363 599 285 690 m 1236 -72 l 1164 -72 l 1164 -11 l 528 -11 l 528 -72 l 457 -72 l 457 503 l 1236 503 l 1236 -72 m 1164 282 l 1164 436 l 885 436 l 885 282 l 1164 282 m 814 282 l 814 436 l 528 436 l 528 282 l 814 282 m 1164 58 l 1164 214 l 885 214 l 885 58 l 1164 58 m 814 58 l 814 214 l 528 214 l 528 58 l 814 58 m 368 376 q 161 -62 279 118 l 93 -31 q 307 408 216 151 l 368 376 z "},"溝":{"ha":1389,"x_min":89,"x_max":1308,"o":"m 382 962 l 335 911 q 125 1099 248 1006 l 176 1150 q 382 962 313 1044 m 1308 160 l 1218 160 l 1218 45 q 1187 -41 1218 -12 q 1108 -69 1156 -69 l 974 -69 l 943 -5 l 1095 -5 q 1132 8 1116 -5 q 1149 39 1149 22 l 1149 160 l 571 160 l 571 -72 l 500 -72 l 500 160 l 372 160 l 372 224 l 500 224 l 500 557 l 822 557 l 822 660 l 393 660 l 393 724 l 654 724 l 654 827 l 452 827 l 452 889 l 654 889 l 654 982 l 429 982 l 429 1043 l 654 1043 l 654 1141 l 722 1141 l 722 1043 l 993 1043 l 993 1141 l 1061 1141 l 1061 1043 l 1287 1043 l 1287 981 l 1061 981 l 1061 889 l 1260 889 l 1260 827 l 1061 827 l 1061 724 l 1307 724 l 1307 660 l 890 660 l 890 557 l 1218 557 l 1218 224 l 1308 224 l 1308 160 m 993 889 l 993 981 l 722 981 l 722 889 l 993 889 m 993 724 l 993 827 l 722 827 l 722 724 l 993 724 m 1149 389 l 1149 496 l 890 496 l 890 389 l 1149 389 m 822 389 l 822 496 l 571 496 l 571 389 l 822 389 m 1149 224 l 1149 328 l 890 328 l 890 224 l 1149 224 m 822 224 l 822 328 l 571 328 l 571 224 l 822 224 m 366 608 l 318 551 q 89 733 231 637 l 139 786 q 366 608 250 715 m 378 370 q 151 -72 271 104 l 98 -24 q 313 401 218 154 l 378 370 z "},"溪":{"ha":1389,"x_min":89,"x_max":1301,"o":"m 383 958 l 335 911 q 129 1101 233 1025 l 178 1153 q 383 958 296 1059 m 1240 1088 q 440 986 918 983 l 408 1057 q 520 1055 465 1055 q 1210 1145 902 1055 l 1240 1088 m 1240 977 q 1097 770 1178 852 l 1035 804 q 1178 1003 1122 896 l 1240 977 m 895 831 l 831 814 q 770 951 799 903 l 835 970 q 895 831 870 917 m 621 796 l 557 765 q 452 921 510 857 l 513 956 q 621 796 567 895 m 1280 395 l 1218 361 q 1181 421 1208 381 q 421 368 834 380 l 408 425 q 787 572 623 489 q 437 551 581 555 l 424 611 q 793 808 661 690 l 861 775 q 603 623 777 698 q 774 632 694 625 q 956 669 921 645 q 1050 743 991 692 l 1117 707 q 635 436 947 566 q 1143 478 913 445 q 1063 576 1109 527 l 1128 610 q 1280 395 1207 517 m 364 606 l 319 551 q 89 742 229 648 l 138 794 q 364 606 278 699 m 351 390 q 157 -62 296 183 l 93 -29 q 290 418 229 197 l 351 390 m 1300 220 l 842 220 q 404 -69 773 -1 l 371 -4 q 766 220 697 48 l 376 220 l 376 288 l 785 288 q 794 350 794 323 l 865 350 q 859 288 865 311 l 1300 288 l 1300 220 m 1301 -21 l 1251 -71 q 895 115 1098 32 l 946 167 q 1301 -21 1185 66 z "},"溫":{"ha":1389,"x_min":86,"x_max":1304,"o":"m 416 950 l 367 899 q 135 1093 278 995 l 182 1149 q 416 950 336 1040 m 1171 600 l 496 600 l 496 1105 l 1171 1105 l 1171 600 m 1103 668 l 1103 1039 l 568 1039 l 568 668 l 1103 668 m 1051 762 l 1010 715 q 832 850 941 781 q 684 708 753 752 l 631 751 q 828 1003 789 852 l 890 993 q 861 905 882 945 q 1051 762 976 836 m 382 600 l 336 546 q 86 728 235 638 l 134 781 q 382 600 274 700 m 1304 -45 l 335 -45 l 335 24 l 464 24 l 464 471 l 1213 471 l 1213 24 l 1303 24 l 1304 -45 m 1143 24 l 1143 400 l 985 400 l 985 24 l 1143 24 m 914 24 l 914 400 l 755 400 l 755 24 l 914 24 m 686 24 l 686 400 l 534 400 l 534 24 l 686 24 m 378 390 q 155 -79 280 106 l 96 -40 q 313 419 210 128 l 378 390 z "},"滑":{"ha":1389,"x_min":85,"x_max":1275,"o":"m 419 964 l 370 911 q 143 1095 271 1017 l 189 1152 q 419 964 332 1064 m 1275 507 l 1204 507 l 1204 677 l 488 677 l 488 507 l 415 507 l 415 745 l 515 745 l 515 1112 l 1173 1112 l 1173 745 l 1275 745 l 1275 507 m 1099 932 l 1099 1044 l 587 1044 l 587 745 l 762 745 l 762 932 l 1099 932 m 1099 745 l 1099 864 l 833 864 l 833 745 l 1099 745 m 363 608 l 319 554 q 85 739 229 650 l 134 789 q 363 608 275 701 m 1140 33 q 1122 -28 1140 -3 q 1077 -62 1104 -54 q 965 -71 1050 -71 q 895 -69 929 -71 l 871 0 l 1040 3 q 1072 37 1072 3 l 1072 208 q 611 90 801 120 l 586 146 q 453 -71 540 20 l 397 -26 q 524 200 491 70 q 557 562 557 330 l 1140 562 l 1140 33 m 1072 282 l 1072 493 l 627 493 q 624 419 627 463 q 968 370 808 413 l 942 304 q 621 354 787 344 q 591 160 614 233 q 1072 282 803 189 m 412 363 q 155 -78 307 121 l 104 -28 q 358 412 228 129 l 412 363 z "},"滿":{"ha":1389,"x_min":86,"x_max":1300,"o":"m 1300 949 l 1109 949 l 1109 758 l 892 758 l 892 646 l 1253 646 l 1253 20 q 1224 -44 1253 -16 q 1127 -72 1196 -72 l 1055 -72 l 1028 0 l 1154 1 q 1185 32 1185 1 l 1185 576 l 892 576 l 892 -69 l 823 -69 l 823 576 l 525 576 l 525 -69 l 458 -69 l 458 646 l 823 646 l 823 758 l 611 758 l 611 949 l 421 949 l 421 1018 l 611 1018 l 611 1140 l 681 1140 l 681 1018 l 1039 1018 l 1039 1140 l 1109 1140 l 1109 1018 l 1300 1018 l 1300 949 m 1039 825 l 1039 949 l 681 949 l 681 825 l 1039 825 m 389 933 l 340 876 q 135 1088 267 977 l 184 1140 q 389 933 311 1040 m 378 596 l 332 541 q 86 734 233 638 l 129 790 q 378 596 260 711 m 1158 121 l 1112 72 q 1035 257 1060 151 q 957 69 996 135 l 911 119 q 1008 416 981 245 l 947 416 l 947 481 l 1065 481 q 1158 121 1067 260 m 802 115 l 753 68 q 685 232 707 149 q 600 71 650 139 l 550 110 q 661 416 636 231 l 590 416 l 590 481 l 713 481 q 802 115 717 256 m 389 357 q 153 -71 261 68 l 93 -29 q 329 399 216 134 l 389 357 z "},"漏":{"ha":1389,"x_min":87,"x_max":1303,"o":"m 393 949 l 342 899 q 146 1096 271 997 l 196 1143 q 393 949 296 1071 m 1251 838 l 509 838 l 509 625 q 364 -71 509 196 l 307 -29 q 437 586 437 220 l 437 1109 l 1251 1109 l 1251 838 m 1181 905 l 1181 1043 l 509 1043 l 509 905 l 1181 905 m 359 612 l 317 555 q 87 743 224 657 l 135 800 q 359 612 268 713 m 1303 669 l 957 669 l 957 561 l 1255 561 l 1255 11 q 1232 -41 1255 -11 q 1140 -71 1208 -71 l 1069 -71 l 1043 -1 q 1170 5 1153 -5 q 1187 40 1187 16 l 1187 494 l 957 494 l 957 -71 l 889 -71 l 889 494 l 665 494 l 665 -72 l 597 -72 l 597 561 l 889 561 l 889 669 l 553 669 l 553 734 l 1303 734 l 1303 669 m 842 334 l 800 290 q 693 389 736 357 l 737 431 q 842 334 805 381 m 1150 382 q 1025 283 1101 330 l 986 335 q 1109 429 1057 375 l 1150 382 m 370 368 q 147 -71 273 106 l 90 -25 q 309 403 210 134 l 370 368 m 1153 122 l 1107 79 q 994 195 1065 136 l 1039 237 q 1153 122 1107 182 m 848 184 q 732 79 802 129 l 692 125 q 807 231 762 174 l 848 184 z "},"漿":{"ha":1389,"x_min":94,"x_max":1304,"o":"m 1250 978 q 566 751 968 778 l 533 817 q 909 880 763 828 q 724 993 844 932 q 567 940 638 956 l 530 999 q 896 1149 753 1048 l 962 1117 q 896 1069 941 1099 l 1250 1043 l 1250 978 m 1149 987 l 807 1014 q 985 907 901 968 q 1149 987 1063 935 m 478 437 l 407 437 l 407 693 l 268 693 q 147 447 250 543 l 94 497 q 199 693 191 585 l 97 693 l 97 762 l 407 762 l 407 888 l 172 888 l 172 1114 l 240 1114 l 240 957 l 407 957 l 407 1143 l 478 1143 l 478 437 m 621 861 l 615 916 q 755 937 684 920 l 758 882 q 621 861 682 864 m 1303 633 l 1165 633 l 1165 541 q 1138 456 1165 481 q 1036 431 1111 431 q 964 435 1010 431 l 937 510 q 1061 505 964 505 q 1095 551 1095 505 l 1095 633 l 538 633 l 538 701 l 1095 701 l 1095 821 l 1165 821 l 1165 701 l 1303 701 l 1303 633 m 895 522 l 846 464 q 665 553 758 520 l 711 608 q 895 522 801 574 m 1304 20 l 1257 -46 q 737 292 876 79 l 737 29 q 718 -34 737 -10 q 671 -65 698 -58 q 568 -73 644 -73 q 482 -69 520 -73 l 458 0 l 629 0 q 665 41 665 0 l 665 471 l 737 471 q 896 214 742 345 q 1169 403 1035 281 l 1223 354 q 957 168 1135 270 q 1304 20 1085 84 m 561 302 q 138 -36 426 94 l 94 28 q 473 302 351 127 l 123 302 l 123 371 l 561 371 l 561 302 z "},"澤":{"ha":1389,"x_min":93,"x_max":1307,"o":"m 415 966 l 370 905 q 161 1095 302 991 l 207 1146 q 415 966 334 1057 m 1307 104 l 907 104 l 907 -72 l 836 -72 l 836 104 l 414 104 l 414 172 l 836 172 l 836 292 l 493 292 l 493 357 l 692 357 q 627 492 669 417 l 440 492 l 440 559 l 838 559 l 838 668 l 513 668 l 513 736 l 838 736 l 838 833 l 478 833 l 478 1111 l 1258 1111 l 1258 833 l 909 833 l 909 736 l 1213 736 l 1213 668 l 909 668 l 909 559 l 1291 559 l 1291 492 l 1117 492 q 1046 357 1089 432 l 1232 357 l 1232 292 l 907 292 l 907 172 l 1307 172 l 1307 104 m 1186 901 l 1186 1042 l 1022 1042 l 1022 901 l 1186 901 m 953 901 l 953 1042 l 786 1042 l 786 901 l 953 901 m 715 901 l 715 1042 l 554 1042 l 554 901 l 715 901 m 1035 492 l 710 492 q 771 357 744 422 l 960 357 q 1035 492 996 404 m 355 603 l 311 539 q 93 732 249 618 l 139 787 q 355 603 260 703 m 361 368 q 163 -75 285 122 l 102 -32 q 297 404 219 151 l 361 368 z "},"濕":{"ha":1389,"x_min":82,"x_max":1304,"o":"m 397 978 l 351 924 q 123 1090 274 999 l 168 1147 q 397 978 305 1065 m 1229 743 l 461 743 l 461 1111 l 1229 1111 l 1229 743 m 1158 958 l 1158 1043 l 534 1043 l 534 958 l 1158 958 m 1158 807 l 1158 897 l 534 897 l 534 807 l 1158 807 m 368 615 l 328 557 q 87 732 222 657 l 129 790 q 368 615 258 715 m 840 229 l 777 201 q 750 275 760 251 q 436 231 589 245 l 415 281 q 632 478 555 379 l 436 449 l 412 504 q 590 720 500 580 l 659 692 q 528 529 639 658 q 694 555 576 532 q 745 623 727 597 l 808 590 q 558 313 705 438 q 720 338 669 326 q 694 390 707 372 l 755 418 q 840 229 811 329 m 1304 254 l 1247 216 l 1207 288 q 890 228 994 245 l 869 279 q 1064 468 979 364 q 886 446 1002 457 l 868 497 q 1017 717 944 578 l 1082 692 q 972 522 1038 596 q 1122 546 1044 531 q 1181 627 1139 562 l 1244 595 q 1010 318 1139 444 q 1165 346 1093 330 q 1150 367 1160 353 q 1137 385 1141 381 l 1193 421 q 1304 254 1251 356 m 361 379 q 144 -61 257 114 l 82 -20 q 293 404 185 127 l 361 379 m 1301 -24 l 1236 -57 q 1100 176 1168 83 l 1168 210 q 1301 -24 1246 92 m 519 174 q 395 -66 464 31 l 330 -31 q 454 204 394 55 l 519 174 m 1019 -43 l 947 -64 q 882 170 930 39 l 950 189 q 1019 -43 1000 50 m 736 -45 l 667 -60 q 640 171 665 38 l 710 180 q 736 -45 736 57 z "},"濟":{"ha":1389,"x_min":96,"x_max":1307,"o":"m 1303 979 l 406 979 l 406 1047 l 807 1047 q 762 1128 803 1058 l 832 1145 q 882 1047 864 1090 l 1303 1047 l 1303 979 m 334 986 l 288 933 q 106 1083 220 1003 l 147 1137 q 334 986 262 1061 m 996 937 q 878 750 945 843 l 878 488 l 812 488 l 812 741 q 713 935 772 838 l 761 974 q 846 804 800 908 q 942 972 896 873 l 996 937 m 1260 875 q 1038 794 1154 826 l 1038 603 q 1129 633 1078 613 l 1139 572 q 971 515 1046 540 l 949 566 q 974 611 974 589 l 974 843 q 1223 929 1131 880 l 1260 875 m 726 875 q 701 562 726 607 q 579 525 675 517 l 562 587 q 598 585 583 585 q 655 625 646 585 q 661 808 664 665 l 571 808 q 418 472 532 566 l 371 515 q 504 808 479 608 l 414 808 l 414 875 l 726 875 m 1307 554 l 1257 514 q 1124 765 1171 598 l 1179 790 q 1307 554 1214 670 m 334 639 l 288 586 q 96 722 246 629 l 138 778 q 334 639 258 709 m 1182 -72 l 1108 -72 l 1108 153 l 558 153 q 443 -75 518 7 l 383 -31 q 507 349 507 109 l 507 485 l 579 485 l 579 407 l 1108 407 l 1108 484 l 1182 484 l 1182 -72 m 1108 221 l 1108 340 l 576 340 q 568 221 576 279 l 1108 221 m 339 374 q 158 -82 237 58 l 102 -36 q 277 411 205 157 l 339 374 z "},"濼":{"ha":1389,"x_min":92,"x_max":1312,"o":"m 974 503 l 701 503 l 701 1011 l 774 1011 q 827 1147 809 1082 l 893 1124 q 850 1011 881 1081 l 974 1011 l 974 503 m 911 799 l 911 949 l 766 949 l 766 799 l 911 799 m 911 570 l 911 734 l 766 734 l 766 570 l 911 570 m 682 482 l 619 456 q 606 519 617 484 q 375 475 493 492 l 358 536 q 529 766 444 616 q 386 745 460 753 l 370 806 q 533 1141 458 919 l 600 1116 q 449 817 530 925 q 568 839 510 825 q 616 939 587 873 l 676 909 q 460 553 579 694 q 587 581 526 559 q 567 643 581 611 l 627 672 q 682 482 667 560 m 1312 493 l 1257 460 q 1235 524 1253 477 q 1014 493 1137 505 l 1004 553 q 1152 772 1074 635 q 1015 757 1096 767 l 1003 817 q 1136 1137 1081 941 l 1204 1117 q 1075 829 1152 964 q 1187 846 1120 831 q 1229 949 1210 889 l 1293 925 q 1083 559 1228 755 q 1208 582 1145 567 l 1179 640 l 1232 671 q 1312 493 1280 589 m 387 966 l 343 908 q 119 1079 258 996 l 164 1137 q 387 966 305 1051 m 343 618 l 300 559 q 92 729 222 644 l 135 787 q 343 618 255 705 m 1303 311 l 872 311 l 872 -71 l 803 -71 l 803 311 l 379 311 l 379 374 l 803 374 l 803 457 l 872 457 l 872 374 l 1303 374 l 1303 311 m 345 363 q 150 -75 256 90 l 97 -21 q 285 404 205 162 l 345 363 m 714 211 q 412 -14 611 102 l 368 43 q 654 256 539 137 l 714 211 m 1310 29 l 1255 -16 q 977 203 1124 112 l 1029 250 q 1310 29 1187 155 z "},"瀆":{"ha":1389,"x_min":94,"x_max":1308,"o":"m 385 971 l 340 914 q 131 1088 243 1011 l 172 1145 q 385 971 312 1048 m 1299 1006 l 882 1006 l 882 930 l 1243 930 l 1243 872 l 468 872 l 468 930 l 814 930 l 814 1006 l 410 1006 l 410 1065 l 814 1065 l 814 1141 l 882 1141 l 882 1065 l 1299 1065 l 1299 1006 m 1255 611 l 444 611 l 444 814 l 1255 814 l 1255 611 m 1186 668 l 1186 755 l 1008 755 l 1008 668 l 1186 668 m 937 668 l 937 755 l 758 755 l 758 668 l 937 668 m 690 668 l 690 755 l 513 755 l 513 668 l 690 668 m 363 623 l 317 568 q 103 742 214 669 l 147 796 q 363 623 274 709 m 1210 114 l 721 114 l 754 66 q 428 -78 593 -31 l 390 -12 q 699 114 564 36 l 490 114 l 490 549 l 1210 549 l 1210 114 m 1139 425 l 1139 490 l 562 490 l 562 425 l 1139 425 m 1139 297 l 1139 370 l 562 370 l 562 297 l 1139 297 m 1139 174 l 1139 241 l 562 241 l 562 174 l 1139 174 m 343 375 q 153 -68 254 98 l 94 -22 q 282 410 200 159 l 343 375 m 1308 -9 l 1274 -74 q 940 25 1119 -8 l 981 87 q 1308 -9 1175 48 z "},"瀉":{"ha":1389,"x_min":96,"x_max":1287,"o":"m 1287 863 l 1218 863 l 1218 981 l 465 981 l 465 863 l 397 863 l 397 1046 l 812 1046 q 758 1132 784 1097 l 829 1150 q 890 1046 858 1110 l 1287 1046 l 1287 863 m 364 979 l 317 929 q 126 1095 203 1047 l 172 1147 q 364 979 267 1088 m 1251 401 q 1236 156 1252 313 q 1196 -26 1220 -2 q 1151 -61 1173 -50 q 987 -72 1130 -72 l 961 -3 l 1099 -1 q 1155 58 1142 -1 q 1179 338 1167 118 l 547 338 q 404 221 475 269 l 349 271 q 603 498 519 386 l 484 498 l 484 831 q 774 921 644 867 l 808 864 q 554 781 692 817 l 554 707 l 783 707 l 783 643 l 554 643 l 554 562 l 1124 562 l 1124 643 l 895 643 l 895 707 l 1124 707 l 1124 799 l 882 799 l 882 863 l 1194 863 l 1194 498 l 689 498 q 614 401 664 460 l 1251 401 m 359 621 l 314 571 q 96 749 189 697 l 143 806 q 359 621 291 709 m 339 375 q 153 -71 264 122 l 98 -17 q 275 412 212 174 l 339 375 m 1076 85 l 1013 66 q 945 264 990 165 l 1006 279 q 1076 85 1056 190 m 909 20 l 847 4 q 790 253 830 140 l 854 265 q 909 20 901 125 m 575 233 q 411 -58 496 47 l 357 -12 q 514 261 442 89 l 575 233 m 730 -17 l 663 -28 q 623 239 656 98 l 689 249 q 730 -17 724 104 z "},"火":{"ha":1389,"x_min":92,"x_max":1305,"o":"m 1305 -20 l 1263 -83 q 696 616 790 182 q 139 -82 621 190 l 92 -18 q 435 249 281 81 q 623 647 589 416 q 656 1147 657 877 l 732 1147 l 728 934 q 791 558 728 730 q 1178 957 1049 772 l 1239 905 q 817 486 1085 703 q 1305 -20 945 178 m 505 536 l 441 493 q 158 897 342 695 l 222 939 q 505 536 410 729 z "},"灸":{"ha":1389,"x_min":90,"x_max":1304,"o":"m 1304 562 l 1260 498 q 774 714 1057 626 q 132 494 522 565 l 92 562 q 975 954 662 652 l 530 954 q 208 753 370 820 l 161 817 q 618 1152 466 943 l 693 1132 q 611 1028 665 1087 l 1088 1028 l 1088 954 q 854 764 943 824 q 1304 562 1139 663 m 1304 -5 l 1271 -78 q 693 315 821 41 q 524 95 647 189 q 131 -79 401 2 l 90 -8 q 378 94 264 34 q 557 229 493 155 q 637 365 621 304 q 669 566 652 427 l 739 566 q 732 475 737 502 q 728 439 728 449 q 791 288 728 382 q 1059 509 943 355 l 1121 458 q 842 228 1021 336 q 1304 -5 991 70 m 515 288 l 464 236 q 272 447 399 334 l 319 498 q 515 288 447 395 z "},"炎":{"ha":1389,"x_min":86,"x_max":1315,"o":"m 1265 600 l 1221 542 q 693 815 1000 689 q 165 562 558 636 l 127 632 q 491 740 378 673 q 647 880 604 807 q 694 1145 690 953 l 768 1146 q 725 872 764 978 q 751 861 732 871 q 1097 1082 964 958 l 1157 1038 q 838 827 1026 919 q 1265 600 1132 691 m 518 892 l 465 836 q 243 1040 382 943 l 293 1095 q 518 892 415 1008 m 1315 0 l 1272 -66 q 705 334 827 64 q 129 -66 589 18 l 86 5 q 391 95 252 24 q 603 283 530 166 q 679 642 675 400 l 754 642 q 745 457 745 499 q 799 306 745 383 q 1088 509 968 393 l 1140 454 q 842 253 1004 334 q 1315 0 981 90 m 493 315 l 437 260 q 241 450 359 359 l 292 507 q 493 315 399 425 z "},"焦":{"ha":1389,"x_min":92,"x_max":1303,"o":"m 1267 297 l 298 297 l 298 822 q 147 639 208 702 l 96 694 q 416 1158 270 873 l 486 1135 q 396 974 439 1045 l 746 974 q 681 1116 725 1034 l 746 1140 q 817 974 795 1042 l 1251 974 l 1251 905 l 808 905 l 808 778 l 1200 778 l 1200 710 l 808 710 l 808 574 l 1200 574 l 1200 507 l 808 507 l 808 364 l 1267 364 l 1267 297 m 737 778 l 737 905 l 371 905 l 371 778 l 737 778 m 737 574 l 737 710 l 371 710 l 371 574 l 737 574 m 737 364 l 737 507 l 371 507 l 371 364 l 737 364 m 363 204 q 151 -65 254 34 l 92 -16 q 306 240 182 62 l 363 204 m 1303 -35 l 1244 -74 q 1067 195 1174 64 l 1125 232 q 1303 -35 1248 79 m 957 -33 l 889 -68 q 785 201 847 76 l 850 229 q 957 -33 906 117 m 612 -45 l 542 -62 q 486 200 519 101 l 554 220 q 612 -45 597 81 z "},"然":{"ha":1389,"x_min":85,"x_max":1303,"o":"m 710 1019 q 501 549 657 704 q 127 318 345 394 l 92 382 q 507 672 372 479 q 313 838 426 759 q 136 665 214 717 l 85 717 q 407 1149 275 846 l 473 1126 q 424 1019 459 1084 l 710 1019 m 623 951 l 387 951 q 351 892 376 929 q 545 737 448 826 q 623 951 597 827 m 1274 751 l 970 751 q 578 315 930 436 l 534 375 q 895 751 871 486 l 717 751 l 717 819 l 901 819 q 916 1146 910 927 l 985 1146 q 974 819 982 982 l 1274 819 l 1274 751 m 1240 929 l 1177 893 q 1065 1064 1128 998 l 1129 1100 q 1240 929 1200 1019 m 395 619 q 174 542 281 571 l 154 607 q 379 690 289 648 l 395 619 m 1303 370 l 1249 315 q 993 603 1154 458 l 1051 647 q 1303 370 1186 526 m 351 235 q 144 -68 251 43 l 90 -17 q 289 273 191 87 l 351 235 m 1297 -41 l 1231 -78 q 1065 232 1175 66 l 1131 265 q 1297 -41 1232 112 m 953 -45 l 882 -72 q 774 233 855 60 l 843 260 q 953 -45 909 122 m 611 -52 l 538 -71 q 493 235 528 108 l 564 256 q 611 -52 604 107 z "},"照":{"ha":1389,"x_min":87,"x_max":1289,"o":"m 1229 1099 q 1217 918 1230 1054 q 1186 755 1203 783 q 1143 712 1170 728 q 1049 696 1117 696 q 962 701 1006 696 l 935 770 q 1028 766 985 766 q 1114 780 1098 766 q 1141 862 1129 794 q 1156 1034 1153 930 l 922 1034 q 621 667 879 770 l 576 722 q 850 1034 821 826 l 597 1034 l 597 1099 l 1229 1099 m 511 307 l 154 307 l 154 1082 l 511 1082 l 511 307 m 443 746 l 443 1013 l 224 1013 l 224 746 l 443 746 m 443 375 l 443 676 l 224 676 l 224 375 l 443 375 m 1198 293 l 650 293 l 650 636 l 1198 636 l 1198 293 m 1129 361 l 1129 568 l 721 568 l 721 361 l 1129 361 m 357 197 q 143 -68 267 49 l 87 -20 q 298 240 232 117 l 357 197 m 1289 -45 l 1227 -81 q 1068 201 1181 25 l 1125 235 q 1289 -45 1224 102 m 950 -57 l 882 -83 q 771 204 841 54 l 836 227 q 950 -57 902 106 m 611 -58 l 541 -77 q 493 210 530 65 l 561 224 q 611 -58 605 39 z "},"營":{"ha":1389,"x_min":139,"x_max":1263,"o":"m 1260 783 l 1222 721 q 971 846 1086 803 q 732 725 885 766 l 692 786 q 917 893 859 827 q 971 1143 976 959 l 1040 1143 q 1034 1013 1040 1093 q 1213 1114 1137 1057 l 1255 1061 q 1021 939 1164 997 q 1007 901 1016 920 q 1260 783 1122 857 m 676 1050 q 446 936 583 989 l 437 907 q 661 790 582 838 l 621 730 q 407 851 559 773 q 197 724 319 756 l 155 782 q 313 854 253 806 q 386 972 372 901 q 400 1143 400 1043 l 468 1143 q 461 1015 465 1057 q 633 1101 536 1042 l 676 1050 m 884 946 l 821 917 q 725 1067 793 976 l 782 1101 q 884 946 846 1029 m 314 935 l 253 901 q 146 1055 201 994 l 204 1095 q 314 935 281 1000 m 1263 505 l 1189 505 l 1189 632 l 208 632 l 208 507 l 139 507 l 139 697 l 1263 697 l 1263 505 m 1204 -71 l 1132 -71 l 1132 -18 l 267 -18 l 267 -69 l 196 -69 l 196 237 l 608 237 q 648 330 637 292 l 310 330 l 310 549 l 1090 549 l 1090 330 l 729 330 q 688 237 705 274 l 1204 237 l 1204 -71 m 1018 396 l 1018 482 l 382 482 l 382 396 l 1018 396 m 1132 47 l 1132 170 l 267 170 l 267 47 l 1132 47 z "},"爻":{"ha":1389,"x_min":94,"x_max":1315,"o":"m 1243 632 l 1200 574 q 713 808 948 711 q 186 587 501 697 l 140 650 q 631 848 420 748 q 192 1004 321 968 l 224 1067 q 707 893 484 989 q 1100 1143 911 1000 l 1160 1096 q 791 852 994 975 q 1243 632 1031 752 m 1315 -17 l 1278 -85 q 700 175 949 -18 q 136 -78 472 -6 l 94 -9 q 640 224 405 47 q 395 587 499 363 l 458 618 q 696 273 567 393 q 946 625 849 425 l 1010 591 q 755 225 898 367 q 1315 -17 985 54 z "},"牖":{"ha":1389,"x_min":83,"x_max":1300,"o":"m 1300 561 l 1011 561 l 1011 472 l 1263 472 l 1263 35 q 1244 -35 1263 -12 q 1199 -64 1225 -58 q 1097 -71 1173 -71 l 1078 -8 q 1160 -8 1121 -9 q 1198 36 1198 -7 l 1198 117 l 1011 117 l 1011 -58 l 946 -58 l 946 117 l 762 117 l 762 -74 l 699 -74 l 699 472 l 946 472 l 946 561 l 639 561 q 550 -77 635 162 l 492 -35 q 571 542 571 205 l 571 1090 q 1244 1146 859 1088 l 1278 1086 q 639 1028 983 1037 l 639 951 l 1254 951 l 1254 730 l 1011 730 l 1011 625 l 1300 625 l 1300 561 m 1185 794 l 1185 888 l 639 888 l 639 794 l 1185 794 m 946 625 l 946 730 l 639 730 l 639 625 l 946 625 m 1198 321 l 1198 410 l 1011 410 l 1011 321 l 1198 321 m 946 321 l 946 410 l 762 410 l 762 321 l 946 321 m 1198 175 l 1198 264 l 1011 264 l 1011 175 l 1198 175 m 946 175 l 946 264 l 762 264 l 762 175 l 946 175 m 463 -74 l 395 -74 l 395 439 l 250 439 q 139 -82 224 92 l 83 -45 q 187 675 187 190 l 187 1137 l 254 1137 l 254 791 l 396 791 l 396 1146 l 463 1146 l 463 726 l 254 726 q 250 510 254 601 l 463 510 l 463 -74 m 1226 686 l 1203 637 q 1080 665 1124 659 l 1107 717 q 1226 686 1216 690 z "},"牽":{"ha":1389,"x_min":98,"x_max":1299,"o":"m 1292 974 l 710 974 q 546 875 632 918 q 884 899 840 893 q 935 945 909 919 l 1007 908 q 821 755 868 792 l 1271 755 l 1271 568 l 1202 568 l 1202 688 l 725 688 q 494 559 614 612 q 935 586 658 558 q 896 619 920 605 l 951 661 q 1139 489 1088 558 l 1080 452 q 1006 529 1049 490 q 296 488 667 499 l 285 547 q 597 688 441 593 l 201 688 l 201 568 l 131 568 l 131 755 l 703 755 q 803 836 753 792 q 403 814 549 820 l 397 864 q 604 974 522 911 l 115 974 l 115 1043 l 672 1043 q 618 1125 659 1069 l 689 1152 q 754 1043 730 1094 l 1292 1043 l 1292 974 m 1299 86 l 734 86 l 734 -69 l 664 -69 l 664 86 l 98 86 l 98 158 l 664 158 l 664 293 l 332 293 q 227 192 289 243 l 165 239 q 368 454 301 349 l 437 428 q 390 363 414 393 l 664 363 l 664 467 l 734 467 l 734 363 l 1179 363 l 1179 293 l 734 293 l 734 158 l 1299 158 l 1299 86 z "},"犢":{"ha":1389,"x_min":83,"x_max":1305,"o":"m 1292 1010 l 929 1010 l 929 939 l 1234 939 l 1234 880 l 558 880 l 558 939 l 860 939 l 860 1010 l 501 1010 l 501 1069 l 860 1069 l 860 1146 l 929 1146 l 929 1069 l 1292 1069 l 1292 1010 m 519 454 l 386 404 l 386 -71 l 318 -71 l 318 380 q 103 317 180 334 l 83 385 q 318 452 119 391 l 318 770 l 216 770 q 157 558 193 665 l 93 587 q 183 1015 163 768 l 244 1000 q 228 840 244 993 l 318 840 l 318 1145 l 386 1145 l 386 840 l 479 840 l 479 770 l 386 770 l 386 476 l 519 525 l 519 454 m 1251 614 l 536 614 l 536 819 l 1251 819 l 1251 614 m 974 672 l 974 758 l 819 758 l 819 672 l 974 672 m 753 672 l 753 758 l 604 758 l 604 672 l 753 672 m 1186 672 l 1186 757 l 1038 757 l 1038 672 l 1186 672 m 1204 114 l 793 114 l 832 75 q 515 -71 694 -25 l 479 -9 q 775 114 642 24 l 578 114 l 578 555 l 1204 555 l 1204 114 m 1135 427 l 1135 492 l 647 492 l 647 427 l 1135 427 m 1135 302 l 1135 367 l 647 367 l 647 302 l 1135 302 m 1135 178 l 1135 243 l 647 243 l 647 178 l 1135 178 m 1305 -12 l 1270 -69 q 966 28 1124 -5 l 1007 87 q 1305 -12 1177 46 z "},"率":{"ha":1389,"x_min":94,"x_max":1303,"o":"m 1264 949 l 686 949 l 736 917 q 567 734 671 817 q 770 753 656 736 q 847 846 807 792 l 908 810 q 578 500 766 623 q 856 530 694 505 q 799 611 830 575 l 857 647 q 994 425 943 544 l 935 389 l 893 471 q 469 425 686 438 l 454 489 q 696 679 564 554 q 468 664 564 669 l 454 725 q 669 949 593 823 l 143 949 l 143 1017 l 669 1017 q 606 1131 636 1088 l 681 1156 q 749 1017 725 1076 l 1264 1017 l 1264 949 m 397 734 l 345 684 q 163 844 264 776 l 216 895 q 397 734 314 829 m 1229 843 q 1021 675 1139 749 l 965 728 q 1174 886 1065 779 l 1229 843 m 432 550 q 158 371 289 441 l 122 435 q 399 619 262 507 l 432 550 m 1278 432 l 1229 376 q 974 564 1147 460 l 1021 618 q 1278 432 1183 523 m 1303 199 l 739 199 l 739 -71 l 664 -71 l 664 199 l 94 199 l 94 265 l 664 265 l 664 396 l 739 396 l 739 265 l 1303 265 l 1303 199 z "},"玉":{"ha":1389,"x_min":92,"x_max":1297,"o":"m 1297 -37 l 92 -37 l 92 36 l 643 36 l 643 571 l 187 571 l 187 642 l 643 642 l 643 1046 l 143 1046 l 143 1118 l 1246 1118 l 1246 1046 l 718 1046 l 718 642 l 1200 642 l 1200 571 l 718 571 l 718 36 l 1297 36 l 1297 -37 m 1202 210 l 1140 165 q 922 446 1078 283 l 979 488 q 1202 210 1113 356 z "},"玑":{"ha":1389,"x_min":83,"x_max":1299,"o":"m 1299 241 q 1291 101 1298 203 q 1258 -30 1283 -1 q 1154 -58 1234 -58 q 1028 22 1028 -58 l 1028 1035 l 725 1035 l 725 547 q 532 -90 725 106 l 478 -41 q 657 543 657 143 l 657 1104 l 1099 1104 l 1099 40 q 1126 12 1099 12 q 1198 18 1181 12 q 1219 94 1214 24 l 1229 267 l 1299 241 m 604 272 q 111 60 372 157 l 83 123 q 309 212 145 145 l 309 593 l 121 593 l 121 664 l 309 664 l 309 982 l 104 982 l 104 1051 l 591 1051 l 591 982 l 378 982 l 378 664 l 566 664 l 566 593 l 378 593 l 378 241 q 579 336 525 307 l 604 272 z "},"珠":{"ha":1389,"x_min":96,"x_max":1315,"o":"m 1315 81 l 1263 25 q 958 468 1068 212 l 958 -71 l 888 -71 l 888 471 q 528 32 732 194 l 471 86 q 859 564 719 273 l 557 564 l 557 632 l 888 632 l 888 857 l 663 857 q 579 714 631 791 l 519 754 q 690 1111 631 909 l 755 1095 q 694 924 727 999 l 888 924 l 888 1141 l 958 1141 l 958 924 l 1263 924 l 1263 857 l 958 857 l 958 632 l 1296 632 l 1296 564 l 990 564 q 1315 81 1112 264 m 545 260 q 122 60 344 149 l 96 129 q 300 215 198 167 l 300 597 l 131 597 l 131 665 l 300 665 l 300 1014 l 111 1014 l 111 1080 l 545 1080 l 545 1014 l 371 1014 l 371 665 l 511 665 l 511 597 l 371 597 l 371 249 q 539 332 433 275 l 545 260 z "},"球":{"ha":1389,"x_min":82,"x_max":1308,"o":"m 1308 94 l 1267 35 q 936 524 1043 233 l 936 45 q 907 -39 936 -3 q 774 -75 878 -75 q 688 -69 728 -75 l 668 0 q 777 -5 728 -5 q 849 6 832 -5 q 865 49 865 18 l 865 831 l 511 831 l 511 897 l 865 897 l 865 1145 l 936 1145 l 936 897 l 1304 897 l 1304 831 l 936 831 l 936 762 q 1007 519 947 644 q 1218 726 1131 610 l 1274 681 q 1035 454 1187 569 q 1308 94 1109 293 m 1240 991 l 1183 943 q 1048 1075 1133 1011 l 1099 1125 q 1240 991 1179 1067 m 524 278 q 113 60 356 182 l 82 121 q 281 222 208 182 l 281 600 l 117 600 l 117 665 l 281 665 l 281 985 l 103 985 l 103 1051 l 521 1051 l 521 985 l 350 985 l 350 665 l 496 665 l 496 600 l 350 600 l 350 261 q 519 355 427 297 l 524 278 m 790 521 l 730 478 q 555 704 666 592 l 614 747 q 790 521 736 618 m 783 321 q 496 49 606 125 l 450 106 q 746 382 585 202 l 783 321 z "},"璇":{"ha":1389,"x_min":86,"x_max":1320,"o":"m 1304 871 l 925 871 q 810 669 877 749 l 760 718 q 917 1152 889 874 l 983 1136 q 947 940 977 1044 l 1304 940 l 1304 871 m 796 838 l 581 838 l 581 646 l 770 646 q 751 214 766 399 q 724 -3 737 30 q 680 -54 711 -36 q 542 -68 648 -73 l 519 1 q 590 -1 566 -1 q 648 12 635 -1 q 666 48 661 24 q 684 254 671 72 q 697 576 696 437 l 575 576 q 379 -74 573 137 l 321 -29 q 509 616 509 174 l 509 838 l 425 838 l 425 907 l 591 907 q 521 1121 574 1004 l 587 1147 q 664 907 641 1019 l 796 907 l 796 838 m 452 982 l 306 982 l 306 665 l 432 665 l 432 597 l 306 597 l 306 233 q 431 286 373 256 l 437 218 q 113 87 262 136 l 86 150 q 236 205 178 181 l 236 597 l 103 597 l 103 665 l 236 665 l 236 982 l 94 982 l 94 1047 l 452 1047 l 452 982 m 1320 29 l 1293 -41 q 1008 -9 1092 -47 q 892 98 924 28 q 817 -74 857 -5 l 757 -36 q 880 524 865 163 l 950 517 q 944 408 947 459 q 932 307 940 356 l 916 207 q 944 140 916 189 q 1026 57 972 90 l 1026 672 l 886 672 l 886 741 l 1299 741 q 1232 510 1269 599 l 1166 530 q 1211 672 1194 598 l 1097 672 l 1097 396 l 1244 396 l 1244 325 l 1097 325 l 1097 33 q 1221 27 1151 27 q 1320 29 1262 27 z "},"環":{"ha":1389,"x_min":86,"x_max":1305,"o":"m 1243 836 l 524 836 l 524 1107 l 1243 1107 l 1243 836 m 1173 901 l 1173 1043 l 1032 1043 l 1032 901 l 1173 901 m 958 901 l 958 1043 l 814 1043 l 814 901 l 958 901 m 743 901 l 743 1043 l 595 1043 l 595 901 l 743 901 m 488 264 q 117 50 250 115 l 86 113 q 245 200 164 151 l 245 597 l 110 597 l 110 663 l 245 663 l 245 981 l 93 981 l 93 1047 l 463 1047 l 463 981 l 317 981 l 317 663 l 446 663 l 446 597 l 317 597 l 317 240 q 475 338 406 292 l 488 264 m 1297 675 l 478 675 l 478 743 l 1297 743 l 1297 675 m 1225 353 l 833 353 q 699 210 780 275 l 699 24 q 922 102 811 56 l 936 36 q 628 -75 741 -39 l 599 -11 q 629 41 629 13 l 629 158 q 472 69 528 94 l 437 127 q 754 353 638 216 l 546 353 l 546 587 l 1225 587 l 1225 353 m 1154 416 l 1154 521 l 615 521 l 615 416 l 1154 416 m 1305 -11 l 1272 -74 q 1050 70 1152 -28 q 913 279 949 168 l 972 301 q 1043 178 1004 229 q 1210 293 1139 222 l 1260 250 q 1089 125 1202 190 q 1305 -11 1163 43 z "},"申":{"ha":1389,"x_min":175,"x_max":1213,"o":"m 1213 257 l 730 257 l 730 -68 l 657 -68 l 657 257 l 175 257 l 175 936 l 657 936 l 657 1150 l 730 1150 l 730 936 l 1213 936 l 1213 257 m 1140 636 l 1140 864 l 730 864 l 730 636 l 1140 636 m 657 636 l 657 864 l 248 864 l 248 636 l 657 636 m 1140 328 l 1140 566 l 730 566 l 730 328 l 1140 328 m 657 328 l 657 566 l 248 566 l 248 328 l 657 328 z "},"疹":{"ha":1389,"x_min":81,"x_max":1305,"o":"m 1289 943 l 400 943 l 400 681 q 179 -69 400 154 l 121 -17 q 321 481 298 165 q 117 371 208 414 l 81 435 q 329 568 208 490 l 329 1015 l 749 1015 q 697 1136 733 1062 l 765 1153 q 823 1015 792 1103 l 1289 1015 l 1289 943 m 268 713 l 203 685 q 97 921 174 782 l 161 953 q 268 713 233 826 m 1305 576 l 1267 513 q 879 785 1049 617 q 469 514 707 625 l 422 576 q 885 896 692 687 l 951 863 q 924 832 935 844 q 1305 576 1110 656 m 951 596 q 538 336 808 445 l 493 400 q 893 637 745 488 l 951 596 m 1116 481 q 551 140 919 253 l 510 204 q 1055 518 855 299 l 1116 481 m 1278 349 q 957 81 1160 193 q 522 -72 754 -31 l 479 -4 q 900 135 694 28 q 1214 382 1106 241 l 1278 349 z "},"病":{"ha":1389,"x_min":82,"x_max":1303,"o":"m 1303 954 l 389 954 l 389 557 q 179 -79 389 138 l 123 -22 q 313 460 307 172 q 114 323 265 422 l 82 385 q 315 547 221 470 l 315 1023 l 766 1023 q 714 1135 753 1073 l 785 1157 q 842 1023 828 1067 l 1303 1023 l 1303 954 m 254 675 l 187 646 q 96 899 165 755 l 157 930 q 254 675 222 793 m 1287 726 l 903 726 q 896 566 903 635 l 1243 566 l 1243 28 q 1223 -32 1243 -6 q 1172 -62 1202 -57 q 1067 -67 1141 -67 q 996 -65 1032 -67 l 975 7 q 1064 3 1023 3 q 1158 13 1143 3 q 1173 46 1173 23 l 1173 497 l 889 497 q 868 403 881 438 q 1129 186 1029 292 l 1080 132 q 846 338 965 254 q 647 104 771 189 l 604 164 q 817 497 787 294 l 567 497 l 567 -66 l 494 -66 l 494 566 l 823 566 q 831 726 833 637 l 454 726 l 454 799 l 1287 799 l 1287 726 z "},"痒":{"ha":1389,"x_min":92,"x_max":1304,"o":"m 1304 942 l 389 942 l 389 500 q 199 -75 389 165 l 144 -28 q 317 492 321 197 q 125 358 196 400 l 92 427 q 318 589 238 513 l 318 1014 l 808 1014 q 728 1118 774 1065 l 796 1153 q 890 1014 848 1090 l 1303 1014 l 1304 942 m 271 707 l 205 673 q 94 924 155 821 l 163 958 q 271 707 233 827 m 786 802 l 728 753 q 574 860 666 808 l 631 911 q 786 802 724 859 m 1149 861 q 985 755 1063 787 l 935 808 q 1092 908 1035 859 l 1149 861 m 1304 175 l 895 175 l 895 -75 l 822 -75 l 822 175 l 414 175 l 414 243 l 822 243 l 822 421 l 478 421 l 478 488 l 822 488 l 822 654 l 446 654 l 446 724 l 1271 724 l 1271 654 l 895 654 l 895 488 l 1243 488 l 1243 421 l 895 421 l 895 243 l 1304 243 l 1304 175 z "},"痛":{"ha":1389,"x_min":89,"x_max":1305,"o":"m 1305 954 l 383 954 l 383 571 q 184 -66 383 171 l 123 -24 q 310 484 304 199 q 113 380 263 452 l 89 446 q 313 570 230 509 l 313 1022 l 785 1022 q 724 1129 764 1069 l 790 1160 q 868 1022 842 1077 l 1305 1022 l 1305 954 m 268 710 l 204 681 q 100 925 144 846 l 167 960 q 268 710 229 835 m 1247 16 q 1217 -51 1247 -31 q 1113 -71 1186 -71 q 1046 -69 1086 -71 l 1026 0 q 1091 -2 1057 -2 q 1165 9 1149 -2 q 1181 46 1181 21 l 1181 164 l 903 164 l 903 -41 l 832 -41 l 832 164 l 561 164 l 561 -68 l 488 -68 l 488 600 l 833 600 q 673 717 770 654 l 732 761 q 896 639 810 713 q 1111 793 996 694 l 486 793 l 486 859 l 1227 859 l 1227 790 q 962 600 1102 688 l 1247 600 l 1247 16 m 1181 415 l 1181 534 l 903 534 l 903 415 l 1181 415 m 832 415 l 832 534 l 561 534 l 561 415 l 832 415 m 1181 232 l 1181 349 l 903 349 l 903 232 l 1181 232 m 832 232 l 832 349 l 561 349 l 561 232 l 832 232 z "},"痞":{"ha":1389,"x_min":92,"x_max":1307,"o":"m 1295 950 l 408 950 l 408 554 q 211 -72 408 172 l 151 -29 q 332 492 308 170 q 125 378 239 435 l 92 444 q 340 582 237 511 l 340 1018 l 791 1018 q 730 1132 772 1069 l 800 1157 q 871 1018 837 1095 l 1295 1018 l 1295 950 m 281 724 l 216 696 q 114 924 176 813 l 179 953 q 281 724 253 819 m 1307 457 l 1264 396 q 895 586 1069 520 l 895 329 l 1203 329 l 1203 -69 l 1129 -69 l 1129 4 l 595 4 l 595 -69 l 522 -69 l 522 329 l 823 329 l 823 616 q 488 396 696 497 l 452 457 q 859 762 730 587 l 476 762 l 476 831 l 1274 831 l 1274 762 l 943 762 q 895 693 916 720 l 895 664 q 1307 457 1134 565 m 1129 74 l 1129 260 l 595 260 l 595 74 l 1129 74 z "},"瘈":{"ha":1389,"x_min":89,"x_max":1310,"o":"m 1293 958 l 361 958 l 361 482 q 155 -75 361 180 l 102 -20 q 288 464 279 188 q 126 349 203 395 l 89 414 q 289 551 203 475 l 289 1025 l 742 1025 q 692 1117 729 1069 l 764 1149 q 825 1025 799 1096 l 1293 1025 l 1293 958 m 249 690 l 183 659 q 104 913 155 794 l 168 942 q 249 690 222 811 m 832 757 l 660 757 l 660 659 l 812 659 l 812 596 l 660 596 l 660 490 q 810 522 749 507 l 818 457 q 660 424 730 436 l 660 334 l 590 334 l 590 408 q 412 390 517 397 l 400 456 q 590 479 515 466 l 590 596 l 432 596 l 432 659 l 590 659 l 590 757 l 418 757 l 418 821 l 590 821 l 590 911 l 660 911 l 660 821 l 832 821 l 832 757 m 1270 852 q 1263 632 1272 790 q 1244 437 1255 473 q 1203 381 1233 400 q 1104 363 1173 363 q 1039 367 1072 363 l 1013 436 q 1133 433 1076 433 q 1167 451 1153 433 q 1190 562 1182 468 q 1197 786 1197 655 l 1047 786 q 868 364 1034 482 l 818 408 q 978 786 970 522 l 878 786 l 878 852 l 1270 852 m 1292 207 l 848 207 q 370 -78 734 -16 l 328 -8 q 765 207 668 39 l 386 207 l 386 275 l 790 275 q 799 345 799 309 l 868 339 q 865 275 870 309 l 1292 275 l 1292 207 m 1310 -20 l 1265 -78 q 859 86 1100 18 l 900 144 q 1310 -20 1142 79 z "},"療":{"ha":1389,"x_min":86,"x_max":1307,"o":"m 1305 965 l 359 965 l 359 581 q 154 -65 359 211 l 97 -14 q 285 472 271 221 q 122 359 148 374 l 86 421 q 292 562 191 482 l 292 1034 l 754 1034 q 701 1124 741 1065 l 772 1150 q 833 1034 794 1112 l 1305 1034 l 1305 965 m 1307 515 l 1270 450 q 1140 515 1200 481 l 1140 232 l 872 232 l 872 29 q 834 -50 872 -32 q 725 -68 797 -68 l 660 -68 l 636 3 q 722 -1 685 -1 q 790 8 777 -1 q 803 40 803 18 l 803 232 l 533 232 l 533 515 q 422 449 467 471 l 378 507 q 538 604 479 556 q 418 701 485 657 l 468 751 q 591 648 557 684 q 708 790 659 703 l 443 790 l 443 856 l 745 856 q 781 935 762 888 l 856 922 q 823 856 846 899 l 1276 856 l 1276 790 l 942 790 q 1059 654 986 720 q 1192 760 1131 697 l 1243 708 q 1116 611 1180 650 q 1307 515 1210 545 m 994 621 q 863 790 909 700 l 790 790 q 664 621 721 677 l 994 621 m 1069 465 l 1069 557 l 604 557 l 604 465 l 1069 465 m 1069 297 l 1069 400 l 604 400 l 604 297 l 1069 297 m 241 693 l 179 656 q 89 897 158 758 l 150 933 q 241 693 209 809 m 660 134 q 410 -36 578 51 l 357 20 q 607 179 490 75 l 660 134 m 1293 8 l 1244 -46 q 979 114 1126 45 l 1022 167 q 1293 8 1161 109 z "},"癖":{"ha":1389,"x_min":93,"x_max":1303,"o":"m 1303 947 l 367 947 l 367 467 q 191 -66 367 146 l 132 -22 q 294 458 279 152 q 122 354 202 396 l 93 419 q 297 545 203 472 l 297 1014 l 772 1014 q 705 1120 753 1057 l 777 1149 q 854 1014 817 1096 l 1303 1014 l 1303 947 m 249 689 l 183 659 q 113 905 156 798 l 174 936 q 249 689 228 798 m 1303 406 l 1116 406 l 1116 237 l 1276 237 l 1276 174 l 1116 174 l 1116 -71 l 1048 -71 l 1048 174 l 890 174 l 890 237 l 1048 237 l 1048 406 l 860 406 l 860 472 l 978 472 q 913 679 938 615 l 960 713 l 890 713 l 890 778 l 1059 778 q 1011 882 1050 806 l 1078 908 q 1133 778 1116 830 l 1275 778 l 1275 713 l 1204 713 l 1250 682 q 1190 472 1225 578 l 1303 472 l 1303 406 m 1183 713 l 978 713 q 1044 472 1015 596 l 1121 472 q 1183 713 1169 618 m 817 -69 l 749 -69 l 749 0 l 585 0 l 585 -69 l 519 -69 l 519 329 q 383 -62 483 83 l 326 -26 q 422 189 386 74 q 458 511 458 304 l 458 844 l 799 844 l 799 518 l 530 518 q 525 387 530 446 l 817 387 l 817 -69 m 730 582 l 730 779 l 530 779 l 530 582 l 730 582 m 749 66 l 749 322 l 585 322 l 585 66 l 749 66 z "},"癮":{"ha":1389,"x_min":86,"x_max":1303,"o":"m 1291 982 l 338 982 l 338 582 q 179 -65 338 168 l 119 -21 q 267 475 252 180 q 121 371 192 414 l 86 428 q 267 559 191 493 l 267 1047 l 737 1047 q 673 1116 717 1075 l 734 1152 q 823 1047 780 1112 l 1291 1047 l 1291 982 m 1263 886 q 726 829 955 824 l 708 888 q 1225 942 1009 895 l 1263 886 m 231 693 l 168 664 q 100 905 144 794 l 161 936 q 231 693 203 822 m 1296 322 l 1222 322 l 1222 211 l 729 211 l 729 267 l 1154 267 l 1154 322 l 673 322 q 647 201 673 248 q 530 160 621 155 l 507 229 q 543 226 526 226 q 596 259 589 226 q 603 320 603 293 q 526 542 603 448 q 597 822 560 659 l 476 822 l 476 -69 l 412 -71 l 412 889 l 665 889 l 665 822 q 597 555 623 643 q 665 379 653 450 l 1154 379 l 1154 428 l 729 428 l 729 486 l 1222 486 l 1222 379 l 1296 379 l 1296 322 m 1227 802 q 1145 729 1193 762 l 1101 777 q 1179 846 1157 822 l 1227 802 m 1039 783 l 1011 728 q 936 772 980 751 l 964 827 q 1039 783 1006 808 m 876 781 l 846 728 q 771 771 809 755 l 799 822 q 876 781 854 799 m 1280 543 l 692 543 l 692 602 l 951 602 l 951 659 l 732 659 l 732 718 l 1239 718 l 1239 659 l 1023 659 l 1023 602 l 1280 602 l 1280 543 m 1039 85 l 987 46 q 904 146 952 100 l 953 184 q 1039 85 987 157 m 1303 -8 l 1244 -41 q 1147 144 1215 46 l 1203 178 q 1303 -8 1276 67 m 1147 64 q 1116 -32 1147 -4 q 981 -59 1084 -59 q 831 -39 867 -59 q 796 31 796 -20 l 796 158 l 863 158 l 863 45 q 901 5 863 6 l 1036 4 q 1088 94 1082 4 l 1147 64 m 743 136 q 644 -57 703 24 l 589 -18 q 681 157 649 66 l 743 136 z "},"白":{"ha":1389,"x_min":205,"x_max":1192,"o":"m 1192 -68 l 1117 -68 l 1117 57 l 279 57 l 279 -68 l 205 -68 l 205 924 l 453 924 q 581 1154 519 1020 l 659 1132 q 545 924 628 1062 l 1192 924 l 1192 -68 m 1117 526 l 1117 852 l 279 852 l 279 526 l 1117 526 m 1117 129 l 1117 456 l 279 456 l 279 129 l 1117 129 z "},"百":{"ha":1389,"x_min":104,"x_max":1308,"o":"m 1308 1036 l 755 1036 q 632 791 697 906 l 1177 791 l 1177 -72 l 1104 -72 l 1104 22 l 300 22 l 300 -72 l 227 -72 l 227 791 l 547 791 q 672 1036 627 916 l 104 1036 l 104 1108 l 1308 1108 l 1308 1036 m 1104 458 l 1104 720 l 300 720 l 300 458 l 1104 458 m 1104 97 l 1104 386 l 300 386 l 300 97 l 1104 97 z "},"皇":{"ha":1389,"x_min":98,"x_max":1304,"o":"m 1152 562 l 248 562 l 248 1015 l 440 1015 q 534 1154 498 1082 l 608 1133 q 533 1015 581 1075 l 1152 1015 l 1152 562 m 1078 828 l 1078 945 l 321 945 l 321 828 l 1078 828 m 1078 635 l 1078 757 l 321 757 l 321 635 l 1078 635 m 1304 -46 l 98 -46 l 98 25 l 664 25 l 664 171 l 192 171 l 192 241 l 664 241 l 664 375 l 142 375 l 142 444 l 1251 444 l 1251 375 l 736 375 l 736 241 l 1208 241 l 1208 171 l 736 171 l 736 25 l 1304 25 l 1304 -46 z "},"皮":{"ha":1389,"x_min":93,"x_max":1305,"o":"m 1305 1 l 1274 -69 q 782 106 977 -6 q 313 -69 616 12 l 277 -1 q 710 153 525 58 q 403 571 511 296 l 329 571 q 151 -65 315 176 l 93 -17 q 260 589 260 213 l 260 977 l 705 977 l 705 1146 l 779 1146 l 779 977 l 1282 977 q 1185 690 1239 789 l 1112 710 q 1190 907 1165 808 l 779 907 l 779 639 l 1173 639 q 847 149 1108 328 q 1305 1 1051 45 m 705 639 l 705 907 l 332 907 l 332 639 l 705 639 m 1075 571 l 479 571 q 779 192 595 304 q 1075 571 1016 351 z "},"盆":{"ha":1389,"x_min":97,"x_max":1308,"o":"m 1308 807 l 1265 742 q 1090 850 1170 793 q 1054 578 1079 644 q 968 491 1028 513 q 729 473 907 469 l 708 546 l 913 547 q 981 587 955 547 q 1015 814 1006 627 l 720 814 q 197 439 624 530 l 161 505 q 643 814 548 580 l 351 814 l 351 864 q 140 728 262 798 l 97 786 q 536 1146 411 959 l 600 1116 q 376 884 522 998 l 1044 884 q 882 1061 936 977 l 766 1061 l 766 1128 l 925 1128 q 1308 807 1034 937 m 1304 -46 l 100 -46 l 100 22 l 258 22 l 258 401 l 1147 401 l 1147 22 l 1304 22 l 1304 -46 m 1075 22 l 1075 332 l 873 332 l 873 22 l 1075 22 m 802 22 l 802 332 l 604 332 l 604 22 l 802 22 m 530 22 l 530 332 l 330 332 l 330 22 l 530 22 z "},"目":{"ha":1389,"x_min":258,"x_max":1129,"o":"m 1129 -72 l 1055 -72 l 1055 21 l 334 21 l 334 -72 l 258 -72 l 258 1109 l 1129 1109 l 1129 -72 m 1055 770 l 1055 1039 l 334 1039 l 334 770 l 1055 770 m 1055 437 l 1055 694 l 334 694 l 334 437 l 1055 437 m 1055 93 l 1055 361 l 334 361 l 334 93 l 1055 93 z "},"相":{"ha":1389,"x_min":86,"x_max":1251,"o":"m 650 484 l 593 436 q 443 664 536 547 l 443 -71 l 371 -71 l 371 635 q 134 300 264 434 l 86 363 q 370 781 245 511 l 121 781 l 121 850 l 371 850 l 371 1139 l 443 1139 l 443 850 l 648 850 l 648 781 l 443 781 l 443 771 q 650 484 576 614 m 1251 -71 l 1179 -71 l 1179 47 l 770 47 l 770 -71 l 696 -71 l 696 1096 l 1251 1096 l 1251 -71 m 1179 771 l 1179 1025 l 770 1025 l 770 771 l 1179 771 m 1179 449 l 1179 701 l 770 701 l 770 449 l 1179 449 m 1179 118 l 1179 379 l 770 379 l 770 118 l 1179 118 z "},"眉":{"ha":1389,"x_min":94,"x_max":1244,"o":"m 1244 812 l 297 812 l 297 575 q 157 -74 297 221 l 94 -26 q 227 575 227 233 l 227 1116 l 1244 1116 l 1244 812 m 1169 880 l 1169 1044 l 777 1044 l 777 880 l 1169 880 m 703 880 l 703 1044 l 297 1044 l 297 880 l 703 880 m 1219 -71 l 1147 -71 l 1147 29 l 504 29 l 504 -71 l 428 -71 l 428 689 l 1219 689 l 1219 -71 m 1147 494 l 1147 616 l 504 616 l 504 494 l 1147 494 m 1147 300 l 1147 427 l 504 427 l 504 300 l 1147 300 m 1147 98 l 1147 231 l 504 231 l 504 98 l 1147 98 z "},"眠":{"ha":1389,"x_min":151,"x_max":1307,"o":"m 1307 193 q 1261 -13 1290 54 q 1179 -81 1232 -81 q 1034 85 1099 -81 q 951 450 968 250 l 697 450 l 697 24 q 925 104 815 60 l 946 41 q 616 -74 822 -16 l 597 -9 q 621 33 621 14 l 621 1107 l 1246 1107 l 1246 742 l 1011 742 q 1017 521 1011 589 l 1293 521 l 1293 450 l 1023 450 q 1099 113 1048 227 q 1175 -1 1150 -1 q 1191 8 1183 -1 q 1215 87 1198 16 q 1238 229 1232 157 l 1307 193 m 1171 812 l 1171 1035 l 697 1035 l 697 812 l 1171 812 m 945 521 q 933 742 936 609 l 697 742 l 697 521 l 945 521 m 494 24 l 421 24 l 421 109 l 224 109 l 224 -5 l 151 -5 l 151 1076 l 494 1076 l 494 24 m 421 786 l 421 1006 l 224 1006 l 224 786 l 421 786 m 421 493 l 421 715 l 224 715 l 224 493 l 421 493 m 421 179 l 421 424 l 224 424 l 224 179 l 421 179 z "}}}
